ZillaSlab-Bold.ufo
<glyph name="exclam" format="1">
  <advance width="261"/>
  <unicode hex="0021"/>
  <outline>
    <contour>
      <point x="207" y="650" type="line"/>
      <point x="53" y="650" type="line"/>
      <point x="83" y="232" type="line"/>
      <point x="177" y="232" type="line"/>
    </contour>
    <contour>
      <point x="56" y="0" type="line"/>
      <point x="207" y="0" type="line"/>
      <point x="207" y="145" type="line"/>
      <point x="56" y="145" type="line"/>
    </contour>
  </outline>
</glyph>
<glyph name="quotedbl" format="1">
  <advance width="387"/>
  <unicode hex="0022"/>
  <outline>
    <contour>
      <point x="158" y="377" type="line"/>
      <point x="168" y="650" type="line"/>
      <point x="39" y="650" type="line"/>
      <point x="49" y="377" type="line"/>
    </contour>
    <contour>
      <point x="338" y="377" type="line"/>
      <point x="348" y="650" type="line"/>
      <point x="219" y="650" type="line"/>
      <point x="229" y="377" type="line"/>
    </contour>
  </outline>
</glyph>
<glyph name="numbersign" format="1">
  <advance width="574"/>
  <unicode hex="0023"/>
  <outline>
    <contour>
      <point x="510" y="521" type="line"/>
      <point x="490" y="420" type="line"/>
      <point x="543" y="420" type="line"/>
      <point x="543" y="322" type="line"/>
      <point x="472" y="322" type="line"/>
      <point x="448" y="199" type="line"/>
      <point x="513" y="199" type="line"/>
      <point x="513" y="101" type="line"/>
      <point x="429" y="101" type="line"/>
      <point x="410" y="0" type="line"/>
      <point x="300" y="0" type="line"/>
      <point x="319" y="101" type="line"/>
      <point x="190" y="101" type="line"/>
      <point x="171" y="0" type="line"/>
      <point x="61" y="0" type="line"/>
      <point x="80" y="101" type="line"/>
      <point x="31" y="101" type="line"/>
      <point x="31" y="199" type="line"/>
      <point x="99" y="199" type="line"/>
      <point x="123" y="322" type="line"/>
      <point x="61" y="322" type="line"/>
      <point x="61" y="420" type="line"/>
      <point x="141" y="420" type="line"/>
      <point x="161" y="521" type="line"/>
      <point x="271" y="521" type="line"/>
      <point x="251" y="420" type="line"/>
      <point x="380" y="420" type="line"/>
      <point x="400" y="521" type="line"/>
    </contour>
    <contour>
      <point x="209" y="199" type="line"/>
      <point x="338" y="199" type="line"/>
      <point x="362" y="322" type="line"/>
      <point x="233" y="322" type="line"/>
    </contour>
  </outline>
</glyph>
<glyph name="quotesingle" format="1">
  <advance width="208"/>
  <unicode hex="0027"/>
  <outline>
    <contour>
      <point x="158" y="377" type="line"/>
      <point x="168" y="650" type="line"/>
      <point x="39" y="650" type="line"/>
      <point x="49" y="377" type="line"/>
    </contour>
  </outline>
</glyph>
<glyph name="parenright" format="1">
  <advance width="289"/>
  <unicode hex="0029"/>
  <outline>
    <contour>
      <point x="105" y="-183" type="curve"/>
      <point x="-9" y="-183" type="line"/>
      <point x="101" y="-43"/>
      <point x="157" y="108"/>
      <point x="157" y="265" type="curve" smooth="yes"/>
      <point x="157" y="420"/>
      <point x="102" y="580"/>
      <point x="-9" y="718" type="curve"/>
      <point x="107" y="718" type="line"/>
      <point x="218" y="571"/>
      <point x="266" y="417"/>
      <point x="266" y="265" type="curve" smooth="yes"/>
      <point x="266" y="111"/>
      <point x="215" y="-41"/>
    </contour>
  </outline>
</glyph>
<glyph name="hyphen" format="1">
  <advance width="321"/>
  <unicode hex="002D"/>
  <unicode hex="00AD"/>
  <outline>
    <contour>
      <point x="41" y="288" type="line"/>
      <point x="280" y="288" type="line"/>
      <point x="280" y="180" type="line"/>
      <point x="41" y="180" type="line"/>
    </contour>
  </outline>
</glyph>
<glyph name="nine" format="1">
  <advance width="535"/>
  <unicode hex="0039"/>
  <outline>
    <contour>
      <point x="31" y="305" type="curve" smooth="yes"/>
      <point x="31" y="207"/>
      <point x="79" y="101"/>
      <point x="214" y="101" type="curve" smooth="yes"/>
      <point x="293" y="101"/>
      <point x="337" y="137"/>
      <point x="360" y="179" type="curve"/>
      <point x="360" y="171"/>
      <point x="360" y="163"/>
      <point x="359" y="156" type="curve" smooth="yes"/>
      <point x="353" y="24"/>
      <point x="324" y="-25"/>
      <point x="245" y="-25" type="curve" smooth="yes"/>
      <point x="192" y="-25"/>
      <point x="146" y="-3"/>
      <point x="123" y="28" type="curve"/>
      <point x="46" y="-49" type="line"/>
      <point x="92" y="-116"/>
      <point x="166" y="-139"/>
      <point x="240" y="-139" type="curve" smooth="yes"/>
      <point x="437" y="-139"/>
      <point x="504" y="26"/>
      <point x="504" y="210" type="curve" smooth="yes"/>
      <point x="504" y="398"/>
      <point x="434" y="531"/>
      <point x="263" y="531" type="curve" smooth="yes"/>
      <point x="120" y="531"/>
      <point x="31" y="438"/>
    </contour>
    <contour>
      <point x="169" y="310" type="curve" smooth="yes"/>
      <point x="169" y="375"/>
      <point x="195" y="413"/>
      <point x="261" y="413" type="curve" smooth="yes"/>
      <point x="326" y="413"/>
      <point x="350" y="377"/>
      <point x="357" y="300" type="curve"/>
      <point x="354" y="248"/>
      <point x="323" y="210"/>
      <point x="258" y="210" type="curve" smooth="yes"/>
      <point x="192" y="210"/>
      <point x="169" y="249"/>
    </contour>
  </outline>
</glyph>
<glyph name="less" format="1">
  <advance width="397"/>
  <unicode hex="003C"/>
  <outline>
    <contour>
      <point x="344" y="14" type="line"/>
      <point x="344" y="136" type="line"/>
      <point x="156" y="282" type="line"/>
      <point x="343" y="427" type="line"/>
      <point x="343" y="549" type="line"/>
      <point x="25" y="301" type="line"/>
      <point x="25" y="257" type="line"/>
    </contour>
  </outline>
</glyph>
<glyph name="equal" format="1">
  <advance width="545"/>
  <unicode hex="003D"/>
  <outline>
    <contour>
      <point x="44" y="347" type="line"/>
      <point x="501" y="347" type="line"/>
      <point x="501" y="435" type="line"/>
      <point x="44" y="435" type="line"/>
    </contour>
    <contour>
      <point x="44" y="125" type="line"/>
      <point x="501" y="125" type="line"/>
      <point x="501" y="213" type="line"/>
      <point x="44" y="213" type="line"/>
    </contour>
  </outline>
</glyph>
<glyph name="at" format="1">
  <advance width="894"/>
  <unicode hex="0040"/>
  <outline>
    <contour>
      <point x="292" y="419" type="curve"/>
      <point x="270" y="297" type="line"/>
      <point x="368" y="286" type="line"/>
      <point x="392" y="355" type="line"/>
      <point x="413" y="366"/>
      <point x="437" y="368"/>
      <point x="452" y="368" type="curve" smooth="yes"/>
      <point x="501" y="368"/>
      <point x="520" y="347"/>
      <point x="520" y="267" type="curve" smooth="yes"/>
      <point x="520" y="252" type="line"/>
      <point x="497" y="255"/>
      <point x="470" y="256"/>
      <point x="449" y="256" type="curve" smooth="yes"/>
      <point x="344" y="256"/>
      <point x="231" y="231"/>
      <point x="231" y="119" type="curve" smooth="yes"/>
      <point x="231" y="25"/>
      <point x="310" y="-10"/>
      <point x="375" y="-10" type="curve" smooth="yes"/>
      <point x="448" y="-10"/>
      <point x="494" y="34"/>
      <point x="521" y="81" type="curve"/>
      <point x="530" y="25"/>
      <point x="589" y="-10"/>
      <point x="661" y="-10" type="curve" smooth="yes"/>
      <point x="812" y="-10"/>
      <point x="862" y="144"/>
      <point x="862" y="275" type="curve" smooth="yes"/>
      <point x="862" y="544"/>
      <point x="652" y="654"/>
      <point x="456" y="654" type="curve" smooth="yes"/>
      <point x="198" y="654"/>
      <point x="29" y="462"/>
      <point x="29" y="214" type="curve" smooth="yes"/>
      <point x="29" y="-49"/>
      <point x="220" y="-202"/>
      <point x="451" y="-202" type="curve" smooth="yes"/>
      <point x="553" y="-202"/>
      <point x="645" y="-172"/>
      <point x="709" y="-130" type="curve"/>
      <point x="667" y="-52" type="line"/>
      <point x="607" y="-94"/>
      <point x="530" y="-106"/>
      <point x="469" y="-106" type="curve" smooth="yes"/>
      <point x="303" y="-106"/>
      <point x="136" y="-16"/>
      <point x="136" y="228" type="curve" smooth="yes"/>
      <point x="136" y="442"/>
      <point x="263" y="558"/>
      <point x="461" y="558" type="curve" smooth="yes"/>
      <point x="626" y="558"/>
      <point x="755" y="477"/>
      <point x="755" y="228" type="curve" smooth="yes"/>
      <point x="755" y="155"/>
      <point x="744" y="76"/>
      <point x="689" y="76" type="curve" smooth="yes"/>
      <point x="670" y="76"/>
      <point x="649" y="85"/>
      <point x="649" y="111" type="curve" smooth="yes"/>
      <point x="649" y="307" type="line" smooth="yes"/>
      <point x="649" y="399"/>
      <point x="580" y="460"/>
      <point x="451" y="460" type="curve" smooth="yes"/>
      <point x="401" y="460"/>
      <point x="348" y="451"/>
    </contour>
    <contour>
      <point x="520" y="190" type="curve"/>
      <point x="520" y="187" type="line" smooth="yes"/>
      <point x="516" y="114"/>
      <point x="467" y="82"/>
      <point x="422" y="82" type="curve" smooth="yes"/>
      <point x="383" y="82"/>
      <point x="369" y="105"/>
      <point x="369" y="134" type="curve" smooth="yes"/>
      <point x="369" y="183"/>
      <point x="409" y="196"/>
      <point x="455" y="196" type="curve" smooth="yes"/>
      <point x="476" y="196"/>
      <point x="499" y="193"/>
    </contour>
  </outline>
</glyph>
<glyph name="C" format="1">
  <advance width="644"/>
  <unicode hex="0043"/>
  <outline>
    <contour>
      <point x="594" y="69" type="curve"/>
      <point x="607" y="222" type="line"/>
      <point x="498" y="232" type="line"/>
      <point x="484" y="135" type="line"/>
      <point x="459" y="120"/>
      <point x="409" y="108"/>
      <point x="360" y="108" type="curve" smooth="yes"/>
      <point x="248" y="108"/>
      <point x="168" y="172"/>
      <point x="168" y="323" type="curve" smooth="yes"/>
      <point x="168" y="465"/>
      <point x="239" y="542"/>
      <point x="351" y="542" type="curve" smooth="yes"/>
      <point x="395" y="542"/>
      <point x="450" y="530"/>
      <point x="484" y="507" type="curve"/>
      <point x="498" y="421" type="line"/>
      <point x="607" y="431" type="line"/>
      <point x="591" y="582" type="line"/>
      <point x="549" y="621"/>
      <point x="468" y="660"/>
      <point x="357" y="660" type="curve" smooth="yes"/>
      <point x="110" y="660"/>
      <point x="24" y="465"/>
      <point x="24" y="314" type="curve" smooth="yes"/>
      <point x="24" y="121"/>
      <point x="165" y="-10"/>
      <point x="351" y="-10" type="curve" smooth="yes"/>
      <point x="444" y="-10"/>
      <point x="551" y="23"/>
    </contour>
  </outline>
</glyph>
<glyph name="H" format="1">
  <advance width="761"/>
  <unicode hex="0048"/>
  <outline>
    <contour>
      <point x="722" y="0" type="line"/>
      <point x="722" y="114" type="line"/>
      <point x="652" y="114" type="line"/>
      <point x="652" y="536" type="line"/>
      <point x="722" y="536" type="line"/>
      <point x="722" y="650" type="line"/>
      <point x="448" y="650" type="line"/>
      <point x="448" y="536" type="line"/>
      <point x="518" y="536" type="line"/>
      <point x="518" y="386" type="line"/>
      <point x="243" y="386" type="line"/>
      <point x="243" y="536" type="line"/>
      <point x="313" y="536" type="line"/>
      <point x="313" y="650" type="line"/>
      <point x="39" y="650" type="line"/>
      <point x="39" y="536" type="line"/>
      <point x="109" y="536" type="line"/>
      <point x="109" y="114" type="line"/>
      <point x="39" y="114" type="line"/>
      <point x="39" y="0" type="line"/>
      <point x="313" y="0" type="line"/>
      <point x="313" y="114" type="line"/>
      <point x="243" y="114" type="line"/>
      <point x="243" y="273" type="line"/>
      <point x="518" y="273" type="line"/>
      <point x="518" y="114" type="line"/>
      <point x="448" y="114" type="line"/>
      <point x="448" y="0" type="line"/>
    </contour>
  </outline>
</glyph>
<glyph name="K" format="1">
  <advance width="674"/>
  <unicode hex="004B"/>
  <outline>
    <contour>
      <point x="665" y="0" type="line"/>
      <point x="665" y="114" type="line"/>
      <point x="598" y="114" type="line"/>
      <point x="426" y="341" type="line"/>
      <point x="581" y="536" type="line"/>
      <point x="654" y="536" type="line"/>
      <point x="654" y="650" type="line"/>
      <point x="384" y="650" type="line"/>
      <point x="384" y="536" type="line"/>
      <point x="440" y="536" type="line"/>
      <point x="325" y="383" type="line"/>
      <point x="243" y="383" type="line"/>
      <point x="243" y="536" type="line"/>
      <point x="301" y="536" type="line"/>
      <point x="301" y="650" type="line"/>
      <point x="39" y="650" type="line"/>
      <point x="39" y="536" type="line"/>
      <point x="109" y="536" type="line"/>
      <point x="109" y="114" type="line"/>
      <point x="39" y="114" type="line"/>
      <point x="39" y="0" type="line"/>
      <point x="298" y="0" type="line"/>
      <point x="298" y="114" type="line"/>
      <point x="243" y="114" type="line"/>
      <point x="243" y="274" type="line"/>
      <point x="323" y="274" type="line"/>
      <point x="442" y="114" type="line"/>
      <point x="382" y="114" type="line"/>
      <point x="382" y="0" type="line"/>
    </contour>
  </outline>
</glyph>
<glyph name="P" format="1">
  <advance width="598"/>
  <unicode hex="0050"/>
  <outline>
    <contour>
      <point x="584" y="438" type="curve" smooth="yes"/>
      <point x="584" y="568"/>
      <point x="498" y="650"/>
      <point x="337" y="650" type="curve" smooth="yes"/>
      <point x="39" y="650" type="line"/>
      <point x="39" y="536" type="line"/>
      <point x="109" y="536" type="line"/>
      <point x="109" y="114" type="line"/>
      <point x="39" y="114" type="line"/>
      <point x="39" y="0" type="line"/>
      <point x="343" y="0" type="line"/>
      <point x="343" y="114" type="line"/>
      <point x="243" y="114" type="line"/>
      <point x="243" y="218" type="line"/>
      <point x="343" y="218" type="line" smooth="yes"/>
      <point x="471" y="218"/>
      <point x="584" y="290"/>
    </contour>
    <contour>
      <point x="440" y="436" type="curve" smooth="yes"/>
      <point x="440" y="373"/>
      <point x="410" y="331"/>
      <point x="318" y="331" type="curve" smooth="yes"/>
      <point x="243" y="331" type="line"/>
      <point x="243" y="536" type="line"/>
      <point x="320" y="536" type="line" smooth="yes"/>
      <point x="409" y="536"/>
      <point x="440" y="500"/>
    </contour>
  </outline>
</glyph>
<glyph name="Q" format="1">
  <advance width="718"/>
  <unicode hex="0051"/>
  <outline>
    <contour>
      <point x="688" y="326" type="curve" smooth="yes"/>
      <point x="688" y="509"/>
      <point x="565" y="660"/>
      <point x="357" y="660" type="curve" smooth="yes"/>
      <point x="153" y="660"/>
      <point x="24" y="514"/>
      <point x="24" y="324" type="curve" smooth="yes"/>
      <point x="24" y="143"/>
      <point x="141" y="-10"/>
      <point x="353" y="-10" type="curve" smooth="yes"/>
      <point x="416" y="-10"/>
      <point x="472" y="4"/>
      <point x="518" y="28" type="curve"/>
      <point x="593" y="-49" type="line"/>
      <point x="677" y="34" type="line"/>
      <point x="611" y="102" type="line"/>
      <point x="661" y="162"/>
      <point x="688" y="240"/>
    </contour>
    <contour>
      <point x="543" y="322" type="curve" smooth="yes"/>
      <point x="543" y="274"/>
      <point x="535" y="232"/>
      <point x="518" y="198" type="curve"/>
      <point x="416" y="303" type="line"/>
      <point x="332" y="220" type="line"/>
      <point x="430" y="119" type="line"/>
      <point x="410" y="112"/>
      <point x="386" y="108"/>
      <point x="360" y="108" type="curve" smooth="yes"/>
      <point x="223" y="108"/>
      <point x="169" y="209"/>
      <point x="169" y="327" type="curve" smooth="yes"/>
      <point x="169" y="450"/>
      <point x="227" y="542"/>
      <point x="356" y="542" type="curve" smooth="yes"/>
      <point x="477" y="542"/>
      <point x="543" y="460"/>
    </contour>
  </outline>
</glyph>
<glyph name="U" format="1">
  <advance width="719"/>
  <unicode hex="0055"/>
  <outline>
    <contour>
      <point x="692" y="536" type="line"/>
      <point x="692" y="650" type="line"/>
      <point x="433" y="650" type="line"/>
      <point x="433" y="536" type="line"/>
      <point x="509" y="536" type="line"/>
      <point x="509" y="269" type="line" smooth="yes"/>
      <point x="509" y="172"/>
      <point x="465" y="108"/>
      <point x="363" y="108" type="curve" smooth="yes"/>
      <point x="259" y="108"/>
      <point x="220" y="173"/>
      <point x="220" y="262" type="curve" smooth="yes"/>
      <point x="220" y="536" type="line"/>
      <point x="296" y="536" type="line"/>
      <point x="296" y="650" type="line"/>
      <point x="28" y="650" type="line"/>
      <point x="28" y="536" type="line"/>
      <point x="86" y="536" type="line"/>
      <point x="86" y="258" type="line" smooth="yes"/>
      <point x="86" y="118"/>
      <point x="158" y="-10"/>
      <point x="356" y="-10" type="curve" smooth="yes"/>
      <point x="564" y="-10"/>
      <point x="634" y="131"/>
      <point x="634" y="269" type="curve" smooth="yes"/>
      <point x="634" y="536" type="line"/>
    </contour>
  </outline>
</glyph>
<glyph name="Y" format="1">
  <advance width="646"/>
  <unicode hex="0059"/>
  <outline>
    <contour>
      <point x="636" y="536" type="line"/>
      <point x="636" y="650" type="line"/>
      <point x="380" y="650" type="line"/>
      <point x="380" y="536" type="line"/>
      <point x="442" y="536" type="line"/>
      <point x="334" y="372" type="line"/>
      <point x="328" y="372" type="line"/>
      <point x="219" y="536" type="line"/>
      <point x="273" y="536" type="line"/>
      <point x="273" y="650" type="line"/>
      <point x="4" y="650" type="line"/>
      <point x="4" y="536" type="line"/>
      <point x="62" y="536" type="line"/>
      <point x="257" y="255" type="line"/>
      <point x="257" y="114" type="line"/>
      <point x="157" y="114" type="line"/>
      <point x="157" y="0" type="line"/>
      <point x="497" y="0" type="line"/>
      <point x="497" y="114" type="line"/>
      <point x="391" y="114" type="line"/>
      <point x="391" y="254" type="line"/>
      <point x="580" y="536" type="line"/>
    </contour>
  </outline>
</glyph>
<glyph name="bracketleft" format="1">
  <advance width="299"/>
  <unicode hex="005B"/>
  <outline>
    <contour>
      <point x="67" y="-248" type="line"/>
      <point x="290" y="-248" type="line"/>
      <point x="290" y="-161" type="line"/>
      <point x="176" y="-161" type="line"/>
      <point x="176" y="698" type="line"/>
      <point x="290" y="698" type="line"/>
      <point x="290" y="785" type="line"/>
      <point x="67" y="785" type="line"/>
    </contour>
  </outline>
</glyph>
<glyph name="asciicircum" format="1">
  <advance width="469"/>
  <unicode hex="005E"/>
  <outline>
    <contour>
      <point x="189" y="650" type="line"/>
      <point x="28" y="367" type="line"/>
      <point x="147" y="367" type="line"/>
      <point x="230" y="525" type="line"/>
      <point x="323" y="367" type="line"/>
      <point x="441" y="367" type="line"/>
      <point x="270" y="650" type="line"/>
    </contour>
  </outline>
</glyph>
<glyph name="underscore" format="1">
  <advance width="502"/>
  <unicode hex="005F"/>
  <outline>
    <contour>
      <point x="35" y="-68" type="line"/>
      <point x="467" y="-68" type="line"/>
      <point x="467" y="-153" type="line"/>
      <point x="35" y="-153" type="line"/>
    </contour>
  </outline>
</glyph>
<glyph name="l" format="1">
  <advance width="285"/>
  <unicode hex="006C"/>
  <outline>
    <contour>
      <point x="267" y="0" type="line"/>
      <point x="267" y="97" type="line"/>
      <point x="207" y="97" type="line"/>
      <point x="207" y="688" type="line"/>
      <point x="13" y="688" type="line"/>
      <point x="13" y="590" type="line"/>
      <point x="78" y="590" type="line"/>
      <point x="78" y="97" type="line"/>
      <point x="18" y="97" type="line"/>
      <point x="18" y="0" type="line"/>
    </contour>
    <contour>
      <point x="299" y="566" type="move" name="top"/>
    </contour>
  </outline>
</glyph>
<glyph name="o" format="1">
  <advance width="523"/>
  <unicode hex="006F"/>
  <outline>
    <contour>
      <point x="503" y="225" type="curve" smooth="yes"/>
      <point x="503" y="352"/>
      <point x="425" y="461"/>
      <point x="262" y="461" type="curve" smooth="yes"/>
      <point x="100" y="461"/>
      <point x="20" y="352"/>
      <point x="20" y="220" type="curve" smooth="yes"/>
      <point x="20" y="75"/>
      <point x="116" y="-10"/>
      <point x="255" y="-10" type="curve" smooth="yes"/>
      <point x="399" y="-10"/>
      <point x="503" y="82"/>
    </contour>
    <contour>
      <point x="370" y="229" type="curve" smooth="yes"/>
      <point x="370" y="143"/>
      <point x="326" y="89"/>
      <point x="259" y="89" type="curve" smooth="yes"/>
      <point x="189" y="89"/>
      <point x="153" y="150"/>
      <point x="153" y="227" type="curve" smooth="yes"/>
      <point x="153" y="312"/>
      <point x="194" y="362"/>
      <point x="260" y="362" type="curve" smooth="yes"/>
      <point x="321" y="362"/>
      <point x="370" y="321"/>
    </contour>
  </outline>
</glyph>
<glyph name="p" format="1">
  <advance width="571"/>
  <unicode hex="0070"/>
  <outline>
    <contour>
      <point x="549" y="236" type="curve" smooth="yes"/>
      <point x="549" y="377"/>
      <point x="470" y="460"/>
      <point x="356" y="460" type="curve" smooth="yes"/>
      <point x="274" y="460"/>
      <point x="228" y="417"/>
      <point x="204" y="365" type="curve"/>
      <point x="204" y="451" type="line"/>
      <point x="10" y="451" type="line"/>
      <point x="10" y="354" type="line"/>
      <point x="75" y="354" type="line"/>
      <point x="75" y="-113" type="line"/>
      <point x="15" y="-113" type="line"/>
      <point x="15" y="-213" type="line"/>
      <point x="284" y="-213" type="line"/>
      <point x="284" y="-113" type="line"/>
      <point x="204" y="-113" type="line"/>
      <point x="204" y="57" type="line"/>
      <point x="231" y="15"/>
      <point x="277" y="-10"/>
      <point x="342" y="-10" type="curve" smooth="yes"/>
      <point x="478" y="-10"/>
      <point x="549" y="103"/>
    </contour>
    <contour>
      <point x="415" y="223" type="curve" smooth="yes"/>
      <point x="415" y="133"/>
      <point x="371" y="92"/>
      <point x="310" y="92" type="curve" smooth="yes"/>
      <point x="246" y="92"/>
      <point x="204" y="137"/>
      <point x="204" y="211" type="curve" smooth="yes"/>
      <point x="205" y="227" type="line" smooth="yes"/>
      <point x="208" y="303"/>
      <point x="243" y="358"/>
      <point x="310" y="358" type="curve" smooth="yes"/>
      <point x="372" y="358"/>
      <point x="415" y="311"/>
    </contour>
    <contour>
      <point x="336" y="566" type="move" name="top"/>
    </contour>
  </outline>
</glyph>
<glyph name="x" format="1">
  <advance width="537"/>
  <unicode hex="0078"/>
  <outline>
    <contour>
      <point x="523" y="0" type="line"/>
      <point x="523" y="97" type="line"/>
      <point x="479" y="97" type="line"/>
      <point x="342" y="236" type="line"/>
      <point x="465" y="354" type="line"/>
      <point x="510" y="354" type="line"/>
      <point x="510" y="451" type="line"/>
      <point x="314" y="451" type="line"/>
      <point x="314" y="354" type="line"/>
      <point x="344" y="354" type="line"/>
      <point x="279" y="287" type="line"/>
      <point x="218" y="354" type="line"/>
      <point x="249" y="354" type="line"/>
      <point x="249" y="451" type="line"/>
      <point x="21" y="451" type="line"/>
      <point x="21" y="354" type="line"/>
      <point x="66" y="354" type="line"/>
      <point x="202" y="222" type="line"/>
      <point x="78" y="97" type="line"/>
      <point x="16" y="97" type="line"/>
      <point x="16" y="0" type="line"/>
      <point x="227" y="0" type="line"/>
      <point x="227" y="97" type="line"/>
      <point x="198" y="97" type="line"/>
      <point x="263" y="168" type="line"/>
      <point x="329" y="97" type="line"/>
      <point x="296" y="97" type="line"/>
      <point x="296" y="0" type="line"/>
    </contour>
  </outline>
</glyph>
<glyph name="z" format="1">
  <advance width="477"/>
  <unicode hex="007A"/>
  <outline>
    <contour>
      <point x="430" y="0" type="line"/>
      <point x="458" y="158" type="line"/>
      <point x="356" y="168" type="line"/>
      <point x="335" y="97" type="line"/>
      <point x="190" y="97" type="line"/>
      <point x="439" y="383" type="line"/>
      <point x="429" y="451" type="line"/>
      <point x="33" y="451" type="line"/>
      <point x="17" y="293" type="line"/>
      <point x="110" y="285" type="line"/>
      <point x="130" y="354" type="line"/>
      <point x="265" y="354" type="line"/>
      <point x="23" y="68" type="line"/>
      <point x="36" y="0" type="line"/>
    </contour>
    <contour>
      <point x="186" y="505" type="move" name="top"/>
    </contour>
  </outline>
</glyph>
<glyph name="braceleft" format="1">
  <advance width="299"/>
  <unicode hex="007B"/>
  <outline>
    <contour>
      <point x="119" y="267" type="curve"/>
      <point x="209" y="277"/>
      <point x="240" y="322"/>
      <point x="240" y="360" type="curve" smooth="yes"/>
      <point x="240" y="424"/>
      <point x="154" y="546"/>
      <point x="154" y="634" type="curve" smooth="yes"/>
      <point x="154" y="678"/>
      <point x="175" y="698"/>
      <point x="217" y="698" type="curve" smooth="yes"/>
      <point x="281" y="698" type="line"/>
      <point x="281" y="785" type="line"/>
      <point x="217" y="785" type="line" smooth="yes"/>
      <point x="92" y="785"/>
      <point x="47" y="718"/>
      <point x="47" y="639" type="curve" smooth="yes"/>
      <point x="47" y="531"/>
      <point x="132" y="406"/>
      <point x="132" y="352" type="curve" smooth="yes"/>
      <point x="132" y="304"/>
      <point x="64" y="296"/>
      <point x="34" y="296" type="curve" smooth="yes"/>
      <point x="15" y="296" type="line"/>
      <point x="15" y="239" type="line"/>
      <point x="34" y="239" type="line" smooth="yes"/>
      <point x="65" y="239"/>
      <point x="132" y="231"/>
      <point x="132" y="182" type="curve" smooth="yes"/>
      <point x="132" y="127"/>
      <point x="47" y="5"/>
      <point x="47" y="-101" type="curve" smooth="yes"/>
      <point x="47" y="-173"/>
      <point x="87" y="-248"/>
      <point x="217" y="-248" type="curve" smooth="yes"/>
      <point x="281" y="-248" type="line"/>
      <point x="281" y="-161" type="line"/>
      <point x="217" y="-161" type="line" smooth="yes"/>
      <point x="175" y="-161"/>
      <point x="154" y="-141"/>
      <point x="154" y="-97" type="curve" smooth="yes"/>
      <point x="154" y="-9"/>
      <point x="240" y="109"/>
      <point x="240" y="173" type="curve" smooth="yes"/>
      <point x="240" y="212"/>
      <point x="209" y="256"/>
    </contour>
  </outline>
</glyph>
<glyph name="braceright" format="1">
  <advance width="299"/>
  <unicode hex="007D"/>
  <outline>
    <contour>
      <point x="180" y="271" type="curve"/>
      <point x="90" y="261"/>
      <point x="59" y="216"/>
      <point x="59" y="178" type="curve" smooth="yes"/>
      <point x="59" y="114"/>
      <point x="145" y="-8"/>
      <point x="145" y="-96" type="curve" smooth="yes"/>
      <point x="145" y="-140"/>
      <point x="124" y="-160"/>
      <point x="82" y="-160" type="curve" smooth="yes"/>
      <point x="18" y="-160" type="line"/>
      <point x="18" y="-247" type="line"/>
      <point x="82" y="-247" type="line" smooth="yes"/>
      <point x="207" y="-247"/>
      <point x="252" y="-180"/>
      <point x="252" y="-101" type="curve" smooth="yes"/>
      <point x="252" y="7"/>
      <point x="167" y="132"/>
      <point x="167" y="186" type="curve" smooth="yes"/>
      <point x="167" y="234"/>
      <point x="235" y="242"/>
      <point x="265" y="242" type="curve" smooth="yes"/>
      <point x="284" y="242" type="line"/>
      <point x="284" y="299" type="line"/>
      <point x="265" y="299" type="line" smooth="yes"/>
      <point x="234" y="299"/>
      <point x="167" y="307"/>
      <point x="167" y="356" type="curve" smooth="yes"/>
      <point x="167" y="411"/>
      <point x="252" y="533"/>
      <point x="252" y="639" type="curve" smooth="yes"/>
      <point x="252" y="711"/>
      <point x="212" y="786"/>
      <point x="82" y="786" type="curve" smooth="yes"/>
      <point x="18" y="786" type="line"/>
      <point x="18" y="699" type="line"/>
      <point x="82" y="699" type="line" smooth="yes"/>
      <point x="124" y="699"/>
      <point x="145" y="679"/>
      <point x="145" y="635" type="curve" smooth="yes"/>
      <point x="145" y="547"/>
      <point x="59" y="429"/>
      <point x="59" y="365" type="curve" smooth="yes"/>
      <point x="59" y="326"/>
      <point x="90" y="282"/>
    </contour>
  </outline>
</glyph>
<glyph name="currency" format="1">
  <advance width="478"/>
  <unicode hex="00A4"/>
  <outline>
    <contour>
      <point x="88" y="264" type="curve" smooth="yes"/>
      <point x="88" y="235"/>
      <point x="96" y="208"/>
      <point x="110" y="185" type="curve"/>
      <point x="27" y="102" type="line"/>
      <point x="75" y="55" type="line"/>
      <point x="157" y="137" type="line"/>
      <point x="181" y="122"/>
      <point x="209" y="113"/>
      <point x="239" y="113" type="curve" smooth="yes"/>
      <point x="269" y="113"/>
      <point x="297" y="122"/>
      <point x="320" y="137" type="curve"/>
      <point x="403" y="55" type="line"/>
      <point x="451" y="102" type="line"/>
      <point x="368" y="185" type="line"/>
      <point x="382" y="208"/>
      <point x="390" y="235"/>
      <point x="390" y="264" type="curve" smooth="yes"/>
      <point x="390" y="290"/>
      <point x="383" y="316"/>
      <point x="371" y="338" type="curve"/>
      <point x="451" y="418" type="line"/>
      <point x="403" y="465" type="line"/>
      <point x="325" y="388" type="line"/>
      <point x="300" y="405"/>
      <point x="271" y="415"/>
      <point x="239" y="415" type="curve" smooth="yes"/>
      <point x="207" y="415"/>
      <point x="177" y="405"/>
      <point x="153" y="388" type="curve"/>
      <point x="75" y="465" type="line"/>
      <point x="27" y="418" type="line"/>
      <point x="107" y="338" type="line"/>
      <point x="94" y="316"/>
      <point x="88" y="290"/>
    </contour>
    <contour>
      <point x="198" y="264" type="curve" smooth="yes"/>
      <point x="198" y="292"/>
      <point x="216" y="315"/>
      <point x="239" y="315" type="curve" smooth="yes"/>
      <point x="262" y="315"/>
      <point x="280" y="292"/>
      <point x="280" y="264" type="curve" smooth="yes"/>
      <point x="280" y="236"/>
      <point x="262" y="213"/>
      <point x="239" y="213" type="curve" smooth="yes"/>
      <point x="216" y="213"/>
      <point x="198" y="236"/>
    </contour>
  </outline>
</glyph>
<glyph name="dieresis" format="1">
  <advance width="412"/>
  <unicode hex="00A8"/>
  <outline>
    <contour>
      <point x="57" y="531" type="line"/>
      <point x="186" y="531" type="line"/>
      <point x="186" y="665" type="line"/>
      <point x="57" y="665" type="line"/>
    </contour>
    <contour>
      <point x="242" y="531" type="line"/>
      <point x="371" y="531" type="line"/>
      <point x="371" y="665" type="line"/>
      <point x="242" y="665" type="line"/>
    </contour>
  </outline>
</glyph>
<glyph name="degree" format="1">
  <advance width="363"/>
  <unicode hex="00B0"/>
  <outline>
    <contour>
      <point x="181" y="342" type="curve" smooth="yes"/>
      <point x="283" y="342"/>
      <point x="341" y="412"/>
      <point x="341" y="501" type="curve" smooth="yes"/>
      <point x="341" y="589"/>
      <point x="289" y="660"/>
      <point x="183" y="660" type="curve" smooth="yes"/>
      <point x="84" y="660"/>
      <point x="22" y="590"/>
      <point x="22" y="500" type="curve" smooth="yes"/>
      <point x="22" y="410"/>
      <point x="78" y="342"/>
    </contour>
    <contour>
      <point x="181" y="432" type="curve"/>
      <point x="152" y="432"/>
      <point x="127" y="449"/>
      <point x="127" y="500" type="curve" smooth="yes"/>
      <point x="127" y="553"/>
      <point x="153" y="570"/>
      <point x="183" y="570" type="curve" smooth="yes"/>
      <point x="212" y="570"/>
      <point x="236" y="553"/>
      <point x="236" y="501" type="curve" smooth="yes"/>
      <point x="236" y="449"/>
      <point x="211" y="432"/>
    </contour>
  </outline>
</glyph>
<glyph name="paragraph" format="1">
  <advance width="657"/>
  <unicode hex="00B6"/>
  <outline>
    <contour>
      <point x="620" y="650" type="line"/>
      <point x="620" y="541" type="line"/>
      <point x="556" y="541" type="line"/>
      <point x="556" y="0" type="line"/>
      <point x="436" y="0" type="line"/>
      <point x="436" y="541" type="line"/>
      <point x="396" y="541" type="line"/>
      <point x="396" y="0" type="line"/>
      <point x="276" y="0" type="line"/>
      <point x="276" y="310" type="line"/>
      <point x="230" y="310" type="line" smooth="yes"/>
      <point x="116" y="310"/>
      <point x="25" y="357"/>
      <point x="25" y="484" type="curve" smooth="yes"/>
      <point x="25" y="575"/>
      <point x="100" y="650"/>
      <point x="236" y="650" type="curve" smooth="yes"/>
    </contour>
  </outline>
</glyph>
<glyph name="onesuperior" format="1">
  <advance width="282"/>
  <unicode hex="00B9"/>
  <outline>
    <contour>
      <point x="29" y="490" type="line"/>
      <point x="102" y="490" type="line"/>
      <point x="102" y="704" type="line"/>
      <point x="29" y="704" type="line"/>
      <point x="29" y="779" type="line"/>
      <point x="203" y="779" type="line"/>
      <point x="203" y="490" type="line"/>
      <point x="268" y="490" type="line"/>
      <point x="268" y="415" type="line"/>
      <point x="29" y="415" type="line"/>
    </contour>
  </outline>
</glyph>
<glyph name="threequarters" format="1">
  <advance width="776"/>
  <unicode hex="00BE"/>
  <outline>
    <contour>
      <point x="592" y="0" type="line"/>
      <point x="693" y="0" type="line"/>
      <point x="693" y="65" type="line"/>
      <point x="744" y="65" type="line"/>
      <point x="751" y="143" type="line"/>
      <point x="693" y="143" type="line"/>
      <point x="693" y="364" type="line"/>
      <point x="523" y="364" type="line"/>
      <point x="417" y="138" type="line"/>
      <point x="427" y="65" type="line"/>
      <point x="592" y="65" type="line"/>
    </contour>
    <contour>
      <point x="116" y="534" type="line"/>
      <point x="125" y="575" type="line"/>
      <point x="140" y="583"/>
      <point x="153" y="585"/>
      <point x="167" y="585" type="curve" smooth="yes"/>
      <point x="194" y="585"/>
      <point x="207" y="574"/>
      <point x="207" y="551" type="curve" smooth="yes"/>
      <point x="207" y="513"/>
      <point x="174" y="510"/>
      <point x="140" y="508" type="curve"/>
      <point x="140" y="452" type="line"/>
      <point x="183" y="450"/>
      <point x="219" y="441"/>
      <point x="219" y="407" type="curve" smooth="yes"/>
      <point x="219" y="383"/>
      <point x="201" y="363"/>
      <point x="165" y="363" type="curve" smooth="yes"/>
      <point x="132" y="363"/>
      <point x="116" y="379"/>
      <point x="106" y="408" type="curve"/>
      <point x="33" y="383" type="line"/>
      <point x="47" y="311"/>
      <point x="100" y="284"/>
      <point x="170" y="284" type="curve" smooth="yes"/>
      <point x="263" y="284"/>
      <point x="328" y="324"/>
      <point x="328" y="393" type="curve" smooth="yes"/>
      <point x="328" y="434"/>
      <point x="307" y="471"/>
      <point x="255" y="484" type="curve"/>
      <point x="255" y="486" type="line"/>
      <point x="296" y="505"/>
      <point x="316" y="533"/>
      <point x="316" y="567" type="curve" smooth="yes"/>
      <point x="316" y="619"/>
      <point x="270" y="660"/>
      <point x="184" y="660" type="curve" smooth="yes"/>
      <point x="143" y="660"/>
      <point x="88" y="651"/>
      <point x="52" y="635" type="curve"/>
      <point x="39" y="540" type="line"/>
    </contour>
    <contour>
      <point x="619" y="650" type="line"/>
      <point x="428" y="325" type="line"/>
      <point x="247" y="0" type="line"/>
      <point x="159" y="0" type="line"/>
      <point x="357" y="337" type="line"/>
      <point x="531" y="650" type="line"/>
    </contour>
    <contour>
      <point x="576" y="289" type="line"/>
      <point x="592" y="289" type="line"/>
      <point x="592" y="143" type="line"/>
      <point x="505" y="143" type="line"/>
    </contour>
  </outline>
</glyph>
<glyph name="questiondown" format="1">
  <advance width="474"/>
  <unicode hex="00BF"/>
  <outline>
    <contour>
      <point x="342" y="-2" type="line"/>
      <point x="327" y="-73" type="line"/>
      <point x="306" y="-84"/>
      <point x="269" y="-88"/>
      <point x="245" y="-88" type="curve" smooth="yes"/>
      <point x="199" y="-88"/>
      <point x="169" y="-73"/>
      <point x="169" y="-37" type="curve" smooth="yes"/>
      <point x="169" y="53"/>
      <point x="355" y="29"/>
      <point x="355" y="158" type="curve" smooth="yes"/>
      <point x="355" y="232"/>
      <point x="293" y="264"/>
      <point x="174" y="249" type="curve"/>
      <point x="174" y="170" type="line"/>
      <point x="201" y="170"/>
      <point x="215" y="159"/>
      <point x="215" y="142" type="curve" smooth="yes"/>
      <point x="215" y="80"/>
      <point x="22" y="78"/>
      <point x="22" y="-59" type="curve" smooth="yes"/>
      <point x="22" y="-150"/>
      <point x="108" y="-205"/>
      <point x="227" y="-205" type="curve"/>
      <point x="275" y="-205"/>
      <point x="347" y="-198"/>
      <point x="424" y="-166" type="curve"/>
      <point x="445" y="-13" type="line"/>
    </contour>
    <contour>
      <point x="327" y="454" type="line"/>
      <point x="176" y="454" type="line"/>
      <point x="176" y="309" type="line"/>
      <point x="327" y="309" type="line"/>
    </contour>
  </outline>
</glyph>
<glyph name="Agrave" format="1">
  <advance width="687"/>
  <unicode hex="00C0"/>
  <outline>
    <contour>
      <point x="687" y="0" type="line"/>
      <point x="687" y="114" type="line"/>
      <point x="625" y="114" type="line"/>
      <point x="391" y="650" type="line"/>
      <point x="168" y="650" type="line"/>
      <point x="168" y="536" type="line"/>
      <point x="258" y="536" type="line"/>
      <point x="72" y="114" type="line"/>
      <point x="13" y="114" type="line"/>
      <point x="13" y="0" type="line"/>
      <point x="269" y="0" type="line"/>
      <point x="269" y="114" type="line"/>
      <point x="208" y="114" type="line"/>
      <point x="235" y="180" type="line"/>
      <point x="456" y="180" type="line"/>
      <point x="480" y="114" type="line"/>
      <point x="428" y="114" type="line"/>
      <point x="428" y="0" type="line"/>
    </contour>
    <contour>
      <point x="420" y="276" type="line"/>
      <point x="273" y="276" type="line"/>
      <point x="346" y="459" type="line"/>
      <point x="352" y="459" type="line"/>
    </contour>
    <contour>
      <point x="413" y="745" type="line"/>
      <point x="211" y="833" type="line"/>
      <point x="182" y="716" type="line"/>
      <point x="397" y="688" type="line"/>
    </contour>
  </outline>
</glyph>
<glyph name="Acircumflex" format="1">
  <advance width="687"/>
  <unicode hex="00C2"/>
  <outline>
    <contour>
      <point x="687" y="0" type="line"/>
      <point x="687" y="114" type="line"/>
      <point x="625" y="114" type="line"/>
      <point x="391" y="650" type="line"/>
      <point x="168" y="650" type="line"/>
      <point x="168" y="536" type="line"/>
      <point x="258" y="536" type="line"/>
      <point x="72" y="114" type="line"/>
      <point x="13" y="114" type="line"/>
      <point x="13" y="0" type="line"/>
      <point x="269" y="0" type="line"/>
      <point x="269" y="114" type="line"/>
      <point x="208" y="114" type="line"/>
      <point x="235" y="180" type="line"/>
      <point x="456" y="180" type="line"/>
      <point x="480" y="114" type="line"/>
      <point x="428" y="114" type="line"/>
      <point x="428" y="0" type="line"/>
    </contour>
    <contour>
      <point x="420" y="276" type="line"/>
      <point x="273" y="276" type="line"/>
      <point x="346" y="459" type="line"/>
      <point x="352" y="459" type="line"/>
    </contour>
    <contour>
      <point x="495" y="737" type="line"/>
      <point x="359" y="844" type="line"/>
      <point x="314" y="844" type="line"/>
      <point x="179" y="738" type="line"/>
      <point x="208" y="685" type="line"/>
      <point x="332" y="745" type="line"/>
      <point x="467" y="685" type="line"/>
    </contour>
  </outline>
</glyph>
<glyph name="Atilde" format="1">
  <advance width="687"/>
  <unicode hex="00C3"/>
  <outline>
    <contour>
      <point x="687" y="0" type="line"/>
      <point x="687" y="114" type="line"/>
      <point x="625" y="114" type="line"/>
      <point x="391" y="650" type="line"/>
      <point x="168" y="650" type="line"/>
      <point x="168" y="536" type="line"/>
      <point x="258" y="536" type="line"/>
      <point x="72" y="114" type="line"/>
      <point x="13" y="114" type="line"/>
      <point x="13" y="0" type="line"/>
      <point x="269" y="0" type="line"/>
      <point x="269" y="114" type="line"/>
      <point x="208" y="114" type="line"/>
      <point x="235" y="180" type="line"/>
      <point x="456" y="180" type="line"/>
      <point x="480" y="114" type="line"/>
      <point x="428" y="114" type="line"/>
      <point x="428" y="0" type="line"/>
    </contour>
    <contour>
      <point x="420" y="276" type="line"/>
      <point x="273" y="276" type="line"/>
      <point x="346" y="459" type="line"/>
      <point x="352" y="459" type="line"/>
    </contour>
    <contour>
      <point x="477" y="820" type="curve"/>
      <point x="423" y="831" type="line"/>
      <point x="414" y="802"/>
      <point x="394" y="793"/>
      <point x="375" y="793" type="curve" smooth="yes"/>
      <point x="341" y="793"/>
      <point x="304" y="824"/>
      <point x="260" y="824" type="curve" smooth="yes"/>
      <point x="192" y="824"/>
      <point x="171" y="751"/>
      <point x="174" y="714" type="curve"/>
      <point x="224" y="698" type="line"/>
      <point x="231" y="724"/>
      <point x="244" y="731"/>
      <point x="266" y="731" type="curve" smooth="yes"/>
      <point x="312" y="731"/>
      <point x="343" y="700"/>
      <point x="392" y="700" type="curve" smooth="yes"/>
      <point x="461" y="700"/>
      <point x="477" y="762"/>
    </contour>
  </outline>
</glyph>
<glyph name="Adieresis" format="1">
  <advance width="687"/>
  <unicode hex="00C4"/>
  <outline>
    <contour>
      <point x="687" y="0" type="line"/>
      <point x="687" y="114" type="line"/>
      <point x="625" y="114" type="line"/>
      <point x="391" y="650" type="line"/>
      <point x="168" y="650" type="line"/>
      <point x="168" y="536" type="line"/>
      <point x="258" y="536" type="line"/>
      <point x="72" y="114" type="line"/>
      <point x="13" y="114" type="line"/>
      <point x="13" y="0" type="line"/>
      <point x="269" y="0" type="line"/>
      <point x="269" y="114" type="line"/>
      <point x="208" y="114" type="line"/>
      <point x="235" y="180" type="line"/>
      <point x="456" y="180" type="line"/>
      <point x="480" y="114" type="line"/>
      <point x="428" y="114" type="line"/>
      <point x="428" y="0" type="line"/>
    </contour>
    <contour>
      <point x="420" y="276" type="line"/>
      <point x="273" y="276" type="line"/>
      <point x="346" y="459" type="line"/>
      <point x="352" y="459" type="line"/>
    </contour>
    <contour>
      <point x="184" y="705" type="line"/>
      <point x="313" y="705" type="line"/>
      <point x="313" y="839" type="line"/>
      <point x="184" y="839" type="line"/>
    </contour>
    <contour>
      <point x="369" y="705" type="line"/>
      <point x="498" y="705" type="line"/>
      <point x="498" y="839" type="line"/>
      <point x="369" y="839" type="line"/>
    </contour>
  </outline>
</glyph>
<glyph name="Aring" format="1">
  <advance width="687"/>
  <unicode hex="00C5"/>
  <outline>
    <contour>
      <point x="687" y="0" type="line"/>
      <point x="687" y="114" type="line"/>
      <point x="625" y="114" type="line"/>
      <point x="391" y="650" type="line"/>
      <point x="168" y="650" type="line"/>
      <point x="168" y="536" type="line"/>
      <point x="258" y="536" type="line"/>
      <point x="72" y="114" type="line"/>
      <point x="13" y="114" type="line"/>
      <point x="13" y="0" type="line"/>
      <point x="269" y="0" type="line"/>
      <point x="269" y="114" type="line"/>
      <point x="208" y="114" type="line"/>
      <point x="235" y="180" type="line"/>
      <point x="456" y="180" type="line"/>
      <point x="480" y="114" type="line"/>
      <point x="428" y="114" type="line"/>
      <point x="428" y="0" type="line"/>
    </contour>
    <contour>
      <point x="420" y="276" type="line"/>
      <point x="273" y="276" type="line"/>
      <point x="346" y="459" type="line"/>
      <point x="352" y="459" type="line"/>
    </contour>
    <contour>
      <point x="447" y="783" type="curve" smooth="yes"/>
      <point x="447" y="835"/>
      <point x="417" y="873"/>
      <point x="344" y="873" type="curve" smooth="yes"/>
      <point x="272" y="873"/>
      <point x="238" y="836"/>
      <point x="238" y="780" type="curve" smooth="yes"/>
      <point x="238" y="725"/>
      <point x="271" y="689"/>
      <point x="341" y="689" type="curve" smooth="yes"/>
      <point x="414" y="689"/>
      <point x="447" y="728"/>
    </contour>
    <contour>
      <point x="367" y="785" type="curve" smooth="yes"/>
      <point x="367" y="762"/>
      <point x="364" y="749"/>
      <point x="342" y="749" type="curve" smooth="yes"/>
      <point x="321" y="749"/>
      <point x="318" y="760"/>
      <point x="318" y="780" type="curve" smooth="yes"/>
      <point x="318" y="800"/>
      <point x="321" y="813"/>
      <point x="343" y="813" type="curve" smooth="yes"/>
      <point x="366" y="813"/>
      <point x="367" y="798"/>
    </contour>
  </outline>
</glyph>
<glyph name="Iacute" format="1">
  <advance width="352"/>
  <unicode hex="00CD"/>
  <outline>
    <contour>
      <point x="313" y="0" type="line"/>
      <point x="313" y="114" type="line"/>
      <point x="243" y="114" type="line"/>
      <point x="243" y="536" type="line"/>
      <point x="313" y="536" type="line"/>
      <point x="313" y="650" type="line"/>
      <point x="39" y="650" type="line"/>
      <point x="39" y="536" type="line"/>
      <point x="109" y="536" type="line"/>
      <point x="109" y="114" type="line"/>
      <point x="39" y="114" type="line"/>
      <point x="39" y="0" type="line"/>
    </contour>
    <contour>
      <point x="305" y="716" type="line"/>
      <point x="276" y="833" type="line"/>
      <point x="74" y="745" type="line"/>
      <point x="90" y="688" type="line"/>
    </contour>
  </outline>
</glyph>
<glyph name="Icircumflex" format="1">
  <advance width="352"/>
  <unicode hex="00CE"/>
  <outline>
    <contour>
      <point x="313" y="0" type="line"/>
      <point x="313" y="114" type="line"/>
      <point x="243" y="114" type="line"/>
      <point x="243" y="536" type="line"/>
      <point x="313" y="536" type="line"/>
      <point x="313" y="650" type="line"/>
      <point x="39" y="650" type="line"/>
      <point x="39" y="536" type="line"/>
      <point x="109" y="536" type="line"/>
      <point x="109" y="114" type="line"/>
      <point x="39" y="114" type="line"/>
      <point x="39" y="0" type="line"/>
    </contour>
    <contour>
      <point x="334" y="737" type="line"/>
      <point x="198" y="844" type="line"/>
      <point x="153" y="844" type="line"/>
      <point x="18" y="738" type="line"/>
      <point x="47" y="685" type="line"/>
      <point x="171" y="745" type="line"/>
      <point x="306" y="685" type="line"/>
    </contour>
  </outline>
</glyph>
<glyph name="Eth" format="1">
  <advance width="700"/>
  <unicode hex="00D0"/>
  <outline>
    <contour>
      <point x="675" y="328" type="curve" smooth="yes"/>
      <point x="675" y="520"/>
      <point x="562" y="650"/>
      <point x="339" y="650" type="curve" smooth="yes"/>
      <point x="41" y="650" type="line"/>
      <point x="41" y="536" type="line"/>
      <point x="111" y="536" type="line"/>
      <point x="111" y="397" type="line"/>
      <point x="44" y="397" type="line"/>
      <point x="44" y="287" type="line"/>
      <point x="111" y="287" type="line"/>
      <point x="111" y="114" type="line"/>
      <point x="41" y="114" type="line"/>
      <point x="41" y="0" type="line"/>
      <point x="347" y="0" type="line" smooth="yes"/>
      <point x="552" y="0"/>
      <point x="675" y="130"/>
    </contour>
    <contour>
      <point x="531" y="326" type="curve" smooth="yes"/>
      <point x="531" y="177"/>
      <point x="461" y="114"/>
      <point x="336" y="114" type="curve" smooth="yes"/>
      <point x="245" y="114" type="line"/>
      <point x="245" y="287" type="line"/>
      <point x="366" y="287" type="line"/>
      <point x="366" y="397" type="line"/>
      <point x="245" y="397" type="line"/>
      <point x="245" y="536" type="line"/>
      <point x="336" y="536" type="line" smooth="yes"/>
      <point x="463" y="536"/>
      <point x="531" y="469"/>
    </contour>
  </outline>
</glyph>
<glyph name="Otilde" format="1">
  <advance width="711"/>
  <unicode hex="00D5"/>
  <outline>
    <contour>
      <point x="515" y="820" type="curve"/>
      <point x="461" y="831" type="line"/>
      <point x="452" y="802"/>
      <point x="432" y="793"/>
      <point x="413" y="793" type="curve" smooth="yes"/>
      <point x="379" y="793"/>
      <point x="342" y="824"/>
      <point x="298" y="824" type="curve" smooth="yes"/>
      <point x="230" y="824"/>
      <point x="209" y="751"/>
      <point x="212" y="714" type="curve"/>
      <point x="262" y="698" type="line"/>
      <point x="269" y="724"/>
      <point x="282" y="731"/>
      <point x="304" y="731" type="curve" smooth="yes"/>
      <point x="350" y="731"/>
      <point x="381" y="700"/>
      <point x="430" y="700" type="curve" smooth="yes"/>
      <point x="499" y="700"/>
      <point x="515" y="762"/>
    </contour>
    <contour>
      <point x="688" y="326" type="curve" smooth="yes"/>
      <point x="688" y="509"/>
      <point x="565" y="660"/>
      <point x="357" y="660" type="curve" smooth="yes"/>
      <point x="153" y="660"/>
      <point x="24" y="514"/>
      <point x="24" y="324" type="curve" smooth="yes"/>
      <point x="24" y="143"/>
      <point x="141" y="-10"/>
      <point x="353" y="-10" type="curve" smooth="yes"/>
      <point x="564" y="-10"/>
      <point x="688" y="142"/>
    </contour>
    <contour>
      <point x="543" y="322" type="curve" smooth="yes"/>
      <point x="543" y="195"/>
      <point x="487" y="108"/>
      <point x="360" y="108" type="curve" smooth="yes"/>
      <point x="223" y="108"/>
      <point x="169" y="209"/>
      <point x="169" y="327" type="curve" smooth="yes"/>
      <point x="169" y="450"/>
      <point x="227" y="542"/>
      <point x="356" y="542" type="curve" smooth="yes"/>
      <point x="477" y="542"/>
      <point x="543" y="460"/>
    </contour>
  </outline>
</glyph>
<glyph name="atilde" format="1">
  <advance width="506"/>
  <unicode hex="00E3"/>
  <outline>
    <contour>
      <point x="68" y="419" type="curve"/>
      <point x="48" y="302" type="line"/>
      <point x="151" y="291" type="line"/>
      <point x="168" y="355" type="line"/>
      <point x="189" y="366"/>
      <point x="210" y="368"/>
      <point x="237" y="368" type="curve" smooth="yes"/>
      <point x="310" y="368"/>
      <point x="311" y="313"/>
      <point x="311" y="267" type="curve" smooth="yes"/>
      <point x="311" y="252" type="line"/>
      <point x="288" y="255"/>
      <point x="262" y="256"/>
      <point x="237" y="256" type="curve" smooth="yes"/>
      <point x="134" y="256"/>
      <point x="27" y="230"/>
      <point x="27" y="119" type="curve" smooth="yes"/>
      <point x="27" y="25"/>
      <point x="101" y="-10"/>
      <point x="166" y="-10" type="curve" smooth="yes"/>
      <point x="239" y="-10"/>
      <point x="285" y="34"/>
      <point x="311" y="80" type="curve"/>
      <point x="311" y="79" type="line"/>
      <point x="317" y="25"/>
      <point x="350" y="-10"/>
      <point x="410" y="-10" type="curve" smooth="yes"/>
      <point x="438" y="-10"/>
      <point x="467" y="-2"/>
      <point x="491" y="11" type="curve"/>
      <point x="490" y="79" type="line"/>
      <point x="483" y="77"/>
      <point x="477" y="76"/>
      <point x="471" y="76" type="curve" smooth="yes"/>
      <point x="450" y="76"/>
      <point x="440" y="85"/>
      <point x="440" y="111" type="curve" smooth="yes"/>
      <point x="440" y="307" type="line" smooth="yes"/>
      <point x="440" y="410"/>
      <point x="358" y="460"/>
      <point x="261" y="460" type="curve" smooth="yes"/>
      <point x="187" y="460"/>
      <point x="147" y="451"/>
    </contour>
    <contour>
      <point x="407" y="647" type="curve"/>
      <point x="353" y="658" type="line"/>
      <point x="344" y="629"/>
      <point x="325" y="617"/>
      <point x="306" y="617" type="curve" smooth="yes"/>
      <point x="272" y="617"/>
      <point x="234" y="655"/>
      <point x="189" y="655" type="curve" smooth="yes"/>
      <point x="123" y="655"/>
      <point x="101" y="569"/>
      <point x="104" y="531" type="curve"/>
      <point x="154" y="515" type="line"/>
      <point x="162" y="544"/>
      <point x="176" y="558"/>
      <point x="199" y="558" type="curve" smooth="yes"/>
      <point x="239" y="558"/>
      <point x="273" y="517"/>
      <point x="324" y="517" type="curve" smooth="yes"/>
      <point x="390" y="517"/>
      <point x="407" y="589"/>
    </contour>
    <contour>
      <point x="311" y="184" type="line" smooth="yes"/>
      <point x="305" y="113"/>
      <point x="258" y="82"/>
      <point x="213" y="82" type="curve" smooth="yes"/>
      <point x="174" y="82"/>
      <point x="160" y="105"/>
      <point x="160" y="134" type="curve" smooth="yes"/>
      <point x="160" y="183"/>
      <point x="200" y="196"/>
      <point x="246" y="196" type="curve" smooth="yes"/>
      <point x="267" y="196"/>
      <point x="290" y="193"/>
      <point x="311" y="190" type="curve"/>
    </contour>
  </outline>
</glyph>
<glyph name="ccedilla" format="1">
  <advance width="471"/>
  <unicode hex="00E7"/>
  <outline>
    <contour>
      <point x="385" y="-122" type="curve" smooth="yes"/>
      <point x="385" y="-83"/>
      <point x="363" y="-42"/>
      <point x="296" y="-42" type="curve" smooth="yes"/>
      <point x="288" y="-42" type="line"/>
      <point x="288" y="-7" type="line"/>
      <point x="402" y="9"/>
      <point x="447" y="94"/>
      <point x="455" y="168" type="curve"/>
      <point x="347" y="188" type="line"/>
      <point x="338" y="123"/>
      <point x="310" y="92"/>
      <point x="258" y="92" type="curve" smooth="yes"/>
      <point x="189" y="92"/>
      <point x="155" y="141"/>
      <point x="155" y="224" type="curve" smooth="yes"/>
      <point x="155" y="319"/>
      <point x="199" y="358"/>
      <point x="254" y="358" type="curve" smooth="yes"/>
      <point x="275" y="358"/>
      <point x="298" y="353"/>
      <point x="322" y="345" type="curve"/>
      <point x="337" y="271" type="line"/>
      <point x="440" y="282" type="line"/>
      <point x="420" y="419" type="line"/>
      <point x="365" y="448"/>
      <point x="307" y="460"/>
      <point x="257" y="460" type="curve" smooth="yes"/>
      <point x="126" y="460"/>
      <point x="21" y="378"/>
      <point x="21" y="218" type="curve" smooth="yes"/>
      <point x="21" y="84"/>
      <point x="94" y="10"/>
      <point x="200" y="-6" type="curve"/>
      <point x="200" y="-87" type="line"/>
      <point x="237" y="-87" type="line" smooth="yes"/>
      <point x="269" y="-87"/>
      <point x="276" y="-98"/>
      <point x="276" y="-112" type="curve" smooth="yes"/>
      <point x="276" y="-126"/>
      <point x="268" y="-133"/>
      <point x="240" y="-133" type="curve" smooth="yes"/>
      <point x="203" y="-133"/>
      <point x="177" y="-120"/>
      <point x="162" y="-110" type="curve"/>
      <point x="139" y="-180" type="line"/>
      <point x="161" y="-198"/>
      <point x="206" y="-210"/>
      <point x="255" y="-210" type="curve" smooth="yes"/>
      <point x="319" y="-210"/>
      <point x="385" y="-189"/>
    </contour>
  </outline>
</glyph>
<glyph name="iacute" format="1">
  <advance width="299"/>
  <unicode hex="00ED"/>
  <outline>
    <contour>
      <point x="32" y="98" type="line"/>
      <point x="92" y="98" type="line"/>
      <point x="92" y="353" type="line"/>
      <point x="27" y="353" type="line"/>
      <point x="27" y="451" type="line"/>
      <point x="221" y="451" type="line"/>
      <point x="221" y="98" type="line"/>
      <point x="281" y="98" type="line"/>
      <point x="281" y="0" type="line"/>
      <point x="32" y="0" type="line"/>
    </contour>
    <contour>
      <point x="287" y="599" type="line"/>
      <point x="220" y="700" type="line"/>
      <point x="58" y="557" type="line"/>
      <point x="92" y="508" type="line"/>
    </contour>
  </outline>
</glyph>
<glyph name="icircumflex" format="1">
  <advance width="299"/>
  <unicode hex="00EE"/>
  <outline>
    <contour>
      <point x="32" y="98" type="line"/>
      <point x="92" y="98" type="line"/>
      <point x="92" y="353" type="line"/>
      <point x="27" y="353" type="line"/>
      <point x="27" y="451" type="line"/>
      <point x="221" y="451" type="line"/>
      <point x="221" y="98" type="line"/>
      <point x="281" y="98" type="line"/>
      <point x="281" y="0" type="line"/>
      <point x="32" y="0" type="line"/>
    </contour>
    <contour>
      <point x="291" y="557" type="line"/>
      <point x="155" y="684" type="line"/>
      <point x="110" y="684" type="line"/>
      <point x="-25" y="558" type="line"/>
      <point x="10" y="507" type="line"/>
      <point x="122" y="575" type="line"/>
      <point x="257" y="508" type="line"/>
    </contour>
  </outline>
</glyph>
<glyph name="otilde" format="1">
  <advance width="522"/>
  <unicode hex="00F5"/>
  <outline>
    <contour>
      <point x="503" y="225" type="curve" smooth="yes"/>
      <point x="503" y="352"/>
      <point x="425" y="461"/>
      <point x="262" y="461" type="curve" smooth="yes"/>
      <point x="100" y="461"/>
      <point x="20" y="352"/>
      <point x="20" y="220" type="curve" smooth="yes"/>
      <point x="20" y="75"/>
      <point x="116" y="-10"/>
      <point x="255" y="-10" type="curve" smooth="yes"/>
      <point x="399" y="-10"/>
      <point x="503" y="82"/>
    </contour>
    <contour>
      <point x="370" y="229" type="curve" smooth="yes"/>
      <point x="370" y="143"/>
      <point x="326" y="89"/>
      <point x="259" y="89" type="curve" smooth="yes"/>
      <point x="189" y="89"/>
      <point x="153" y="150"/>
      <point x="153" y="227" type="curve" smooth="yes"/>
      <point x="153" y="312"/>
      <point x="194" y="362"/>
      <point x="260" y="362" type="curve" smooth="yes"/>
      <point x="321" y="362"/>
      <point x="370" y="321"/>
    </contour>
    <contour>
      <point x="416" y="647" type="curve"/>
      <point x="362" y="658" type="line"/>
      <point x="353" y="629"/>
      <point x="334" y="617"/>
      <point x="315" y="617" type="curve" smooth="yes"/>
      <point x="281" y="617"/>
      <point x="243" y="655"/>
      <point x="198" y="655" type="curve" smooth="yes"/>
      <point x="132" y="655"/>
      <point x="110" y="569"/>
      <point x="113" y="531" type="curve"/>
      <point x="163" y="515" type="line"/>
      <point x="171" y="544"/>
      <point x="185" y="558"/>
      <point x="208" y="558" type="curve" smooth="yes"/>
      <point x="248" y="558"/>
      <point x="282" y="517"/>
      <point x="333" y="517" type="curve" smooth="yes"/>
      <point x="399" y="517"/>
      <point x="416" y="589"/>
    </contour>
  </outline>
</glyph>
<glyph name="oslash" format="1">
  <advance width="524"/>
  <unicode hex="00F8"/>
  <outline>
    <contour>
      <point x="504" y="225" type="curve" smooth="yes"/>
      <point x="504" y="286"/>
      <point x="485" y="344"/>
      <point x="447" y="387" type="curve"/>
      <point x="504" y="451" type="line"/>
      <point x="418" y="451" type="line"/>
      <point x="397" y="427" type="line"/>
      <point x="361" y="448"/>
      <point x="316" y="460"/>
      <point x="263" y="460" type="curve" smooth="yes"/>
      <point x="101" y="460"/>
      <point x="21" y="351"/>
      <point x="21" y="219" type="curve" smooth="yes"/>
      <point x="21" y="154"/>
      <point x="40" y="101"/>
      <point x="75" y="62" type="curve"/>
      <point x="20" y="0" type="line"/>
      <point x="105" y="0" type="line"/>
      <point x="124" y="22" type="line"/>
      <point x="161" y="1"/>
      <point x="205" y="-10"/>
      <point x="256" y="-10" type="curve" smooth="yes"/>
      <point x="400" y="-10"/>
      <point x="504" y="81"/>
    </contour>
    <contour>
      <point x="365" y="229" type="curve" smooth="yes"/>
      <point x="365" y="146"/>
      <point x="325" y="98"/>
      <point x="260" y="98" type="curve" smooth="yes"/>
      <point x="238" y="98"/>
      <point x="220" y="103"/>
      <point x="205" y="113" type="curve"/>
      <point x="357" y="285" type="line"/>
      <point x="362" y="269"/>
      <point x="365" y="251"/>
    </contour>
    <contour>
      <point x="160" y="227" type="curve" smooth="yes"/>
      <point x="160" y="309"/>
      <point x="197" y="352"/>
      <point x="261" y="352" type="curve" smooth="yes"/>
      <point x="282" y="352"/>
      <point x="302" y="347"/>
      <point x="318" y="337" type="curve"/>
      <point x="168" y="167" type="line"/>
      <point x="162" y="185"/>
      <point x="160" y="205"/>
    </contour>
  </outline>
</glyph>
<glyph name="udieresis" format="1">
  <advance width="585"/>
  <unicode hex="00FC"/>
  <outline>
    <contour>
      <point x="111" y="531" type="line"/>
      <point x="240" y="531" type="line"/>
      <point x="240" y="665" type="line"/>
      <point x="111" y="665" type="line"/>
    </contour>
    <contour>
      <point x="296" y="531" type="line"/>
      <point x="425" y="531" type="line"/>
      <point x="425" y="665" type="line"/>
      <point x="296" y="665" type="line"/>
    </contour>
    <contour>
      <point x="571" y="0" type="line"/>
      <point x="571" y="97" type="line"/>
      <point x="506" y="97" type="line"/>
      <point x="506" y="451" type="line"/>
      <point x="304" y="451" type="line"/>
      <point x="304" y="354" type="line"/>
      <point x="377" y="354" type="line"/>
      <point x="377" y="196" type="line" smooth="yes"/>
      <point x="377" y="133"/>
      <point x="342" y="89"/>
      <point x="280" y="89" type="curve" smooth="yes"/>
      <point x="229" y="89"/>
      <point x="203" y="119"/>
      <point x="203" y="197" type="curve" smooth="yes"/>
      <point x="203" y="451" type="line"/>
      <point x="14" y="451" type="line"/>
      <point x="14" y="354" type="line"/>
      <point x="74" y="354" type="line"/>
      <point x="74" y="147" type="line" smooth="yes"/>
      <point x="74" y="40"/>
      <point x="147" y="-9"/>
      <point x="232" y="-9" type="curve" smooth="yes"/>
      <point x="298" y="-9"/>
      <point x="348" y="19"/>
      <point x="377" y="69" type="curve"/>
      <point x="377" y="0" type="line"/>
    </contour>
  </outline>
</glyph>
<glyph name="Aogonek" format="1">
  <advance width="687"/>
  <unicode hex="0104"/>
  <outline>
    <contour>
      <point x="691" y="-188" type="curve"/>
      <point x="682" y="-106" type="line"/>
      <point x="669" y="-114"/>
      <point x="651" y="-118"/>
      <point x="636" y="-118" type="curve" smooth="yes"/>
      <point x="612" y="-118"/>
      <point x="593" y="-109"/>
      <point x="593" y="-74" type="curve" smooth="yes"/>
      <point x="593" y="-52"/>
      <point x="600" y="-25"/>
      <point x="636" y="0" type="curve"/>
      <point x="687" y="0" type="line"/>
      <point x="687" y="114" type="line"/>
      <point x="625" y="114" type="line"/>
      <point x="391" y="650" type="line"/>
      <point x="168" y="650" type="line"/>
      <point x="168" y="536" type="line"/>
      <point x="258" y="536" type="line"/>
      <point x="72" y="114" type="line"/>
      <point x="13" y="114" type="line"/>
      <point x="13" y="0" type="line"/>
      <point x="269" y="0" type="line"/>
      <point x="269" y="114" type="line"/>
      <point x="208" y="114" type="line"/>
      <point x="235" y="180" type="line"/>
      <point x="456" y="180" type="line"/>
      <point x="480" y="114" type="line"/>
      <point x="428" y="114" type="line"/>
      <point x="428" y="0" type="line"/>
      <point x="556" y="0" type="line"/>
      <point x="515" y="-25"/>
      <point x="483" y="-66"/>
      <point x="483" y="-117" type="curve" smooth="yes"/>
      <point x="483" y="-181"/>
      <point x="536" y="-208"/>
      <point x="601" y="-208" type="curve" smooth="yes"/>
      <point x="639" y="-208"/>
      <point x="668" y="-199"/>
    </contour>
    <contour>
      <point x="420" y="276" type="line"/>
      <point x="273" y="276" type="line"/>
      <point x="346" y="459" type="line"/>
      <point x="352" y="459" type="line"/>
    </contour>
  </outline>
</glyph>
<glyph name="ccircumflex" format="1">
  <advance width="471"/>
  <unicode hex="0109"/>
  <outline>
    <contour>
      <point x="416" y="557" type="line"/>
      <point x="280" y="684" type="line"/>
      <point x="235" y="684" type="line"/>
      <point x="100" y="558" type="line"/>
      <point x="135" y="507" type="line"/>
      <point x="247" y="575" type="line"/>
      <point x="382" y="508" type="line"/>
    </contour>
    <contour>
      <point x="455" y="168" type="curve"/>
      <point x="347" y="188" type="line"/>
      <point x="338" y="123"/>
      <point x="310" y="92"/>
      <point x="258" y="92" type="curve" smooth="yes"/>
      <point x="189" y="92"/>
      <point x="155" y="141"/>
      <point x="155" y="224" type="curve" smooth="yes"/>
      <point x="155" y="319"/>
      <point x="199" y="358"/>
      <point x="254" y="358" type="curve" smooth="yes"/>
      <point x="275" y="358"/>
      <point x="298" y="353"/>
      <point x="322" y="345" type="curve"/>
      <point x="337" y="271" type="line"/>
      <point x="440" y="282" type="line"/>
      <point x="420" y="419" type="line"/>
      <point x="365" y="448"/>
      <point x="307" y="460"/>
      <point x="257" y="460" type="curve" smooth="yes"/>
      <point x="126" y="460"/>
      <point x="21" y="378"/>
      <point x="21" y="218" type="curve" smooth="yes"/>
      <point x="21" y="66"/>
      <point x="116" y="-10"/>
      <point x="246" y="-10" type="curve" smooth="yes"/>
      <point x="391" y="-10"/>
      <point x="446" y="86"/>
    </contour>
  </outline>
</glyph>
<glyph name="ccaron" format="1">
  <advance width="471"/>
  <unicode hex="010D"/>
  <outline>
    <contour>
      <point x="455" y="168" type="curve"/>
      <point x="347" y="188" type="line"/>
      <point x="338" y="123"/>
      <point x="310" y="92"/>
      <point x="258" y="92" type="curve" smooth="yes"/>
      <point x="189" y="92"/>
      <point x="155" y="141"/>
      <point x="155" y="224" type="curve" smooth="yes"/>
      <point x="155" y="319"/>
      <point x="199" y="358"/>
      <point x="254" y="358" type="curve" smooth="yes"/>
      <point x="275" y="358"/>
      <point x="298" y="353"/>
      <point x="322" y="345" type="curve"/>
      <point x="337" y="271" type="line"/>
      <point x="440" y="282" type="line"/>
      <point x="420" y="419" type="line"/>
      <point x="365" y="448"/>
      <point x="307" y="460"/>
      <point x="257" y="460" type="curve" smooth="yes"/>
      <point x="126" y="460"/>
      <point x="21" y="378"/>
      <point x="21" y="218" type="curve" smooth="yes"/>
      <point x="21" y="66"/>
      <point x="116" y="-10"/>
      <point x="246" y="-10" type="curve" smooth="yes"/>
      <point x="391" y="-10"/>
      <point x="446" y="86"/>
    </contour>
    <contour>
      <point x="402" y="633" type="line"/>
      <point x="367" y="684" type="line"/>
      <point x="255" y="616" type="line"/>
      <point x="120" y="683" type="line"/>
      <point x="86" y="634" type="line"/>
      <point x="222" y="507" type="line"/>
      <point x="267" y="507" type="line"/>
    </contour>
  </outline>
</glyph>
<glyph name="Ebreve" format="1">
  <advance width="592"/>
  <unicode hex="0114"/>
  <outline>
    <contour>
      <point x="473" y="833" type="curve"/>
      <point x="371" y="833" type="line"/>
      <point x="371" y="801"/>
      <point x="361" y="772"/>
      <point x="333" y="772" type="curve" smooth="yes"/>
      <point x="307" y="772"/>
      <point x="296" y="797"/>
      <point x="296" y="833" type="curve"/>
      <point x="194" y="833" type="line"/>
      <point x="194" y="741"/>
      <point x="245" y="695"/>
      <point x="333" y="695" type="curve" smooth="yes"/>
      <point x="418" y="695"/>
      <point x="473" y="738"/>
    </contour>
    <contour>
      <point x="541" y="0" type="line"/>
      <point x="561" y="190" type="line"/>
      <point x="447" y="200" type="line"/>
      <point x="427" y="114" type="line"/>
      <point x="243" y="114" type="line"/>
      <point x="243" y="270" type="line"/>
      <point x="517" y="270" type="line"/>
      <point x="517" y="383" type="line"/>
      <point x="243" y="383" type="line"/>
      <point x="243" y="536" type="line"/>
      <point x="421" y="536" type="line"/>
      <point x="441" y="450" type="line"/>
      <point x="555" y="460" type="line"/>
      <point x="535" y="650" type="line"/>
      <point x="39" y="650" type="line"/>
      <point x="39" y="536" type="line"/>
      <point x="109" y="536" type="line"/>
      <point x="109" y="114" type="line"/>
      <point x="39" y="114" type="line"/>
      <point x="39" y="0" type="line"/>
    </contour>
  </outline>
</glyph>
<glyph name="eogonek" format="1">
  <advance width="483"/>
  <unicode hex="0119"/>
  <outline>
    <contour>
      <point x="463" y="142" type="curve"/>
      <point x="355" y="162" type="line"/>
      <point x="350" y="135"/>
      <point x="331" y="92"/>
      <point x="262" y="92" type="curve" smooth="yes"/>
      <point x="197" y="92"/>
      <point x="163" y="129"/>
      <point x="156" y="199" type="curve"/>
      <point x="452" y="199" type="line"/>
      <point x="457" y="222"/>
      <point x="459" y="244"/>
      <point x="459" y="264" type="curve" smooth="yes"/>
      <point x="457" y="381"/>
      <point x="372" y="460"/>
      <point x="247" y="460" type="curve" smooth="yes"/>
      <point x="104" y="460"/>
      <point x="21" y="356"/>
      <point x="21" y="217" type="curve" smooth="yes"/>
      <point x="21" y="73"/>
      <point x="109" y="-2"/>
      <point x="233" y="-9" type="curve"/>
      <point x="199" y="-35"/>
      <point x="174" y="-72"/>
      <point x="174" y="-117" type="curve" smooth="yes"/>
      <point x="174" y="-181"/>
      <point x="227" y="-208"/>
      <point x="292" y="-208" type="curve" smooth="yes"/>
      <point x="330" y="-208"/>
      <point x="359" y="-199"/>
      <point x="382" y="-188" type="curve"/>
      <point x="373" y="-106" type="line"/>
      <point x="360" y="-114"/>
      <point x="342" y="-118"/>
      <point x="327" y="-118" type="curve" smooth="yes"/>
      <point x="303" y="-118"/>
      <point x="284" y="-109"/>
      <point x="284" y="-74" type="curve" smooth="yes"/>
      <point x="284" y="-53"/>
      <point x="291" y="-26"/>
      <point x="325" y="-1" type="curve"/>
      <point x="410" y="20"/>
      <point x="458" y="78"/>
    </contour>
    <contour>
      <point x="326" y="274" type="curve"/>
      <point x="157" y="274" type="line"/>
      <point x="165" y="330"/>
      <point x="194" y="368"/>
      <point x="247" y="368" type="curve" smooth="yes"/>
      <point x="308" y="368"/>
      <point x="332" y="319"/>
    </contour>
  </outline>
</glyph>
<glyph name="gcommaaccent" format="1">
  <advance width="569"/>
  <unicode hex="0123"/>
  <outline>
    <contour>
      <point x="202" y="538" type="line"/>
      <point x="323" y="538" type="line"/>
      <point x="326" y="693" type="line"/>
      <point x="228" y="693" type="line"/>
    </contour>
    <contour>
      <point x="555" y="353" type="line"/>
      <point x="555" y="451" type="line"/>
      <point x="366" y="451" type="line"/>
      <point x="366" y="381" type="line"/>
      <point x="341" y="428"/>
      <point x="295" y="460"/>
      <point x="224" y="460" type="curve" smooth="yes"/>
      <point x="97" y="460"/>
      <point x="21" y="351"/>
      <point x="21" y="217" type="curve" smooth="yes"/>
      <point x="21" y="75"/>
      <point x="113" y="0"/>
      <point x="218" y="0" type="curve" smooth="yes"/>
      <point x="298" y="0"/>
      <point x="342" y="36"/>
      <point x="366" y="82" type="curve"/>
      <point x="366" y="23" type="line" smooth="yes"/>
      <point x="366" y="-68"/>
      <point x="316" y="-120"/>
      <point x="247" y="-120" type="curve" smooth="yes"/>
      <point x="191" y="-120"/>
      <point x="149" y="-89"/>
      <point x="118" y="-31" type="curve"/>
      <point x="19" y="-87" type="line"/>
      <point x="57" y="-191"/>
      <point x="153" y="-222"/>
      <point x="246" y="-222" type="curve" smooth="yes"/>
      <point x="415" y="-222"/>
      <point x="495" y="-121"/>
      <point x="495" y="23" type="curve" smooth="yes"/>
      <point x="495" y="353" type="line"/>
    </contour>
    <contour>
      <point x="366" y="228" type="line" smooth="yes"/>
      <point x="366" y="161"/>
      <point x="327" y="102"/>
      <point x="257" y="102" type="curve" smooth="yes"/>
      <point x="203" y="102"/>
      <point x="165" y="139"/>
      <point x="165" y="225" type="curve" smooth="yes"/>
      <point x="165" y="317"/>
      <point x="208" y="358"/>
      <point x="265" y="358" type="curve" smooth="yes"/>
      <point x="324" y="358"/>
      <point x="366" y="314"/>
      <point x="366" y="239" type="curve" smooth="yes"/>
    </contour>
  </outline>
</glyph>
<glyph name="hbar" format="1">
  <advance width="582"/>
  <unicode hex="0127"/>
  <outline>
    <contour>
      <point x="568" y="0" type="line"/>
      <point x="568" y="97" type="line"/>
      <point x="508" y="97" type="line"/>
      <point x="508" y="304" type="line" smooth="yes"/>
      <point x="508" y="411"/>
      <point x="435" y="460"/>
      <point x="350" y="460" type="curve" smooth="yes"/>
      <point x="284" y="460"/>
      <point x="233" y="431"/>
      <point x="205" y="382" type="curve"/>
      <point x="205" y="487" type="line"/>
      <point x="386" y="487" type="line"/>
      <point x="386" y="559" type="line"/>
      <point x="205" y="559" type="line"/>
      <point x="205" y="688" type="line"/>
      <point x="16" y="688" type="line"/>
      <point x="16" y="590" type="line"/>
      <point x="76" y="590" type="line"/>
      <point x="76" y="559" type="line"/>
      <point x="18" y="559" type="line"/>
      <point x="18" y="487" type="line"/>
      <point x="76" y="487" type="line"/>
      <point x="76" y="97" type="line"/>
      <point x="16" y="97" type="line"/>
      <point x="16" y="0" type="line"/>
      <point x="265" y="0" type="line"/>
      <point x="265" y="97" type="line"/>
      <point x="205" y="97" type="line"/>
      <point x="205" y="264" type="line"/>
      <point x="208" y="322"/>
      <point x="241" y="362"/>
      <point x="300" y="362" type="curve" smooth="yes"/>
      <point x="351" y="362"/>
      <point x="379" y="332"/>
      <point x="379" y="254" type="curve" smooth="yes"/>
      <point x="379" y="97" type="line"/>
      <point x="319" y="97" type="line"/>
      <point x="319" y="0" type="line"/>
    </contour>
  </outline>
</glyph>
<glyph name="itilde" format="1">
  <advance width="299"/>
  <unicode hex="0129"/>
  <outline>
    <contour>
      <point x="32" y="98" type="line"/>
      <point x="92" y="98" type="line"/>
      <point x="92" y="353" type="line"/>
      <point x="27" y="353" type="line"/>
      <point x="27" y="451" type="line"/>
      <point x="221" y="451" type="line"/>
      <point x="221" y="98" type="line"/>
      <point x="281" y="98" type="line"/>
      <point x="281" y="0" type="line"/>
      <point x="32" y="0" type="line"/>
    </contour>
    <contour>
      <point x="299" y="647" type="curve"/>
      <point x="245" y="658" type="line"/>
      <point x="236" y="629"/>
      <point x="217" y="617"/>
      <point x="198" y="617" type="curve" smooth="yes"/>
      <point x="164" y="617"/>
      <point x="126" y="655"/>
      <point x="81" y="655" type="curve" smooth="yes"/>
      <point x="15" y="655"/>
      <point x="-7" y="569"/>
      <point x="-4" y="531" type="curve"/>
      <point x="46" y="515" type="line"/>
      <point x="54" y="544"/>
      <point x="68" y="558"/>
      <point x="91" y="558" type="curve" smooth="yes"/>
      <point x="131" y="558"/>
      <point x="165" y="517"/>
      <point x="216" y="517" type="curve" smooth="yes"/>
      <point x="282" y="517"/>
      <point x="299" y="589"/>
    </contour>
  </outline>
</glyph>
<glyph name="Imacron" format="1">
  <advance width="352"/>
  <unicode hex="012A"/>
  <outline>
    <contour>
      <point x="313" y="0" type="line"/>
      <point x="313" y="114" type="line"/>
      <point x="243" y="114" type="line"/>
      <point x="243" y="536" type="line"/>
      <point x="313" y="536" type="line"/>
      <point x="313" y="650" type="line"/>
      <point x="39" y="650" type="line"/>
      <point x="39" y="536" type="line"/>
      <point x="109" y="536" type="line"/>
      <point x="109" y="114" type="line"/>
      <point x="39" y="114" type="line"/>
      <point x="39" y="0" type="line"/>
    </contour>
    <contour>
      <point x="331" y="721" type="line"/>
      <point x="331" y="819" type="line"/>
      <point x="23" y="819" type="line"/>
      <point x="23" y="721" type="line"/>
    </contour>
  </outline>
</glyph>
<glyph name="Ibreve" format="1">
  <advance width="352"/>
  <unicode hex="012C"/>
  <outline>
    <contour>
      <point x="313" y="0" type="line"/>
      <point x="313" y="114" type="line"/>
      <point x="243" y="114" type="line"/>
      <point x="243" y="536" type="line"/>
      <point x="313" y="536" type="line"/>
      <point x="313" y="650" type="line"/>
      <point x="39" y="650" type="line"/>
      <point x="39" y="536" type="line"/>
      <point x="109" y="536" type="line"/>
      <point x="109" y="114" type="line"/>
      <point x="39" y="114" type="line"/>
      <point x="39" y="0" type="line"/>
    </contour>
    <contour>
      <point x="316" y="833" type="curve"/>
      <point x="214" y="833" type="line"/>
      <point x="214" y="801"/>
      <point x="204" y="772"/>
      <point x="176" y="772" type="curve" smooth="yes"/>
      <point x="150" y="772"/>
      <point x="139" y="797"/>
      <point x="139" y="833" type="curve"/>
      <point x="37" y="833" type="line"/>
      <point x="37" y="741"/>
      <point x="88" y="695"/>
      <point x="176" y="695" type="curve" smooth="yes"/>
      <point x="261" y="695"/>
      <point x="316" y="738"/>
    </contour>
  </outline>
</glyph>
<glyph name="ibreve" format="1">
  <advance width="299"/>
  <unicode hex="012D"/>
  <outline>
    <contour>
      <point x="32" y="98" type="line"/>
      <point x="92" y="98" type="line"/>
      <point x="92" y="353" type="line"/>
      <point x="27" y="353" type="line"/>
      <point x="27" y="451" type="line"/>
      <point x="221" y="451" type="line"/>
      <point x="221" y="98" type="line"/>
      <point x="281" y="98" type="line"/>
      <point x="281" y="0" type="line"/>
      <point x="32" y="0" type="line"/>
    </contour>
    <contour>
      <point x="287" y="653" type="curve"/>
      <point x="185" y="653" type="line"/>
      <point x="185" y="621"/>
      <point x="175" y="592"/>
      <point x="147" y="592" type="curve" smooth="yes"/>
      <point x="121" y="592"/>
      <point x="110" y="617"/>
      <point x="110" y="653" type="curve"/>
      <point x="8" y="653" type="line"/>
      <point x="8" y="561"/>
      <point x="58" y="515"/>
      <point x="145" y="515" type="curve" smooth="yes"/>
      <point x="229" y="515"/>
      <point x="287" y="558"/>
    </contour>
  </outline>
</glyph>
<glyph name="Iogonek" format="1">
  <advance width="351"/>
  <unicode hex="012E"/>
  <outline>
    <contour>
      <point x="277" y="-188" type="curve"/>
      <point x="268" y="-106" type="line"/>
      <point x="255" y="-114"/>
      <point x="237" y="-118"/>
      <point x="222" y="-118" type="curve" smooth="yes"/>
      <point x="198" y="-118"/>
      <point x="179" y="-109"/>
      <point x="179" y="-74" type="curve" smooth="yes"/>
      <point x="179" y="-52"/>
      <point x="186" y="-25"/>
      <point x="222" y="0" type="curve"/>
      <point x="313" y="0" type="line"/>
      <point x="313" y="114" type="line"/>
      <point x="243" y="114" type="line"/>
      <point x="243" y="536" type="line"/>
      <point x="313" y="536" type="line"/>
      <point x="313" y="650" type="line"/>
      <point x="39" y="650" type="line"/>
      <point x="39" y="536" type="line"/>
      <point x="109" y="536" type="line"/>
      <point x="109" y="114" type="line"/>
      <point x="39" y="114" type="line"/>
      <point x="39" y="0" type="line"/>
      <point x="142" y="0" type="line"/>
      <point x="101" y="-25"/>
      <point x="69" y="-66"/>
      <point x="69" y="-117" type="curve" smooth="yes"/>
      <point x="69" y="-181"/>
      <point x="122" y="-208"/>
      <point x="187" y="-208" type="curve" smooth="yes"/>
      <point x="225" y="-208"/>
      <point x="254" y="-199"/>
    </contour>
  </outline>
</glyph>
<glyph name="iogonek" format="1">
  <advance width="299"/>
  <unicode hex="012F"/>
  <outline>
    <contour>
      <point x="239" y="-106" type="line"/>
      <point x="226" y="-114"/>
      <point x="208" y="-118"/>
      <point x="193" y="-118" type="curve" smooth="yes"/>
      <point x="169" y="-118"/>
      <point x="150" y="-109"/>
      <point x="150" y="-74" type="curve" smooth="yes"/>
      <point x="150" y="-52"/>
      <point x="157" y="-25"/>
      <point x="193" y="0" type="curve"/>
      <point x="281" y="0" type="line"/>
      <point x="281" y="98" type="line"/>
      <point x="221" y="98" type="line"/>
      <point x="221" y="451" type="line"/>
      <point x="27" y="451" type="line"/>
      <point x="27" y="353" type="line"/>
      <point x="92" y="353" type="line"/>
      <point x="92" y="98" type="line"/>
      <point x="32" y="98" type="line"/>
      <point x="32" y="0" type="line"/>
      <point x="113" y="0" type="line"/>
      <point x="72" y="-25"/>
      <point x="40" y="-66"/>
      <point x="40" y="-117" type="curve" smooth="yes"/>
      <point x="40" y="-181"/>
      <point x="93" y="-208"/>
      <point x="158" y="-208" type="curve" smooth="yes"/>
      <point x="196" y="-208"/>
      <point x="225" y="-199"/>
      <point x="248" y="-188" type="curve"/>
    </contour>
    <contour>
      <point x="87" y="531" type="line"/>
      <point x="216" y="531" type="line"/>
      <point x="216" y="665" type="line"/>
      <point x="87" y="665" type="line"/>
    </contour>
  </outline>
</glyph>
<glyph name="Idotaccent" format="1">
  <advance width="352"/>
  <unicode hex="0130"/>
  <outline>
    <contour>
      <point x="313" y="0" type="line"/>
      <point x="313" y="114" type="line"/>
      <point x="243" y="114" type="line"/>
      <point x="243" y="536" type="line"/>
      <point x="313" y="536" type="line"/>
      <point x="313" y="650" type="line"/>
      <point x="39" y="650" type="line"/>
      <point x="39" y="536" type="line"/>
      <point x="109" y="536" type="line"/>
      <point x="109" y="114" type="line"/>
      <point x="39" y="114" type="line"/>
      <point x="39" y="0" type="line"/>
    </contour>
    <contour>
      <point x="111" y="705" type="line"/>
      <point x="240" y="705" type="line"/>
      <point x="240" y="839" type="line"/>
      <point x="111" y="839" type="line"/>
    </contour>
  </outline>
</glyph>
<glyph name="IJ" format="1">
  <advance width="838"/>
  <unicode hex="0132"/>
  <outline>
    <contour>
      <point x="313" y="0" type="line"/>
      <point x="313" y="114" type="line"/>
      <point x="243" y="114" type="line"/>
      <point x="243" y="536" type="line"/>
      <point x="313" y="536" type="line"/>
      <point x="313" y="650" type="line"/>
      <point x="39" y="650" type="line"/>
      <point x="39" y="536" type="line"/>
      <point x="109" y="536" type="line"/>
      <point x="109" y="114" type="line"/>
      <point x="39" y="114" type="line"/>
      <point x="39" y="0" type="line"/>
    </contour>
    <contour>
      <point x="809" y="536" type="line"/>
      <point x="809" y="650" type="line"/>
      <point x="501" y="650" type="line"/>
      <point x="501" y="536" type="line"/>
      <point x="615" y="536" type="line"/>
      <point x="615" y="184" type="line" smooth="yes"/>
      <point x="615" y="144"/>
      <point x="593" y="114"/>
      <point x="539" y="114" type="curve" smooth="yes"/>
      <point x="507" y="114"/>
      <point x="474" y="125"/>
      <point x="451" y="184" type="curve"/>
      <point x="357" y="113" type="line"/>
      <point x="385" y="47"/>
      <point x="441" y="-10"/>
      <point x="552" y="-10" type="curve" smooth="yes"/>
      <point x="670" y="-10"/>
      <point x="749" y="54"/>
      <point x="749" y="185" type="curve" smooth="yes"/>
      <point x="749" y="536" type="line"/>
    </contour>
  </outline>
</glyph>
<glyph name="lacute" format="1">
  <advance width="285"/>
  <unicode hex="013A"/>
  <outline>
    <contour>
      <point x="237" y="744" type="line"/>
      <point x="208" y="861" type="line"/>
      <point x="6" y="773" type="line"/>
      <point x="22" y="716" type="line"/>
    </contour>
    <contour>
      <point x="267" y="0" type="line"/>
      <point x="267" y="97" type="line"/>
      <point x="207" y="97" type="line"/>
      <point x="207" y="688" type="line"/>
      <point x="13" y="688" type="line"/>
      <point x="13" y="590" type="line"/>
      <point x="78" y="590" type="line"/>
      <point x="78" y="97" type="line"/>
      <point x="18" y="97" type="line"/>
      <point x="18" y="0" type="line"/>
    </contour>
  </outline>
</glyph>
<glyph name="Lcaron" format="1">
  <advance width="558"/>
  <unicode hex="013D"/>
  <outline>
    <contour>
      <point x="502" y="682" type="line"/>
      <point x="381" y="682" type="line"/>
      <point x="368" y="458" type="line"/>
      <point x="466" y="458" type="line"/>
    </contour>
    <contour>
      <point x="526" y="0" type="line"/>
      <point x="546" y="230" type="line"/>
      <point x="432" y="240" type="line"/>
      <point x="412" y="114" type="line"/>
      <point x="242" y="114" type="line"/>
      <point x="242" y="536" type="line"/>
      <point x="333" y="536" type="line"/>
      <point x="333" y="650" type="line"/>
      <point x="38" y="650" type="line"/>
      <point x="38" y="536" type="line"/>
      <point x="108" y="536" type="line"/>
      <point x="108" y="114" type="line"/>
      <point x="38" y="114" type="line"/>
      <point x="38" y="0" type="line"/>
    </contour>
  </outline>
</glyph>
<glyph name="lslash" format="1">
  <advance width="293"/>
  <unicode hex="0142"/>
  <outline>
    <contour>
      <point x="8" y="225" type="line"/>
      <point x="83" y="259" type="line"/>
      <point x="83" y="97" type="line"/>
      <point x="23" y="97" type="line"/>
      <point x="23" y="0" type="line"/>
      <point x="272" y="0" type="line"/>
      <point x="272" y="97" type="line"/>
      <point x="212" y="97" type="line"/>
      <point x="212" y="318" type="line"/>
      <point x="281" y="350" type="line"/>
      <point x="281" y="450" type="line"/>
      <point x="212" y="418" type="line"/>
      <point x="212" y="688" type="line"/>
      <point x="18" y="688" type="line"/>
      <point x="18" y="590" type="line"/>
      <point x="83" y="590" type="line"/>
      <point x="83" y="359" type="line"/>
      <point x="8" y="325" type="line"/>
    </contour>
  </outline>
</glyph>
<glyph name="Ncommaaccent" format="1">
  <advance width="760"/>
  <unicode hex="0145"/>
  <outline>
    <contour>
      <point x="462" y="-58" type="line"/>
      <point x="341" y="-58" type="line"/>
      <point x="338" y="-213" type="line"/>
      <point x="436" y="-213" type="line"/>
    </contour>
    <contour>
      <point x="733" y="536" type="line"/>
      <point x="733" y="650" type="line"/>
      <point x="444" y="650" type="line"/>
      <point x="444" y="536" type="line"/>
      <point x="538" y="536" type="line"/>
      <point x="538" y="264" type="line"/>
      <point x="534" y="264" type="line"/>
      <point x="206" y="650" type="line"/>
      <point x="29" y="650" type="line"/>
      <point x="29" y="536" type="line"/>
      <point x="110" y="536" type="line"/>
      <point x="110" y="114" type="line"/>
      <point x="40" y="114" type="line"/>
      <point x="40" y="0" type="line"/>
      <point x="325" y="0" type="line"/>
      <point x="325" y="114" type="line"/>
      <point x="235" y="114" type="line"/>
      <point x="235" y="412" type="line"/>
      <point x="239" y="412" type="line"/>
      <point x="588" y="-1" type="line"/>
      <point x="663" y="0" type="line"/>
      <point x="663" y="536" type="line"/>
    </contour>
  </outline>
</glyph>
<glyph name="ncommaaccent" format="1">
  <advance width="593"/>
  <unicode hex="0146"/>
  <outline>
    <contour>
      <point x="365" y="-58" type="line"/>
      <point x="244" y="-58" type="line"/>
      <point x="241" y="-213" type="line"/>
      <point x="339" y="-213" type="line"/>
    </contour>
    <contour>
      <point x="581" y="0" type="line"/>
      <point x="581" y="97" type="line"/>
      <point x="521" y="97" type="line"/>
      <point x="521" y="304" type="line" smooth="yes"/>
      <point x="521" y="411"/>
      <point x="448" y="460"/>
      <point x="363" y="460" type="curve" smooth="yes"/>
      <point x="297" y="460"/>
      <point x="246" y="431"/>
      <point x="218" y="382" type="curve"/>
      <point x="218" y="451" type="line"/>
      <point x="24" y="451" type="line"/>
      <point x="24" y="353" type="line"/>
      <point x="89" y="353" type="line"/>
      <point x="89" y="97" type="line"/>
      <point x="29" y="97" type="line"/>
      <point x="29" y="0" type="line"/>
      <point x="278" y="0" type="line"/>
      <point x="278" y="97" type="line"/>
      <point x="218" y="97" type="line"/>
      <point x="218" y="259" type="line"/>
      <point x="219" y="320"/>
      <point x="254" y="362"/>
      <point x="315" y="362" type="curve" smooth="yes"/>
      <point x="366" y="362"/>
      <point x="392" y="332"/>
      <point x="392" y="254" type="curve" smooth="yes"/>
      <point x="392" y="97" type="line"/>
      <point x="332" y="97" type="line"/>
      <point x="332" y="0" type="line"/>
    </contour>
  </outline>
</glyph>
<glyph name="eng" format="1">
  <advance width="569"/>
  <unicode hex="014B"/>
  <outline>
    <contour>
      <point x="29" y="98" type="line"/>
      <point x="89" y="98" type="line"/>
      <point x="89" y="353" type="line"/>
      <point x="24" y="353" type="line"/>
      <point x="24" y="451" type="line"/>
      <point x="218" y="451" type="line"/>
      <point x="218" y="382" type="line"/>
      <point x="246" y="431"/>
      <point x="297" y="460"/>
      <point x="363" y="460" type="curve" smooth="yes"/>
      <point x="448" y="460"/>
      <point x="521" y="411"/>
      <point x="521" y="304" type="curve" smooth="yes"/>
      <point x="521" y="16" type="line" smooth="yes"/>
      <point x="521" y="-154"/>
      <point x="471" y="-239"/>
      <point x="296" y="-222" type="curve"/>
      <point x="292" y="-137" type="line"/>
      <point x="345" y="-137"/>
      <point x="390" y="-128"/>
      <point x="392" y="5" type="curve"/>
      <point x="392" y="254" type="line" smooth="yes"/>
      <point x="392" y="332"/>
      <point x="366" y="362"/>
      <point x="315" y="362" type="curve" smooth="yes"/>
      <point x="254" y="362"/>
      <point x="219" y="320"/>
      <point x="218" y="259" type="curve"/>
      <point x="218" y="98" type="line"/>
      <point x="278" y="98" type="line"/>
      <point x="278" y="0" type="line"/>
      <point x="29" y="0" type="line"/>
    </contour>
  </outline>
</glyph>
<glyph name="Omacron" format="1">
  <advance width="711"/>
  <unicode hex="014C"/>
  <outline>
    <contour>
      <point x="523" y="721" type="line"/>
      <point x="523" y="819" type="line"/>
      <point x="215" y="819" type="line"/>
      <point x="215" y="721" type="line"/>
    </contour>
    <contour>
      <point x="688" y="326" type="curve" smooth="yes"/>
      <point x="688" y="509"/>
      <point x="565" y="660"/>
      <point x="357" y="660" type="curve" smooth="yes"/>
      <point x="153" y="660"/>
      <point x="24" y="514"/>
      <point x="24" y="324" type="curve" smooth="yes"/>
      <point x="24" y="143"/>
      <point x="141" y="-10"/>
      <point x="353" y="-10" type="curve" smooth="yes"/>
      <point x="564" y="-10"/>
      <point x="688" y="142"/>
    </contour>
    <contour>
      <point x="543" y="322" type="curve" smooth="yes"/>
      <point x="543" y="195"/>
      <point x="487" y="108"/>
      <point x="360" y="108" type="curve" smooth="yes"/>
      <point x="223" y="108"/>
      <point x="169" y="209"/>
      <point x="169" y="327" type="curve" smooth="yes"/>
      <point x="169" y="450"/>
      <point x="227" y="542"/>
      <point x="356" y="542" type="curve" smooth="yes"/>
      <point x="477" y="542"/>
      <point x="543" y="460"/>
    </contour>
  </outline>
</glyph>
<glyph name="Obreve" format="1">
  <advance width="711"/>
  <unicode hex="014E"/>
  <outline>
    <contour>
      <point x="508" y="833" type="curve"/>
      <point x="406" y="833" type="line"/>
      <point x="406" y="801"/>
      <point x="396" y="772"/>
      <point x="368" y="772" type="curve" smooth="yes"/>
      <point x="342" y="772"/>
      <point x="331" y="797"/>
      <point x="331" y="833" type="curve"/>
      <point x="229" y="833" type="line"/>
      <point x="229" y="741"/>
      <point x="280" y="695"/>
      <point x="368" y="695" type="curve" smooth="yes"/>
      <point x="453" y="695"/>
      <point x="508" y="738"/>
    </contour>
    <contour>
      <point x="688" y="326" type="curve" smooth="yes"/>
      <point x="688" y="509"/>
      <point x="565" y="660"/>
      <point x="357" y="660" type="curve" smooth="yes"/>
      <point x="153" y="660"/>
      <point x="24" y="514"/>
      <point x="24" y="324" type="curve" smooth="yes"/>
      <point x="24" y="143"/>
      <point x="141" y="-10"/>
      <point x="353" y="-10" type="curve" smooth="yes"/>
      <point x="564" y="-10"/>
      <point x="688" y="142"/>
    </contour>
    <contour>
      <point x="543" y="322" type="curve" smooth="yes"/>
      <point x="543" y="195"/>
      <point x="487" y="108"/>
      <point x="360" y="108" type="curve" smooth="yes"/>
      <point x="223" y="108"/>
      <point x="169" y="209"/>
      <point x="169" y="327" type="curve" smooth="yes"/>
      <point x="169" y="450"/>
      <point x="227" y="542"/>
      <point x="356" y="542" type="curve" smooth="yes"/>
      <point x="477" y="542"/>
      <point x="543" y="460"/>
    </contour>
  </outline>
</glyph>
<glyph name="Rcaron" format="1">
  <advance width="637"/>
  <unicode hex="0158"/>
  <outline>
    <contour>
      <point x="462" y="791" type="line"/>
      <point x="433" y="844" type="line"/>
      <point x="311" y="784" type="line"/>
      <point x="174" y="844" type="line"/>
      <point x="146" y="792" type="line"/>
      <point x="282" y="685" type="line"/>
      <point x="327" y="685" type="line"/>
    </contour>
    <contour>
      <point x="626" y="0" type="line"/>
      <point x="626" y="114" type="line"/>
      <point x="548" y="114" type="line"/>
      <point x="460" y="276" type="line"/>
      <point x="534" y="305"/>
      <point x="584" y="365"/>
      <point x="584" y="453" type="curve" smooth="yes"/>
      <point x="584" y="584"/>
      <point x="494" y="650"/>
      <point x="333" y="650" type="curve" smooth="yes"/>
      <point x="39" y="650" type="line"/>
      <point x="39" y="536" type="line"/>
      <point x="109" y="536" type="line"/>
      <point x="109" y="114" type="line"/>
      <point x="39" y="114" type="line"/>
      <point x="39" y="0" type="line"/>
      <point x="313" y="0" type="line"/>
      <point x="313" y="114" type="line"/>
      <point x="243" y="114" type="line"/>
      <point x="243" y="248" type="line"/>
      <point x="331" y="248" type="line"/>
      <point x="460" y="0" type="line"/>
    </contour>
    <contour>
      <point x="440" y="450" type="curve" smooth="yes"/>
      <point x="440" y="388"/>
      <point x="409" y="354"/>
      <point x="307" y="354" type="curve" smooth="yes"/>
      <point x="243" y="354" type="line"/>
      <point x="243" y="536" type="line"/>
      <point x="309" y="536" type="line" smooth="yes"/>
      <point x="407" y="536"/>
      <point x="440" y="515"/>
    </contour>
  </outline>
</glyph>
<glyph name="scedilla" format="1">
  <advance width="459"/>
  <unicode hex="015F"/>
  <outline>
    <contour>
      <point x="374" y="-121" type="curve" smooth="yes"/>
      <point x="374" y="-82"/>
      <point x="352" y="-41"/>
      <point x="285" y="-41" type="curve" smooth="yes"/>
      <point x="277" y="-41" type="line"/>
      <point x="277" y="-6" type="line"/>
      <point x="372" y="6"/>
      <point x="435" y="53"/>
      <point x="435" y="138" type="curve" smooth="yes"/>
      <point x="435" y="312"/>
      <point x="172" y="246"/>
      <point x="172" y="324" type="curve" smooth="yes"/>
      <point x="172" y="354"/>
      <point x="199" y="367"/>
      <point x="232" y="367" type="curve" smooth="yes"/>
      <point x="253" y="367"/>
      <point x="279" y="364"/>
      <point x="303" y="356" type="curve"/>
      <point x="311" y="293" type="line"/>
      <point x="411" y="304" type="line"/>
      <point x="400" y="419" type="line"/>
      <point x="344" y="448"/>
      <point x="291" y="460"/>
      <point x="231" y="460" type="curve" smooth="yes"/>
      <point x="139" y="460"/>
      <point x="33" y="431"/>
      <point x="33" y="320" type="curve" smooth="yes"/>
      <point x="33" y="141"/>
      <point x="305" y="209"/>
      <point x="305" y="132" type="curve" smooth="yes"/>
      <point x="305" y="100"/>
      <point x="263" y="84"/>
      <point x="214" y="84" type="curve" smooth="yes"/>
      <point x="200" y="84"/>
      <point x="170" y="85"/>
      <point x="146" y="93" type="curve"/>
      <point x="146" y="149" type="line"/>
      <point x="46" y="160" type="line"/>
      <point x="28" y="34" type="line"/>
      <point x="78" y="8"/>
      <point x="134" y="-5"/>
      <point x="189" y="-9" type="curve"/>
      <point x="189" y="-86" type="line"/>
      <point x="226" y="-86" type="line" smooth="yes"/>
      <point x="258" y="-86"/>
      <point x="265" y="-97"/>
      <point x="265" y="-111" type="curve" smooth="yes"/>
      <point x="265" y="-125"/>
      <point x="257" y="-132"/>
      <point x="229" y="-132" type="curve" smooth="yes"/>
      <point x="192" y="-132"/>
      <point x="166" y="-119"/>
      <point x="151" y="-109" type="curve"/>
      <point x="128" y="-179" type="line"/>
      <point x="150" y="-197"/>
      <point x="195" y="-209"/>
      <point x="244" y="-209" type="curve" smooth="yes"/>
      <point x="308" y="-209"/>
      <point x="374" y="-188"/>
    </contour>
  </outline>
</glyph>
<glyph name="tcommaaccent" format="1">
  <advance width="398"/>
  <unicode hex="0163"/>
  <outline>
    <contour>
      <point x="406" y="140" type="curve"/>
      <point x="312" y="169" type="line"/>
      <point x="304" y="102"/>
      <point x="269" y="98"/>
      <point x="253" y="98" type="curve" smooth="yes"/>
      <point x="221" y="98"/>
      <point x="199" y="114"/>
      <point x="199" y="157" type="curve" smooth="yes"/>
      <point x="199" y="359" type="line"/>
      <point x="361" y="359" type="line"/>
      <point x="361" y="451" type="line"/>
      <point x="199" y="451" type="line"/>
      <point x="199" y="588" type="line"/>
      <point x="70" y="588" type="line"/>
      <point x="70" y="451" type="line"/>
      <point x="6" y="451" type="line"/>
      <point x="6" y="359" type="line"/>
      <point x="70" y="359" type="line"/>
      <point x="70" y="135" type="line" smooth="yes"/>
      <point x="70" y="42"/>
      <point x="138" y="-10"/>
      <point x="238" y="-10" type="curve" smooth="yes"/>
      <point x="332" y="-10"/>
      <point x="393" y="36"/>
    </contour>
    <contour>
      <point x="301" y="-58" type="line"/>
      <point x="180" y="-58" type="line"/>
      <point x="177" y="-213" type="line"/>
      <point x="275" y="-213" type="line"/>
    </contour>
  </outline>
</glyph>
<glyph name="Tcaron" format="1">
  <advance width="651"/>
  <unicode hex="0164"/>
  <outline>
    <contour>
      <point x="480" y="791" type="line"/>
      <point x="451" y="844" type="line"/>
      <point x="329" y="784" type="line"/>
      <point x="192" y="844" type="line"/>
      <point x="164" y="792" type="line"/>
      <point x="300" y="685" type="line"/>
      <point x="345" y="685" type="line"/>
    </contour>
    <contour>
      <point x="629" y="430" type="line"/>
      <point x="609" y="650" type="line"/>
      <point x="41" y="650" type="line"/>
      <point x="21" y="430" type="line"/>
      <point x="135" y="420" type="line"/>
      <point x="155" y="536" type="line"/>
      <point x="258" y="536" type="line"/>
      <point x="258" y="114" type="line"/>
      <point x="158" y="114" type="line"/>
      <point x="158" y="0" type="line"/>
      <point x="498" y="0" type="line"/>
      <point x="498" y="114" type="line"/>
      <point x="392" y="114" type="line"/>
      <point x="392" y="536" type="line"/>
      <point x="495" y="536" type="line"/>
      <point x="515" y="420" type="line"/>
    </contour>
  </outline>
</glyph>
<glyph name="tcaron" format="1">
  <advance width="398"/>
  <unicode hex="0165"/>
  <outline>
    <contour>
      <point x="394" y="761" type="line"/>
      <point x="273" y="761" type="line"/>
      <point x="260" y="537" type="line"/>
      <point x="358" y="537" type="line"/>
    </contour>
    <contour>
      <point x="406" y="140" type="curve"/>
      <point x="312" y="169" type="line"/>
      <point x="304" y="102"/>
      <point x="269" y="98"/>
      <point x="253" y="98" type="curve" smooth="yes"/>
      <point x="221" y="98"/>
      <point x="199" y="114"/>
      <point x="199" y="157" type="curve" smooth="yes"/>
      <point x="199" y="359" type="line"/>
      <point x="361" y="359" type="line"/>
      <point x="361" y="451" type="line"/>
      <point x="199" y="451" type="line"/>
      <point x="199" y="588" type="line"/>
      <point x="70" y="588" type="line"/>
      <point x="70" y="451" type="line"/>
      <point x="6" y="451" type="line"/>
      <point x="6" y="359" type="line"/>
      <point x="70" y="359" type="line"/>
      <point x="70" y="135" type="line" smooth="yes"/>
      <point x="70" y="42"/>
      <point x="138" y="-10"/>
      <point x="238" y="-10" type="curve" smooth="yes"/>
      <point x="332" y="-10"/>
      <point x="393" y="36"/>
    </contour>
  </outline>
</glyph>
<glyph name="Tbar" format="1">
  <advance width="648"/>
  <unicode hex="0166"/>
  <outline>
    <contour>
      <point x="628" y="430" type="line"/>
      <point x="608" y="650" type="line"/>
      <point x="40" y="650" type="line"/>
      <point x="20" y="430" type="line"/>
      <point x="134" y="420" type="line"/>
      <point x="154" y="536" type="line"/>
      <point x="257" y="536" type="line"/>
      <point x="257" y="346" type="line"/>
      <point x="133" y="346" type="line"/>
      <point x="133" y="269" type="line"/>
      <point x="257" y="269" type="line"/>
      <point x="257" y="114" type="line"/>
      <point x="157" y="114" type="line"/>
      <point x="157" y="0" type="line"/>
      <point x="497" y="0" type="line"/>
      <point x="497" y="114" type="line"/>
      <point x="391" y="114" type="line"/>
      <point x="391" y="269" type="line"/>
      <point x="513" y="269" type="line"/>
      <point x="513" y="346" type="line"/>
      <point x="391" y="346" type="line"/>
      <point x="391" y="536" type="line"/>
      <point x="494" y="536" type="line"/>
      <point x="514" y="420" type="line"/>
    </contour>
  </outline>
</glyph>
<glyph name="utilde" format="1">
  <advance width="585"/>
  <unicode hex="0169"/>
  <outline>
    <contour>
      <point x="571" y="0" type="line"/>
      <point x="571" y="97" type="line"/>
      <point x="506" y="97" type="line"/>
      <point x="506" y="451" type="line"/>
      <point x="304" y="451" type="line"/>
      <point x="304" y="354" type="line"/>
      <point x="377" y="354" type="line"/>
      <point x="377" y="196" type="line" smooth="yes"/>
      <point x="377" y="133"/>
      <point x="342" y="89"/>
      <point x="280" y="89" type="curve" smooth="yes"/>
      <point x="229" y="89"/>
      <point x="203" y="119"/>
      <point x="203" y="197" type="curve" smooth="yes"/>
      <point x="203" y="451" type="line"/>
      <point x="14" y="451" type="line"/>
      <point x="14" y="354" type="line"/>
      <point x="74" y="354" type="line"/>
      <point x="74" y="147" type="line" smooth="yes"/>
      <point x="74" y="40"/>
      <point x="147" y="-9"/>
      <point x="232" y="-9" type="curve" smooth="yes"/>
      <point x="298" y="-9"/>
      <point x="348" y="19"/>
      <point x="377" y="69" type="curve"/>
      <point x="377" y="0" type="line"/>
    </contour>
    <contour>
      <point x="433" y="647" type="curve"/>
      <point x="379" y="658" type="line"/>
      <point x="370" y="629"/>
      <point x="351" y="617"/>
      <point x="332" y="617" type="curve" smooth="yes"/>
      <point x="298" y="617"/>
      <point x="260" y="655"/>
      <point x="215" y="655" type="curve" smooth="yes"/>
      <point x="149" y="655"/>
      <point x="127" y="569"/>
      <point x="130" y="531" type="curve"/>
      <point x="180" y="515" type="line"/>
      <point x="188" y="544"/>
      <point x="202" y="558"/>
      <point x="225" y="558" type="curve" smooth="yes"/>
      <point x="265" y="558"/>
      <point x="299" y="517"/>
      <point x="350" y="517" type="curve" smooth="yes"/>
      <point x="416" y="517"/>
      <point x="433" y="589"/>
    </contour>
  </outline>
</glyph>
<glyph name="Ubreve" format="1">
  <advance width="719"/>
  <unicode hex="016C"/>
  <outline>
    <contour>
      <point x="502" y="833" type="curve"/>
      <point x="400" y="833" type="line"/>
      <point x="400" y="801"/>
      <point x="390" y="772"/>
      <point x="362" y="772" type="curve" smooth="yes"/>
      <point x="336" y="772"/>
      <point x="325" y="797"/>
      <point x="325" y="833" type="curve"/>
      <point x="223" y="833" type="line"/>
      <point x="223" y="741"/>
      <point x="274" y="695"/>
      <point x="362" y="695" type="curve" smooth="yes"/>
      <point x="447" y="695"/>
      <point x="502" y="738"/>
    </contour>
    <contour>
      <point x="692" y="536" type="line"/>
      <point x="692" y="650" type="line"/>
      <point x="433" y="650" type="line"/>
      <point x="433" y="536" type="line"/>
      <point x="509" y="536" type="line"/>
      <point x="509" y="269" type="line" smooth="yes"/>
      <point x="509" y="172"/>
      <point x="465" y="108"/>
      <point x="363" y="108" type="curve" smooth="yes"/>
      <point x="259" y="108"/>
      <point x="220" y="173"/>
      <point x="220" y="262" type="curve" smooth="yes"/>
      <point x="220" y="536" type="line"/>
      <point x="296" y="536" type="line"/>
      <point x="296" y="650" type="line"/>
      <point x="28" y="650" type="line"/>
      <point x="28" y="536" type="line"/>
      <point x="86" y="536" type="line"/>
      <point x="86" y="258" type="line" smooth="yes"/>
      <point x="86" y="118"/>
      <point x="158" y="-10"/>
      <point x="356" y="-10" type="curve" smooth="yes"/>
      <point x="564" y="-10"/>
      <point x="634" y="131"/>
      <point x="634" y="269" type="curve" smooth="yes"/>
      <point x="634" y="536" type="line"/>
    </contour>
  </outline>
</glyph>
<glyph name="Uhungarumlaut" format="1">
  <advance width="719"/>
  <unicode hex="0170"/>
  <outline>
    <contour>
      <point x="692" y="536" type="line"/>
      <point x="692" y="650" type="line"/>
      <point x="433" y="650" type="line"/>
      <point x="433" y="536" type="line"/>
      <point x="509" y="536" type="line"/>
      <point x="509" y="269" type="line" smooth="yes"/>
      <point x="509" y="172"/>
      <point x="465" y="108"/>
      <point x="363" y="108" type="curve" smooth="yes"/>
      <point x="259" y="108"/>
      <point x="220" y="173"/>
      <point x="220" y="262" type="curve" smooth="yes"/>
      <point x="220" y="536" type="line"/>
      <point x="296" y="536" type="line"/>
      <point x="296" y="650" type="line"/>
      <point x="28" y="650" type="line"/>
      <point x="28" y="536" type="line"/>
      <point x="86" y="536" type="line"/>
      <point x="86" y="258" type="line" smooth="yes"/>
      <point x="86" y="118"/>
      <point x="158" y="-10"/>
      <point x="356" y="-10" type="curve" smooth="yes"/>
      <point x="564" y="-10"/>
      <point x="634" y="131"/>
      <point x="634" y="269" type="curve" smooth="yes"/>
      <point x="634" y="536" type="line"/>
    </contour>
    <contour>
      <point x="597" y="716" type="line"/>
      <point x="568" y="833" type="line"/>
      <point x="366" y="745" type="line"/>
      <point x="382" y="688" type="line"/>
    </contour>
    <contour>
      <point x="443" y="821" type="line"/>
      <point x="359" y="906" type="line"/>
      <point x="230" y="727" type="line"/>
      <point x="273" y="687" type="line"/>
    </contour>
  </outline>
</glyph>
<glyph name="Uogonek" format="1">
  <advance width="719"/>
  <unicode hex="0172"/>
  <outline>
    <contour>
      <point x="692" y="536" type="line"/>
      <point x="692" y="650" type="line"/>
      <point x="433" y="650" type="line"/>
      <point x="433" y="536" type="line"/>
      <point x="509" y="536" type="line"/>
      <point x="509" y="269" type="line" smooth="yes"/>
      <point x="509" y="172"/>
      <point x="465" y="108"/>
      <point x="363" y="108" type="curve" smooth="yes"/>
      <point x="259" y="108"/>
      <point x="220" y="173"/>
      <point x="220" y="262" type="curve" smooth="yes"/>
      <point x="220" y="536" type="line"/>
      <point x="296" y="536" type="line"/>
      <point x="296" y="650" type="line"/>
      <point x="28" y="650" type="line"/>
      <point x="28" y="536" type="line"/>
      <point x="86" y="536" type="line"/>
      <point x="86" y="258" type="line" smooth="yes"/>
      <point x="86" y="121"/>
      <point x="155" y="-5"/>
      <point x="344" y="-10" type="curve"/>
      <point x="310" y="-35"/>
      <point x="286" y="-72"/>
      <point x="286" y="-117" type="curve" smooth="yes"/>
      <point x="286" y="-181"/>
      <point x="339" y="-208"/>
      <point x="404" y="-208" type="curve" smooth="yes"/>
      <point x="442" y="-208"/>
      <point x="471" y="-199"/>
      <point x="494" y="-188" type="curve"/>
      <point x="485" y="-106" type="line"/>
      <point x="472" y="-114"/>
      <point x="454" y="-118"/>
      <point x="439" y="-118" type="curve" smooth="yes"/>
      <point x="415" y="-118"/>
      <point x="396" y="-109"/>
      <point x="396" y="-74" type="curve" smooth="yes"/>
      <point x="396" y="-53"/>
      <point x="403" y="-26"/>
      <point x="437" y="-1" type="curve"/>
      <point x="582" y="30"/>
      <point x="634" y="151"/>
      <point x="634" y="269" type="curve" smooth="yes"/>
      <point x="634" y="536" type="line"/>
    </contour>
  </outline>
</glyph>
<glyph name="Ycircumflex" format="1">
  <advance width="646"/>
  <unicode hex="0176"/>
  <outline>
    <contour>
      <point x="636" y="536" type="line"/>
      <point x="636" y="650" type="line"/>
      <point x="380" y="650" type="line"/>
      <point x="380" y="536" type="line"/>
      <point x="442" y="536" type="line"/>
      <point x="334" y="372" type="line"/>
      <point x="328" y="372" type="line"/>
      <point x="219" y="536" type="line"/>
      <point x="273" y="536" type="line"/>
      <point x="273" y="650" type="line"/>
      <point x="4" y="650" type="line"/>
      <point x="4" y="536" type="line"/>
      <point x="62" y="536" type="line"/>
      <point x="257" y="255" type="line"/>
      <point x="257" y="114" type="line"/>
      <point x="157" y="114" type="line"/>
      <point x="157" y="0" type="line"/>
      <point x="497" y="0" type="line"/>
      <point x="497" y="114" type="line"/>
      <point x="391" y="114" type="line"/>
      <point x="391" y="254" type="line"/>
      <point x="580" y="536" type="line"/>
    </contour>
    <contour>
      <point x="487" y="737" type="line"/>
      <point x="351" y="844" type="line"/>
      <point x="306" y="844" type="line"/>
      <point x="171" y="738" type="line"/>
      <point x="200" y="685" type="line"/>
      <point x="324" y="745" type="line"/>
      <point x="459" y="685" type="line"/>
    </contour>
  </outline>
</glyph>
<glyph name="Zcaron" format="1">
  <advance width="589"/>
  <unicode hex="017D"/>
  <outline>
    <contour>
      <point x="458" y="791" type="line"/>
      <point x="429" y="844" type="line"/>
      <point x="307" y="784" type="line"/>
      <point x="170" y="844" type="line"/>
      <point x="142" y="792" type="line"/>
      <point x="278" y="685" type="line"/>
      <point x="323" y="685" type="line"/>
    </contour>
    <contour>
      <point x="550" y="0" type="line"/>
      <point x="570" y="224" type="line"/>
      <point x="456" y="234" type="line"/>
      <point x="436" y="114" type="line"/>
      <point x="214" y="114" type="line"/>
      <point x="214" y="116" type="line"/>
      <point x="549" y="589" type="line"/>
      <point x="547" y="650" type="line"/>
      <point x="61" y="650" type="line"/>
      <point x="41" y="445" type="line"/>
      <point x="155" y="435" type="line"/>
      <point x="175" y="536" type="line"/>
      <point x="351" y="536" type="line"/>
      <point x="351" y="535" type="line"/>
      <point x="21" y="69" type="line"/>
      <point x="24" y="0" type="line"/>
    </contour>
  </outline>
</glyph>
<glyph name="zcaron" format="1">
  <advance width="477"/>
  <unicode hex="017E"/>
  <outline>
    <contour>
      <point x="403" y="633" type="line"/>
      <point x="368" y="684" type="line"/>
      <point x="256" y="616" type="line"/>
      <point x="121" y="683" type="line"/>
      <point x="87" y="634" type="line"/>
      <point x="223" y="507" type="line"/>
      <point x="268" y="507" type="line"/>
    </contour>
    <contour>
      <point x="430" y="0" type="line"/>
      <point x="458" y="158" type="line"/>
      <point x="356" y="168" type="line"/>
      <point x="335" y="97" type="line"/>
      <point x="190" y="97" type="line"/>
      <point x="439" y="383" type="line"/>
      <point x="429" y="451" type="line"/>
      <point x="33" y="451" type="line"/>
      <point x="17" y="293" type="line"/>
      <point x="110" y="285" type="line"/>
      <point x="130" y="354" type="line"/>
      <point x="265" y="354" type="line"/>
      <point x="23" y="68" type="line"/>
      <point x="36" y="0" type="line"/>
    </contour>
  </outline>
</glyph>
<glyph name="florin" format="1">
  <advance width="365"/>
  <unicode hex="0192"/>
  <outline>
    <contour>
      <point x="32" y="289" type="line"/>
      <point x="97" y="289" type="line"/>
      <point x="103" y="381" type="line" smooth="yes"/>
      <point x="109" y="478"/>
      <point x="185" y="529"/>
      <point x="282" y="529" type="curve" smooth="yes"/>
      <point x="298" y="529"/>
      <point x="327" y="528"/>
      <point x="348" y="525" type="curve"/>
      <point x="348" y="439" type="line"/>
      <point x="323" y="442"/>
      <point x="301" y="445"/>
      <point x="285" y="445" type="curve" smooth="yes"/>
      <point x="231" y="445"/>
      <point x="232" y="417"/>
      <point x="230" y="379" type="curve" smooth="yes"/>
      <point x="225" y="289" type="line"/>
      <point x="322" y="289" type="line"/>
      <point x="322" y="214" type="line"/>
      <point x="221" y="214" type="line"/>
      <point x="210" y="18" type="line" smooth="yes"/>
      <point x="206" y="-45"/>
      <point x="166" y="-112"/>
      <point x="44" y="-112" type="curve" smooth="yes"/>
      <point x="31" y="-112"/>
      <point x="21" y="-111"/>
      <point x="-1" y="-108" type="curve"/>
      <point x="-1" y="-24" type="line"/>
      <point x="19" y="-28"/>
      <point x="21" y="-28"/>
      <point x="33" y="-28" type="curve" smooth="yes"/>
      <point x="63" y="-28"/>
      <point x="79" y="-25"/>
      <point x="83" y="44" type="curve" smooth="yes"/>
      <point x="93" y="214" type="line"/>
      <point x="32" y="214" type="line"/>
    </contour>
  </outline>
</glyph>
<glyph name="uni01C5" format="1">
  <advance width="1175"/>
  <unicode hex="01C5"/>
  <outline>
    <contour>
      <point x="673" y="328" type="curve" smooth="yes"/>
      <point x="673" y="520"/>
      <point x="560" y="650"/>
      <point x="337" y="650" type="curve" smooth="yes"/>
      <point x="39" y="650" type="line"/>
      <point x="39" y="536" type="line"/>
      <point x="109" y="536" type="line"/>
      <point x="109" y="114" type="line"/>
      <point x="39" y="114" type="line"/>
      <point x="39" y="0" type="line"/>
      <point x="345" y="0" type="line" smooth="yes"/>
      <point x="550" y="0"/>
      <point x="673" y="130"/>
    </contour>
    <contour>
      <point x="529" y="326" type="curve" smooth="yes"/>
      <point x="529" y="177"/>
      <point x="459" y="114"/>
      <point x="334" y="114" type="curve" smooth="yes"/>
      <point x="243" y="114" type="line"/>
      <point x="243" y="536" type="line"/>
      <point x="334" y="536" type="line" smooth="yes"/>
      <point x="461" y="536"/>
      <point x="529" y="469"/>
    </contour>
    <contour>
      <point x="1101" y="633" type="line"/>
      <point x="1066" y="684" type="line"/>
      <point x="954" y="616" type="line"/>
      <point x="819" y="683" type="line"/>
      <point x="785" y="634" type="line"/>
      <point x="921" y="507" type="line"/>
      <point x="966" y="507" type="line"/>
    </contour>
    <contour>
      <point x="1128" y="0" type="line"/>
      <point x="1156" y="158" type="line"/>
      <point x="1054" y="168" type="line"/>
      <point x="1033" y="97" type="line"/>
      <point x="888" y="97" type="line"/>
      <point x="1137" y="383" type="line"/>
      <point x="1127" y="451" type="line"/>
      <point x="731" y="451" type="line"/>
      <point x="715" y="293" type="line"/>
      <point x="808" y="285" type="line"/>
      <point x="828" y="354" type="line"/>
      <point x="963" y="354" type="line"/>
      <point x="721" y="68" type="line"/>
      <point x="734" y="0" type="line"/>
    </contour>
  </outline>
</glyph>
<glyph name="uni01C8" format="1">
  <advance width="812"/>
  <unicode hex="01C8"/>
  <outline>
    <contour>
      <point x="527" y="0" type="line"/>
      <point x="547" y="230" type="line"/>
      <point x="433" y="240" type="line"/>
      <point x="413" y="114" type="line"/>
      <point x="243" y="114" type="line"/>
      <point x="243" y="536" type="line"/>
      <point x="334" y="536" type="line"/>
      <point x="334" y="650" type="line"/>
      <point x="39" y="650" type="line"/>
      <point x="39" y="536" type="line"/>
      <point x="109" y="536" type="line"/>
      <point x="109" y="114" type="line"/>
      <point x="39" y="114" type="line"/>
      <point x="39" y="0" type="line"/>
    </contour>
    <contour>
      <point x="758" y="16" type="curve" smooth="yes"/>
      <point x="758" y="451" type="line"/>
      <point x="559" y="451" type="line"/>
      <point x="559" y="353" type="line"/>
      <point x="629" y="353" type="line"/>
      <point x="629" y="16" type="line" smooth="yes"/>
      <point x="629" y="-128"/>
      <point x="584" y="-137"/>
      <point x="529" y="-137" type="curve"/>
      <point x="533" y="-222" type="line"/>
      <point x="708" y="-239"/>
      <point x="758" y="-154"/>
    </contour>
    <contour>
      <point x="629" y="531" type="line"/>
      <point x="758" y="531" type="line"/>
      <point x="758" y="665" type="line"/>
      <point x="629" y="665" type="line"/>
    </contour>
  </outline>
</glyph>
<glyph name="uni01F1" format="1">
  <advance width="1282"/>
  <unicode hex="01F1"/>
  <outline>
    <contour>
      <point x="673" y="328" type="curve" smooth="yes"/>
      <point x="673" y="520"/>
      <point x="560" y="650"/>
      <point x="337" y="650" type="curve" smooth="yes"/>
      <point x="39" y="650" type="line"/>
      <point x="39" y="536" type="line"/>
      <point x="109" y="536" type="line"/>
      <point x="109" y="114" type="line"/>
      <point x="39" y="114" type="line"/>
      <point x="39" y="0" type="line"/>
      <point x="345" y="0" type="line" smooth="yes"/>
      <point x="550" y="0"/>
      <point x="673" y="130"/>
    </contour>
    <contour>
      <point x="529" y="326" type="curve" smooth="yes"/>
      <point x="529" y="177"/>
      <point x="459" y="114"/>
      <point x="334" y="114" type="curve" smooth="yes"/>
      <point x="243" y="114" type="line"/>
      <point x="243" y="536" type="line"/>
      <point x="334" y="536" type="line" smooth="yes"/>
      <point x="461" y="536"/>
      <point x="529" y="469"/>
    </contour>
    <contour>
      <point x="1243" y="0" type="line"/>
      <point x="1263" y="224" type="line"/>
      <point x="1149" y="234" type="line"/>
      <point x="1129" y="114" type="line"/>
      <point x="907" y="114" type="line"/>
      <point x="907" y="116" type="line"/>
      <point x="1242" y="589" type="line"/>
      <point x="1240" y="650" type="line"/>
      <point x="754" y="650" type="line"/>
      <point x="734" y="445" type="line"/>
      <point x="848" y="435" type="line"/>
      <point x="868" y="536" type="line"/>
      <point x="1044" y="536" type="line"/>
      <point x="1044" y="535" type="line"/>
      <point x="714" y="69" type="line"/>
      <point x="717" y="0" type="line"/>
    </contour>
  </outline>
</glyph>
<glyph name="ymacron" format="1">
  <advance width="529"/>
  <unicode hex="0233"/>
  <outline>
    <contour>
      <point x="523" y="354" type="line"/>
      <point x="523" y="451" type="line"/>
      <point x="317" y="451" type="line"/>
      <point x="317" y="354" type="line"/>
      <point x="356" y="354" type="line"/>
      <point x="288" y="146" type="line"/>
      <point x="282" y="146" type="line"/>
      <point x="190" y="354" type="line"/>
      <point x="235" y="354" type="line"/>
      <point x="235" y="451" type="line"/>
      <point x="5" y="451" type="line"/>
      <point x="5" y="354" type="line"/>
      <point x="51" y="354" type="line"/>
      <point x="209" y="-7" type="line"/>
      <point x="173" y="-113" type="line"/>
      <point x="101" y="-113" type="line"/>
      <point x="101" y="-213" type="line"/>
      <point x="350" y="-213" type="line"/>
      <point x="350" y="-113" type="line"/>
      <point x="291" y="-113" type="line"/>
      <point x="334" y="0" type="line"/>
      <point x="479" y="354" type="line"/>
    </contour>
    <contour>
      <point x="410" y="536" type="line"/>
      <point x="410" y="634" type="line"/>
      <point x="142" y="634" type="line"/>
      <point x="142" y="536" type="line"/>
    </contour>
  </outline>
</glyph>
<glyph name="schwa" format="1">
  <advance width="482"/>
  <unicode hex="0259"/>
  <outline>
    <contour>
      <point x="20" y="308" type="curve"/>
      <point x="128" y="288" type="line"/>
      <point x="133" y="315"/>
      <point x="152" y="358"/>
      <point x="221" y="358" type="curve" smooth="yes"/>
      <point x="286" y="358"/>
      <point x="320" y="321"/>
      <point x="327" y="251" type="curve"/>
      <point x="31" y="251" type="line"/>
      <point x="26" y="228"/>
      <point x="24" y="206"/>
      <point x="24" y="186" type="curve" smooth="yes"/>
      <point x="26" y="69"/>
      <point x="111" y="-10"/>
      <point x="236" y="-10" type="curve" smooth="yes"/>
      <point x="379" y="-10"/>
      <point x="462" y="94"/>
      <point x="462" y="233" type="curve" smooth="yes"/>
      <point x="462" y="384"/>
      <point x="364" y="460"/>
      <point x="230" y="460" type="curve" smooth="yes"/>
      <point x="100" y="460"/>
      <point x="26" y="388"/>
    </contour>
    <contour>
      <point x="157" y="176" type="curve"/>
      <point x="326" y="176" type="line"/>
      <point x="318" y="120"/>
      <point x="289" y="82"/>
      <point x="236" y="82" type="curve" smooth="yes"/>
      <point x="175" y="82"/>
      <point x="151" y="131"/>
    </contour>
  </outline>
</glyph>
<glyph name="circumflex" format="1">
  <advance width="338"/>
  <unicode hex="02C6"/>
  <outline>
    <contour>
      <point x="361" y="557" type="line"/>
      <point x="225" y="684" type="line"/>
      <point x="180" y="684" type="line"/>
      <point x="45" y="558" type="line"/>
      <point x="80" y="507" type="line"/>
      <point x="192" y="575" type="line"/>
      <point x="327" y="508" type="line"/>
    </contour>
  </outline>
</glyph>
<glyph name="ogonek" format="1">
  <advance width="280"/>
  <unicode hex="02DB"/>
  <outline>
    <contour>
      <point x="239" y="-188" type="curve"/>
      <point x="230" y="-106" type="line"/>
      <point x="217" y="-114"/>
      <point x="199" y="-118"/>
      <point x="184" y="-118" type="curve" smooth="yes"/>
      <point x="160" y="-118"/>
      <point x="141" y="-109"/>
      <point x="141" y="-74" type="curve" smooth="yes"/>
      <point x="141" y="-50"/>
      <point x="150" y="-19"/>
      <point x="198" y="8" type="curve"/>
      <point x="128" y="12" type="line"/>
      <point x="76" y="-10"/>
      <point x="31" y="-57"/>
      <point x="31" y="-117" type="curve" smooth="yes"/>
      <point x="31" y="-181"/>
      <point x="84" y="-208"/>
      <point x="149" y="-208" type="curve" smooth="yes"/>
      <point x="187" y="-208"/>
      <point x="216" y="-199"/>
    </contour>
  </outline>
</glyph>
<glyph name="uni0394" format="1">
  <advance width="477"/>
  <unicode hex="0394"/>
  <outline>
    <contour>
      <point x="-8" y="0" type="line"/>
      <point x="483" y="0" type="line"/>
      <point x="243" y="661" type="line"/>
    </contour>
    <contour>
      <point x="135" y="98" type="line"/>
      <point x="240" y="394" type="line"/>
      <point x="340" y="98" type="line"/>
    </contour>
  </outline>
</glyph>
<glyph name="pi" format="1">
  <advance width="599"/>
  <unicode hex="03C0"/>
  <outline>
    <contour>
      <point x="30" y="98" type="line"/>
      <point x="90" y="98" type="line"/>
      <point x="90" y="353" type="line"/>
      <point x="25" y="353" type="line"/>
      <point x="25" y="451" type="line"/>
      <point x="576" y="451" type="line"/>
      <point x="576" y="353" type="line"/>
      <point x="509" y="353" type="line"/>
      <point x="509" y="98" type="line"/>
      <point x="569" y="98" type="line"/>
      <point x="569" y="0" type="line"/>
      <point x="320" y="0" type="line"/>
      <point x="320" y="98" type="line"/>
      <point x="380" y="98" type="line"/>
      <point x="380" y="353" type="line"/>
      <point x="219" y="353" type="line"/>
      <point x="219" y="98" type="line"/>
      <point x="279" y="98" type="line"/>
      <point x="279" y="0" type="line"/>
      <point x="30" y="0" type="line"/>
    </contour>
  </outline>
</glyph>
<glyph name="uni1E46" format="1">
  <advance width="760"/>
  <unicode hex="1E46"/>
  <outline>
    <contour>
      <point x="733" y="536" type="line"/>
      <point x="733" y="650" type="line"/>
      <point x="444" y="650" type="line"/>
      <point x="444" y="536" type="line"/>
      <point x="538" y="536" type="line"/>
      <point x="538" y="264" type="line"/>
      <point x="534" y="264" type="line"/>
      <point x="206" y="650" type="line"/>
      <point x="29" y="650" type="line"/>
      <point x="29" y="536" type="line"/>
      <point x="110" y="536" type="line"/>
      <point x="110" y="114" type="line"/>
      <point x="40" y="114" type="line"/>
      <point x="40" y="0" type="line"/>
      <point x="325" y="0" type="line"/>
      <point x="325" y="114" type="line"/>
      <point x="235" y="114" type="line"/>
      <point x="235" y="412" type="line"/>
      <point x="239" y="412" type="line"/>
      <point x="588" y="-1" type="line"/>
      <point x="663" y="0" type="line"/>
      <point x="663" y="536" type="line"/>
    </contour>
    <contour>
      <point x="328" y="-196" type="line"/>
      <point x="457" y="-196" type="line"/>
      <point x="457" y="-62" type="line"/>
      <point x="328" y="-62" type="line"/>
    </contour>
  </outline>
</glyph>
<glyph name="Wgrave" format="1">
  <advance width="988"/>
  <unicode hex="1E80"/>
  <outline>
    <contour>
      <point x="605" y="745" type="line"/>
      <point x="403" y="833" type="line"/>
      <point x="374" y="716" type="line"/>
      <point x="589" y="688" type="line"/>
    </contour>
    <contour>
      <point x="977" y="536" type="line"/>
      <point x="977" y="650" type="line"/>
      <point x="721" y="650" type="line"/>
      <point x="721" y="536" type="line"/>
      <point x="791" y="536" type="line"/>
      <point x="705" y="216" type="line"/>
      <point x="699" y="216" type="line"/>
      <point x="584" y="536" type="line"/>
      <point x="630" y="536" type="line"/>
      <point x="630" y="650" type="line"/>
      <point x="371" y="650" type="line"/>
      <point x="371" y="536" type="line"/>
      <point x="422" y="536" type="line"/>
      <point x="306" y="222" type="line"/>
      <point x="300" y="222" type="line"/>
      <point x="203" y="536" type="line"/>
      <point x="263" y="536" type="line"/>
      <point x="263" y="650" type="line"/>
      <point x="4" y="650" type="line"/>
      <point x="4" y="536" type="line"/>
      <point x="60" y="536" type="line"/>
      <point x="250" y="0" type="line"/>
      <point x="347" y="0" type="line"/>
      <point x="493" y="420" type="line"/>
      <point x="498" y="420" type="line"/>
      <point x="651" y="0" type="line"/>
      <point x="746" y="0" type="line"/>
      <point x="925" y="536" type="line"/>
    </contour>
  </outline>
</glyph>
<glyph name="Ygrave" format="1">
  <advance width="646"/>
  <unicode hex="1EF2"/>
  <outline>
    <contour>
      <point x="636" y="536" type="line"/>
      <point x="636" y="650" type="line"/>
      <point x="380" y="650" type="line"/>
      <point x="380" y="536" type="line"/>
      <point x="442" y="536" type="line"/>
      <point x="334" y="372" type="line"/>
      <point x="328" y="372" type="line"/>
      <point x="219" y="536" type="line"/>
      <point x="273" y="536" type="line"/>
      <point x="273" y="650" type="line"/>
      <point x="4" y="650" type="line"/>
      <point x="4" y="536" type="line"/>
      <point x="62" y="536" type="line"/>
      <point x="257" y="255" type="line"/>
      <point x="257" y="114" type="line"/>
      <point x="157" y="114" type="line"/>
      <point x="157" y="0" type="line"/>
      <point x="497" y="0" type="line"/>
      <point x="497" y="114" type="line"/>
      <point x="391" y="114" type="line"/>
      <point x="391" y="254" type="line"/>
      <point x="580" y="536" type="line"/>
    </contour>
    <contour>
      <point x="398" y="745" type="line"/>
      <point x="196" y="833" type="line"/>
      <point x="167" y="716" type="line"/>
      <point x="382" y="688" type="line"/>
    </contour>
  </outline>
</glyph>
<glyph name="endash" format="1">
  <advance width="590"/>
  <unicode hex="2013"/>
  <outline>
    <contour>
      <point x="44" y="278" type="line"/>
      <point x="546" y="278" type="line"/>
      <point x="546" y="193" type="line"/>
      <point x="44" y="193" type="line"/>
    </contour>
  </outline>
</glyph>
<glyph name="emdash" format="1">
  <advance width="1028"/>
  <unicode hex="2014"/>
  <outline>
    <contour>
      <point x="44" y="278" type="line"/>
      <point x="984" y="278" type="line"/>
      <point x="984" y="193" type="line"/>
      <point x="44" y="193" type="line"/>
    </contour>
  </outline>
</glyph>
<glyph name="quoteright" format="1">
  <advance width="222"/>
  <unicode hex="2019"/>
  <outline>
    <contour>
      <point x="23" y="496" type="line"/>
      <point x="149" y="496" type="line"/>
      <point x="209" y="730" type="line"/>
      <point x="83" y="730" type="line"/>
    </contour>
  </outline>
</glyph>
<glyph name="quotedblright" format="1">
  <advance width="395"/>
  <unicode hex="201D"/>
  <outline>
    <contour>
      <point x="13" y="436" type="line"/>
      <point x="139" y="436" type="line"/>
      <point x="199" y="670" type="line"/>
      <point x="73" y="670" type="line"/>
    </contour>
    <contour>
      <point x="189" y="436" type="line"/>
      <point x="315" y="436" type="line"/>
      <point x="375" y="670" type="line"/>
      <point x="249" y="670" type="line"/>
    </contour>
  </outline>
</glyph>
<glyph name="quotedblbase" format="1">
  <advance width="400"/>
  <unicode hex="201E"/>
  <outline>
    <contour>
      <point x="3" y="-85" type="line"/>
      <point x="129" y="-85" type="line"/>
      <point x="189" y="149" type="line"/>
      <point x="63" y="149" type="line"/>
    </contour>
    <contour>
      <point x="181" y="-85" type="line"/>
      <point x="307" y="-85" type="line"/>
      <point x="367" y="149" type="line"/>
      <point x="241" y="149" type="line"/>
    </contour>
  </outline>
</glyph>
<glyph name="dagger" format="1">
  <advance width="460"/>
  <unicode hex="2020"/>
  <outline>
    <contour>
      <point x="25" y="440" type="line"/>
      <point x="175" y="440" type="line"/>
      <point x="175" y="650" type="line"/>
      <point x="285" y="650" type="line"/>
      <point x="285" y="440" type="line"/>
      <point x="435" y="440" type="line"/>
      <point x="435" y="331" type="line"/>
      <point x="285" y="331" type="line"/>
      <point x="285" y="-141" type="line"/>
      <point x="175" y="-141" type="line"/>
      <point x="175" y="331" type="line"/>
      <point x="25" y="331" type="line"/>
    </contour>
  </outline>
</glyph>
<glyph name="daggerdbl" format="1">
  <advance width="482"/>
  <unicode hex="2021"/>
  <outline>
    <contour>
      <point x="36" y="160" type="line"/>
      <point x="186" y="160" type="line"/>
      <point x="186" y="331" type="line"/>
      <point x="36" y="331" type="line"/>
      <point x="36" y="440" type="line"/>
      <point x="186" y="440" type="line"/>
      <point x="186" y="650" type="line"/>
      <point x="296" y="650" type="line"/>
      <point x="296" y="440" type="line"/>
      <point x="446" y="440" type="line"/>
      <point x="446" y="331" type="line"/>
      <point x="296" y="331" type="line"/>
      <point x="296" y="160" type="line"/>
      <point x="446" y="160" type="line"/>
      <point x="446" y="51" type="line"/>
      <point x="296" y="51" type="line"/>
      <point x="296" y="-141" type="line"/>
      <point x="186" y="-141" type="line"/>
      <point x="186" y="51" type="line"/>
      <point x="36" y="51" type="line"/>
    </contour>
  </outline>
</glyph>
<glyph name="bullet" format="1">
  <advance width="351"/>
  <unicode hex="2022"/>
  <outline>
    <contour>
      <point x="50" y="242" type="curve" smooth="yes"/>
      <point x="50" y="172"/>
      <point x="105" y="117"/>
      <point x="175" y="117" type="curve" smooth="yes"/>
      <point x="246" y="117"/>
      <point x="302" y="172"/>
      <point x="302" y="242" type="curve" smooth="yes"/>
      <point x="302" y="313"/>
      <point x="246" y="369"/>
      <point x="175" y="369" type="curve" smooth="yes"/>
      <point x="105" y="369"/>
      <point x="50" y="313"/>
    </contour>
  </outline>
</glyph>
<glyph name="uni203D" format="1">
  <advance width="732"/>
  <unicode hex="203D"/>
  <outline>
    <contour>
      <point x="313" y="243" type="line"/>
      <point x="160" y="634" type="line"/>
      <point x="21" y="567" type="line"/>
      <point x="228" y="203" type="line"/>
    </contour>
    <contour>
      <point x="253" y="0" type="line"/>
      <point x="404" y="0" type="line"/>
      <point x="404" y="145" type="line"/>
      <point x="253" y="145" type="line"/>
    </contour>
    <contour>
      <point x="379" y="464" type="line"/>
      <point x="409" y="541" type="line"/>
      <point x="421" y="545"/>
      <point x="437" y="547"/>
      <point x="449" y="547" type="curve" smooth="yes"/>
      <point x="482" y="547"/>
      <point x="552" y="533"/>
      <point x="552" y="479" type="curve" smooth="yes"/>
      <point x="552" y="386"/>
      <point x="348" y="389"/>
      <point x="335" y="248" type="curve"/>
      <point x="418" y="217" type="line"/>
      <point x="458" y="340"/>
      <point x="704" y="319"/>
      <point x="704" y="492" type="curve" smooth="yes"/>
      <point x="704" y="613"/>
      <point x="583" y="654"/>
      <point x="455" y="654" type="curve" smooth="yes"/>
      <point x="409" y="654"/>
      <point x="361" y="649"/>
      <point x="322" y="638" type="curve"/>
      <point x="283" y="490" type="line"/>
    </contour>
  </outline>
</glyph>
<glyph name="i.superior" format="1">
  <advance width="221"/>
  <unicode hex="2071"/>
  <outline>
    <contour>
      <point x="29" y="483" type="line"/>
      <point x="65" y="483" type="line"/>
      <point x="65" y="640" type="line"/>
      <point x="25" y="640" type="line"/>
      <point x="25" y="709" type="line"/>
      <point x="165" y="709" type="line"/>
      <point x="165" y="483" type="line"/>
      <point x="201" y="483" type="line"/>
      <point x="201" y="415" type="line"/>
      <point x="29" y="415" type="line"/>
    </contour>
    <contour>
      <point x="65" y="760" type="line"/>
      <point x="165" y="760" type="line"/>
      <point x="165" y="855" type="line"/>
      <point x="65" y="855" type="line"/>
    </contour>
  </outline>
</glyph>
<glyph name="sevensuperior" format="1">
  <advance width="321"/>
  <unicode hex="2077"/>
  <outline>
    <contour>
      <point x="20" y="779" type="line"/>
      <point x="20" y="644" type="line"/>
      <point x="107" y="644" type="line"/>
      <point x="107" y="705" type="line"/>
      <point x="205" y="705" type="line"/>
      <point x="83" y="414" type="line"/>
      <point x="182" y="414" type="line"/>
      <point x="314" y="739" type="line"/>
      <point x="303" y="779" type="line"/>
    </contour>
  </outline>
</glyph>
<glyph name="minussuperior" format="1">
  <advance width="304"/>
  <unicode hex="207B"/>
  <outline>
    <contour>
      <point x="36" y="567" type="line"/>
      <point x="268" y="567" type="line"/>
      <point x="268" y="628" type="line"/>
      <point x="36" y="628" type="line"/>
    </contour>
  </outline>
</glyph>
<glyph name="equalsuperior" format="1">
  <advance width="359"/>
  <unicode hex="207C"/>
  <outline>
    <contour>
      <point x="36" y="628" type="line"/>
      <point x="322" y="628" type="line"/>
      <point x="322" y="690" type="line"/>
      <point x="36" y="690" type="line"/>
    </contour>
    <contour>
      <point x="36" y="504" type="line"/>
      <point x="322" y="504" type="line"/>
      <point x="322" y="565" type="line"/>
      <point x="36" y="565" type="line"/>
    </contour>
  </outline>
</glyph>
<glyph name="parenrightsuperior" format="1">
  <advance width="227"/>
  <unicode hex="207E"/>
  <outline>
    <contour>
      <point x="100" y="313" type="curve"/>
      <point x="16" y="313" type="line"/>
      <point x="82" y="391"/>
      <point x="116" y="476"/>
      <point x="116" y="564" type="curve" smooth="yes"/>
      <point x="116" y="651"/>
      <point x="83" y="740"/>
      <point x="16" y="817" type="curve"/>
      <point x="101" y="817" type="line"/>
      <point x="168" y="735"/>
      <point x="197" y="649"/>
      <point x="197" y="564" type="curve" smooth="yes"/>
      <point x="197" y="478"/>
      <point x="166" y="392"/>
    </contour>
  </outline>
</glyph>
<glyph name="n.superior" format="1">
  <advance width="420"/>
  <unicode hex="207F"/>
  <outline>
    <contour>
      <point x="229" y="483" type="line"/>
      <point x="265" y="483" type="line"/>
      <point x="265" y="579" type="line" smooth="yes"/>
      <point x="265" y="627"/>
      <point x="252" y="646"/>
      <point x="220" y="646" type="curve" smooth="yes"/>
      <point x="183" y="646"/>
      <point x="164" y="620"/>
      <point x="164" y="579" type="curve" smooth="yes"/>
      <point x="164" y="483" type="line"/>
      <point x="200" y="483" type="line"/>
      <point x="200" y="415" type="line"/>
      <point x="28" y="415" type="line"/>
      <point x="28" y="483" type="line"/>
      <point x="64" y="483" type="line"/>
      <point x="64" y="640" type="line"/>
      <point x="24" y="640" type="line"/>
      <point x="24" y="709" type="line"/>
      <point x="164" y="709" type="line"/>
      <point x="164" y="665" type="line"/>
      <point x="182" y="697"/>
      <point x="215" y="715"/>
      <point x="258" y="715" type="curve" smooth="yes"/>
      <point x="315" y="715"/>
      <point x="366" y="683"/>
      <point x="366" y="615" type="curve" smooth="yes"/>
      <point x="366" y="483" type="line"/>
      <point x="402" y="483" type="line"/>
      <point x="402" y="415" type="line"/>
      <point x="229" y="415" type="line"/>
    </contour>
  </outline>
</glyph>
<glyph name="zeroinferior" format="1">
  <advance width="391"/>
  <unicode hex="2080"/>
  <outline>
    <contour>
      <point x="26" y="177" type="curve" smooth="yes"/>
      <point x="26" y="270"/>
      <point x="64" y="370"/>
      <point x="196" y="370" type="curve" smooth="yes"/>
      <point x="329" y="370"/>
      <point x="365" y="267"/>
      <point x="365" y="181" type="curve" smooth="yes"/>
      <point x="365" y="78"/>
      <point x="315" y="-6"/>
      <point x="192" y="-6" type="curve" smooth="yes"/>
      <point x="70" y="-6"/>
      <point x="26" y="78"/>
    </contour>
    <contour>
      <point x="135" y="185" type="curve" smooth="yes"/>
      <point x="135" y="125"/>
      <point x="145" y="72"/>
      <point x="193" y="72" type="curve" smooth="yes"/>
      <point x="239" y="72"/>
      <point x="256" y="118"/>
      <point x="256" y="184" type="curve" smooth="yes"/>
      <point x="256" y="249"/>
      <point x="241" y="292"/>
      <point x="195" y="292" type="curve" smooth="yes"/>
      <point x="147" y="292"/>
      <point x="135" y="245"/>
    </contour>
  </outline>
</glyph>
<glyph name="threeinferior" format="1">
  <advance width="350"/>
  <unicode hex="2083"/>
  <outline>
    <contour>
      <point x="112" y="243" type="line"/>
      <point x="121" y="284" type="line"/>
      <point x="136" y="292"/>
      <point x="149" y="294"/>
      <point x="163" y="294" type="curve"/>
      <point x="190" y="294"/>
      <point x="203" y="283"/>
      <point x="203" y="260" type="curve" smooth="yes"/>
      <point x="203" y="222"/>
      <point x="170" y="219"/>
      <point x="136" y="217" type="curve"/>
      <point x="136" y="161" type="line"/>
      <point x="179" y="159"/>
      <point x="215" y="150"/>
      <point x="215" y="116" type="curve" smooth="yes"/>
      <point x="215" y="92"/>
      <point x="197" y="72"/>
      <point x="161" y="72" type="curve" smooth="yes"/>
      <point x="128" y="72"/>
      <point x="112" y="88"/>
      <point x="102" y="117" type="curve"/>
      <point x="29" y="92" type="line"/>
      <point x="43" y="20"/>
      <point x="96" y="-7"/>
      <point x="166" y="-7" type="curve" smooth="yes"/>
      <point x="259" y="-7"/>
      <point x="324" y="33"/>
      <point x="324" y="102" type="curve" smooth="yes"/>
      <point x="324" y="143"/>
      <point x="303" y="180"/>
      <point x="251" y="193" type="curve"/>
      <point x="251" y="195" type="line"/>
      <point x="292" y="214"/>
      <point x="312" y="242"/>
      <point x="312" y="276" type="curve" smooth="yes"/>
      <point x="312" y="328"/>
      <point x="266" y="369"/>
      <point x="180" y="369" type="curve" smooth="yes"/>
      <point x="139" y="369"/>
      <point x="84" y="360"/>
      <point x="48" y="344" type="curve"/>
      <point x="35" y="249" type="line"/>
    </contour>
  </outline>
</glyph>
<glyph name="sixinferior" format="1">
  <advance width="348"/>
  <unicode hex="2086"/>
  <outline>
    <contour>
      <point x="197" y="295" type="curve" smooth="yes"/>
      <point x="221" y="295"/>
      <point x="236" y="288"/>
      <point x="255" y="266" type="curve"/>
      <point x="309" y="323" type="line"/>
      <point x="279" y="354"/>
      <point x="239" y="370"/>
      <point x="190" y="370" type="curve" smooth="yes"/>
      <point x="73" y="370"/>
      <point x="26" y="278"/>
      <point x="26" y="174" type="curve" smooth="yes"/>
      <point x="26" y="69"/>
      <point x="73" y="-6"/>
      <point x="174" y="-6" type="curve" smooth="yes"/>
      <point x="259" y="-6"/>
      <point x="321" y="46"/>
      <point x="321" y="124" type="curve" smooth="yes"/>
      <point x="321" y="176"/>
      <point x="294" y="239"/>
      <point x="213" y="239" type="curve" smooth="yes"/>
      <point x="172" y="239"/>
      <point x="148" y="223"/>
      <point x="135" y="203" type="curve"/>
      <point x="140" y="280"/>
      <point x="162" y="295"/>
    </contour>
    <contour>
      <point x="178" y="168" type="curve" smooth="yes"/>
      <point x="208" y="168"/>
      <point x="218" y="149"/>
      <point x="218" y="120" type="curve" smooth="yes"/>
      <point x="218" y="89"/>
      <point x="206" y="72"/>
      <point x="177" y="72" type="curve" smooth="yes"/>
      <point x="150" y="72"/>
      <point x="138" y="87"/>
      <point x="135" y="128" type="curve"/>
      <point x="137" y="155"/>
      <point x="153" y="168"/>
    </contour>
  </outline>
</glyph>
<glyph name="eightinferior" format="1">
  <advance width="351"/>
  <unicode hex="2088"/>
  <outline>
    <contour>
      <point x="171" y="-6" type="curve" smooth="yes"/>
      <point x="260" y="-6"/>
      <point x="326" y="30"/>
      <point x="326" y="101" type="curve" smooth="yes"/>
      <point x="326" y="153"/>
      <point x="290" y="182"/>
      <point x="251" y="203" type="curve"/>
      <point x="284" y="219"/>
      <point x="312" y="239"/>
      <point x="312" y="279" type="curve" smooth="yes"/>
      <point x="312" y="334"/>
      <point x="258" y="370"/>
      <point x="176" y="370" type="curve" smooth="yes"/>
      <point x="90" y="370"/>
      <point x="34" y="330"/>
      <point x="34" y="268" type="curve" smooth="yes"/>
      <point x="34" y="223"/>
      <point x="63" y="196"/>
      <point x="99" y="176" type="curve"/>
      <point x="60" y="159"/>
      <point x="27" y="138"/>
      <point x="27" y="90" type="curve" smooth="yes"/>
      <point x="27" y="27"/>
      <point x="86" y="-6"/>
    </contour>
    <contour>
      <point x="143" y="275" type="curve" smooth="yes"/>
      <point x="143" y="287"/>
      <point x="151" y="299"/>
      <point x="176" y="299" type="curve" smooth="yes"/>
      <point x="190" y="299"/>
      <point x="211" y="295"/>
      <point x="211" y="264" type="curve" smooth="yes"/>
      <point x="211" y="249"/>
      <point x="206" y="237"/>
      <point x="198" y="228" type="curve"/>
      <point x="167" y="242"/>
      <point x="143" y="255"/>
    </contour>
    <contour>
      <point x="175" y="65" type="curve" smooth="yes"/>
      <point x="139" y="65"/>
      <point x="128" y="86"/>
      <point x="128" y="110" type="curve" smooth="yes"/>
      <point x="128" y="128"/>
      <point x="135" y="142"/>
      <point x="147" y="153" type="curve"/>
      <point x="184" y="136"/>
      <point x="217" y="121"/>
      <point x="217" y="94" type="curve" smooth="yes"/>
      <point x="217" y="81"/>
      <point x="207" y="65"/>
    </contour>
  </outline>
</glyph>
<glyph name="minus.inferior" format="1">
  <advance width="304"/>
  <unicode hex="208B"/>
  <outline>
    <contour>
      <point x="36" y="152" type="line"/>
      <point x="268" y="152" type="line"/>
      <point x="268" y="213" type="line"/>
      <point x="36" y="213" type="line"/>
    </contour>
  </outline>
</glyph>
<glyph name="equal.inferior" format="1">
  <advance width="359"/>
  <unicode hex="208C"/>
  <outline>
    <contour>
      <point x="36" y="213" type="line"/>
      <point x="322" y="213" type="line"/>
      <point x="322" y="275" type="line"/>
      <point x="36" y="275" type="line"/>
    </contour>
    <contour>
      <point x="36" y="89" type="line"/>
      <point x="322" y="89" type="line"/>
      <point x="322" y="150" type="line"/>
      <point x="36" y="150" type="line"/>
    </contour>
  </outline>
</glyph>
<glyph name="a.inferior" format="1">
  <advance width="361"/>
  <unicode hex="2090"/>
  <outline>
    <contour>
      <point x="167" y="238" type="curve" smooth="yes"/>
      <point x="218" y="238"/>
      <point x="214" y="201"/>
      <point x="214" y="171" type="curve" smooth="yes"/>
      <point x="214" y="165" type="line"/>
      <point x="199" y="166"/>
      <point x="182" y="167"/>
      <point x="166" y="167" type="curve" smooth="yes"/>
      <point x="94" y="167"/>
      <point x="20" y="150"/>
      <point x="20" y="78" type="curve" smooth="yes"/>
      <point x="20" y="17"/>
      <point x="73" y="-7"/>
      <point x="118" y="-7" type="curve" smooth="yes"/>
      <point x="167" y="-7"/>
      <point x="197" y="22"/>
      <point x="214" y="51" type="curve"/>
      <point x="219" y="15"/>
      <point x="242" y="-7"/>
      <point x="284" y="-7" type="curve" smooth="yes"/>
      <point x="305" y="-7"/>
      <point x="326" y="-1"/>
      <point x="344" y="8" type="curve"/>
      <point x="343" y="55" type="line"/>
      <point x="339" y="54"/>
      <point x="336" y="53"/>
      <point x="331" y="53" type="curve" smooth="yes"/>
      <point x="320" y="53"/>
      <point x="314" y="59"/>
      <point x="314" y="75" type="curve" smooth="yes"/>
      <point x="314" y="200" type="line" smooth="yes"/>
      <point x="314" y="263"/>
      <point x="264" y="300"/>
      <point x="178" y="300" type="curve" smooth="yes"/>
      <point x="131" y="300"/>
      <point x="92" y="289"/>
      <point x="50" y="270" type="curve"/>
      <point x="36" y="192" type="line"/>
      <point x="113" y="184" type="line"/>
      <point x="126" y="229" type="line"/>
      <point x="140" y="235"/>
      <point x="152" y="238"/>
    </contour>
    <contour>
      <point x="159" y="58" type="curve" smooth="yes"/>
      <point x="137" y="58"/>
      <point x="127" y="68"/>
      <point x="127" y="89" type="curve" smooth="yes"/>
      <point x="127" y="119"/>
      <point x="148" y="126"/>
      <point x="173" y="126" type="curve" smooth="yes"/>
      <point x="187" y="126"/>
      <point x="201" y="124"/>
      <point x="214" y="121" type="curve"/>
      <point x="211" y="76"/>
      <point x="188" y="58"/>
    </contour>
    <contour>
      <point x="105" y="368" type="move" name="top"/>
    </contour>
  </outline>
</glyph>
<glyph name="e.inferior" format="1">
  <advance width="345"/>
  <unicode hex="2091"/>
  <outline>
    <contour>
      <point x="187" y="68" type="curve" smooth="yes"/>
      <point x="233" y="68"/>
      <point x="241" y="93"/>
      <point x="242" y="108" type="curve"/>
      <point x="326" y="94" type="line"/>
      <point x="323" y="42"/>
      <point x="271" y="-7"/>
      <point x="180" y="-7" type="curve" smooth="yes"/>
      <point x="88" y="-7"/>
      <point x="19" y="42"/>
      <point x="19" y="141" type="curve" smooth="yes"/>
      <point x="19" y="231"/>
      <point x="76" y="300"/>
      <point x="175" y="300" type="curve" smooth="yes"/>
      <point x="276" y="300"/>
      <point x="343" y="229"/>
      <point x="318" y="128" type="curve"/>
      <point x="128" y="128" type="line"/>
      <point x="132" y="86"/>
      <point x="148" y="68"/>
    </contour>
    <contour>
      <point x="176" y="232" type="curve" smooth="yes"/>
      <point x="146" y="232"/>
      <point x="132" y="214"/>
      <point x="128" y="180" type="curve"/>
      <point x="220" y="180" type="line"/>
      <point x="225" y="207"/>
      <point x="212" y="232"/>
    </contour>
  </outline>
</glyph>
<glyph name="p.inferior" format="1">
  <advance width="407"/>
  <unicode hex="209A"/>
  <outline>
    <contour>
      <point x="21" y="-70" type="line"/>
      <point x="57" y="-70" type="line"/>
      <point x="57" y="225" type="line"/>
      <point x="17" y="225" type="line"/>
      <point x="17" y="294" type="line"/>
      <point x="157" y="294" type="line"/>
      <point x="157" y="241" type="line"/>
      <point x="173" y="273"/>
      <point x="204" y="300"/>
      <point x="257" y="300" type="curve" smooth="yes"/>
      <point x="334" y="300"/>
      <point x="387" y="245"/>
      <point x="387" y="154" type="curve" smooth="yes"/>
      <point x="387" y="66"/>
      <point x="338" y="-7"/>
      <point x="247" y="-7" type="curve" smooth="yes"/>
      <point x="204" y="-7"/>
      <point x="174" y="9"/>
      <point x="157" y="35" type="curve"/>
      <point x="157" y="-70" type="line"/>
      <point x="206" y="-70" type="line"/>
      <point x="206" y="-138" type="line"/>
      <point x="21" y="-138" type="line"/>
    </contour>
    <contour>
      <point x="219" y="68" type="curve" smooth="yes"/>
      <point x="248" y="68"/>
      <point x="279" y="86"/>
      <point x="279" y="147" type="curve" smooth="yes"/>
      <point x="279" y="199"/>
      <point x="256" y="225"/>
      <point x="223" y="225" type="curve" smooth="yes"/>
      <point x="184" y="225"/>
      <point x="159" y="189"/>
      <point x="157" y="147" type="curve" smooth="yes"/>
      <point x="157" y="141" type="line" smooth="yes"/>
      <point x="157" y="93"/>
      <point x="183" y="68"/>
    </contour>
    <contour>
      <point x="246" y="368" type="move" name="top"/>
    </contour>
  </outline>
</glyph>
<glyph name="lira" format="1">
  <advance width="576"/>
  <unicode hex="20A4"/>
  <outline>
    <contour>
      <point x="548" y="104" type="line"/>
      <point x="534" y="68"/>
      <point x="472" y="0"/>
      <point x="373" y="0" type="curve" smooth="yes"/>
      <point x="45" y="0" type="line"/>
      <point x="45" y="111" type="line"/>
      <point x="88" y="136"/>
      <point x="103" y="168"/>
      <point x="109" y="209" type="curve"/>
      <point x="40" y="209" type="line"/>
      <point x="40" y="287" type="line"/>
      <point x="112" y="287" type="line"/>
      <point x="112" y="339" type="line"/>
      <point x="40" y="339" type="line"/>
      <point x="40" y="417" type="line"/>
      <point x="112" y="417" type="line"/>
      <point x="112" y="578"/>
      <point x="206" y="660"/>
      <point x="331" y="660" type="curve" smooth="yes"/>
      <point x="385" y="660"/>
      <point x="463" y="645"/>
      <point x="507" y="602" type="curve"/>
      <point x="523" y="451" type="line"/>
      <point x="414" y="441" type="line"/>
      <point x="400" y="527" type="line"/>
      <point x="378" y="538"/>
      <point x="349" y="542"/>
      <point x="329" y="542" type="curve" smooth="yes"/>
      <point x="273" y="542"/>
      <point x="246" y="510"/>
      <point x="246" y="418" type="curve"/>
      <point x="246" y="417" type="line"/>
      <point x="427" y="417" type="line"/>
      <point x="427" y="339" type="line"/>
      <point x="246" y="339" type="line"/>
      <point x="246" y="287" type="line"/>
      <point x="427" y="287" type="line"/>
      <point x="427" y="209" type="line"/>
      <point x="241" y="209" type="line"/>
      <point x="235" y="173"/>
      <point x="218" y="140"/>
      <point x="177" y="114" type="curve"/>
      <point x="346" y="114" type="line" smooth="yes"/>
      <point x="417" y="114"/>
      <point x="456" y="135"/>
      <point x="489" y="173" type="curve"/>
    </contour>
  </outline>
</glyph>
<glyph name="pesetas" format="1">
  <advance width="1434"/>
  <unicode hex="20A7"/>
  <outline>
    <contour>
      <point x="583" y="438" type="curve" smooth="yes"/>
      <point x="583" y="568"/>
      <point x="497" y="650"/>
      <point x="336" y="650" type="curve" smooth="yes"/>
      <point x="38" y="650" type="line"/>
      <point x="38" y="536" type="line"/>
      <point x="108" y="536" type="line"/>
      <point x="108" y="114" type="line"/>
      <point x="38" y="114" type="line"/>
      <point x="38" y="0" type="line"/>
      <point x="342" y="0" type="line"/>
      <point x="342" y="114" type="line"/>
      <point x="242" y="114" type="line"/>
      <point x="242" y="218" type="line"/>
      <point x="342" y="218" type="line" smooth="yes"/>
      <point x="470" y="218"/>
      <point x="583" y="290"/>
    </contour>
    <contour>
      <point x="439" y="436" type="curve" smooth="yes"/>
      <point x="439" y="373"/>
      <point x="409" y="331"/>
      <point x="317" y="331" type="curve" smooth="yes"/>
      <point x="242" y="331" type="line"/>
      <point x="242" y="536" type="line"/>
      <point x="319" y="536" type="line" smooth="yes"/>
      <point x="408" y="536"/>
      <point x="439" y="500"/>
    </contour>
    <contour>
      <point x="1404" y="138" type="curve" smooth="yes"/>
      <point x="1404" y="312"/>
      <point x="1141" y="246"/>
      <point x="1141" y="324" type="curve" smooth="yes"/>
      <point x="1141" y="354"/>
      <point x="1168" y="367"/>
      <point x="1201" y="367" type="curve"/>
      <point x="1222" y="367"/>
      <point x="1248" y="364"/>
      <point x="1272" y="356" type="curve"/>
      <point x="1280" y="293" type="line"/>
      <point x="1380" y="304" type="line"/>
      <point x="1369" y="419" type="line"/>
      <point x="1313" y="448"/>
      <point x="1260" y="460"/>
      <point x="1200" y="460" type="curve" smooth="yes"/>
      <point x="1108" y="460"/>
      <point x="1002" y="431"/>
      <point x="1002" y="320" type="curve" smooth="yes"/>
      <point x="1002" y="141"/>
      <point x="1274" y="209"/>
      <point x="1274" y="132" type="curve" smooth="yes"/>
      <point x="1274" y="100"/>
      <point x="1232" y="84"/>
      <point x="1183" y="84" type="curve" smooth="yes"/>
      <point x="1169" y="84"/>
      <point x="1139" y="85"/>
      <point x="1115" y="93" type="curve"/>
      <point x="1115" y="149" type="line"/>
      <point x="1015" y="160" type="line"/>
      <point x="997" y="34" type="line"/>
      <point x="1057" y="3"/>
      <point x="1125" y="-10"/>
      <point x="1190" y="-10" type="curve" smooth="yes"/>
      <point x="1316" y="-10"/>
      <point x="1404" y="38"/>
    </contour>
    <contour>
      <point x="990" y="140" type="curve"/>
      <point x="896" y="169" type="line"/>
      <point x="888" y="102"/>
      <point x="853" y="98"/>
      <point x="837" y="98" type="curve" smooth="yes"/>
      <point x="805" y="98"/>
      <point x="783" y="114"/>
      <point x="783" y="157" type="curve" smooth="yes"/>
      <point x="783" y="359" type="line"/>
      <point x="945" y="359" type="line"/>
      <point x="945" y="451" type="line"/>
      <point x="783" y="451" type="line"/>
      <point x="783" y="588" type="line"/>
      <point x="654" y="588" type="line"/>
      <point x="654" y="451" type="line"/>
      <point x="590" y="451" type="line"/>
      <point x="590" y="359" type="line"/>
      <point x="654" y="359" type="line"/>
      <point x="654" y="135" type="line" smooth="yes"/>
      <point x="654" y="42"/>
      <point x="722" y="-10"/>
      <point x="822" y="-10" type="curve" smooth="yes"/>
      <point x="916" y="-10"/>
      <point x="977" y="36"/>
    </contour>
  </outline>
</glyph>
<glyph name="won" format="1">
  <advance width="1030"/>
  <unicode hex="20A9"/>
  <outline>
    <contour>
      <point x="1002" y="536" type="line"/>
      <point x="1002" y="650" type="line"/>
      <point x="746" y="650" type="line"/>
      <point x="746" y="536" type="line"/>
      <point x="816" y="536" type="line"/>
      <point x="803" y="489" type="line"/>
      <point x="626" y="489" type="line"/>
      <point x="609" y="536" type="line"/>
      <point x="655" y="536" type="line"/>
      <point x="655" y="650" type="line"/>
      <point x="396" y="650" type="line"/>
      <point x="396" y="536" type="line"/>
      <point x="447" y="536" type="line"/>
      <point x="429" y="489" type="line"/>
      <point x="242" y="489" type="line"/>
      <point x="228" y="536" type="line"/>
      <point x="288" y="536" type="line"/>
      <point x="288" y="650" type="line"/>
      <point x="29" y="650" type="line"/>
      <point x="29" y="536" type="line"/>
      <point x="85" y="536" type="line"/>
      <point x="101" y="489" type="line"/>
      <point x="49" y="489" type="line"/>
      <point x="49" y="401" type="line"/>
      <point x="132" y="401" type="line"/>
      <point x="147" y="359" type="line"/>
      <point x="49" y="359" type="line"/>
      <point x="49" y="271" type="line"/>
      <point x="179" y="271" type="line"/>
      <point x="275" y="0" type="line"/>
      <point x="372" y="0" type="line"/>
      <point x="466" y="271" type="line"/>
      <point x="577" y="271" type="line"/>
      <point x="676" y="0" type="line"/>
      <point x="771" y="0" type="line"/>
      <point x="861" y="271" type="line"/>
      <point x="983" y="271" type="line"/>
      <point x="983" y="359" type="line"/>
      <point x="891" y="359" type="line"/>
      <point x="905" y="401" type="line"/>
      <point x="983" y="401" type="line"/>
      <point x="983" y="489" type="line"/>
      <point x="934" y="489" type="line"/>
      <point x="950" y="536" type="line"/>
    </contour>
    <contour>
      <point x="269" y="401" type="line"/>
      <point x="397" y="401" type="line"/>
      <point x="381" y="359" type="line"/>
      <point x="282" y="359" type="line"/>
    </contour>
    <contour>
      <point x="657" y="401" type="line"/>
      <point x="780" y="401" type="line"/>
      <point x="768" y="359" type="line"/>
      <point x="672" y="359" type="line"/>
    </contour>
    <contour>
      <point x="511" y="401" type="line"/>
      <point x="530" y="401" type="line"/>
      <point x="545" y="359" type="line"/>
      <point x="496" y="359" type="line"/>
    </contour>
    <contour>
      <point x="724" y="216" type="line"/>
      <point x="704" y="271" type="line"/>
      <point x="745" y="271" type="line"/>
      <point x="730" y="216" type="line"/>
    </contour>
    <contour>
      <point x="325" y="222" type="line"/>
      <point x="310" y="271" type="line"/>
      <point x="349" y="271" type="line"/>
      <point x="331" y="222" type="line"/>
    </contour>
  </outline>
</glyph>
<glyph name="sheqel" format="1">
  <advance width="802"/>
  <unicode hex="20AA"/>
  <outline>
    <contour>
      <point x="71" y="0" type="line"/>
      <point x="204" y="0" type="line"/>
      <point x="204" y="541" type="line"/>
      <point x="322" y="541" type="line" smooth="yes"/>
      <point x="424" y="541"/>
      <point x="438" y="533"/>
      <point x="438" y="394" type="curve" smooth="yes"/>
      <point x="438" y="244" type="line"/>
      <point x="570" y="244" type="line"/>
      <point x="570" y="389" type="line" smooth="yes"/>
      <point x="570" y="595"/>
      <point x="520" y="650"/>
      <point x="324" y="650" type="curve" smooth="yes"/>
      <point x="71" y="650" type="line"/>
    </contour>
    <contour>
      <point x="386" y="109" type="line"/>
      <point x="386" y="406" type="line"/>
      <point x="254" y="406" type="line"/>
      <point x="254" y="0" type="line"/>
      <point x="523" y="0" type="line" smooth="yes"/>
      <point x="719" y="0"/>
      <point x="752" y="75"/>
      <point x="752" y="281" type="curve" smooth="yes"/>
      <point x="752" y="650" type="line"/>
      <point x="620" y="650" type="line"/>
      <point x="620" y="276" type="line" smooth="yes"/>
      <point x="620" y="179"/>
      <point x="620" y="109"/>
      <point x="524" y="109" type="curve" smooth="yes"/>
    </contour>
  </outline>
</glyph>
<glyph name="uni20AD" format="1">
  <advance width="697"/>
  <unicode hex="20AD"/>
  <outline>
    <contour>
      <point x="62" y="274" type="line"/>
      <point x="111" y="274" type="line"/>
      <point x="111" y="114" type="line"/>
      <point x="41" y="114" type="line"/>
      <point x="41" y="0" type="line"/>
      <point x="300" y="0" type="line"/>
      <point x="300" y="114" type="line"/>
      <point x="245" y="114" type="line"/>
      <point x="245" y="274" type="line"/>
      <point x="325" y="274" type="line"/>
      <point x="444" y="114" type="line"/>
      <point x="384" y="114" type="line"/>
      <point x="384" y="0" type="line"/>
      <point x="667" y="0" type="line"/>
      <point x="667" y="114" type="line"/>
      <point x="600" y="114" type="line"/>
      <point x="479" y="274" type="line"/>
      <point x="567" y="274" type="line"/>
      <point x="567" y="383" type="line"/>
      <point x="461" y="383" type="line"/>
      <point x="583" y="536" type="line"/>
      <point x="656" y="536" type="line"/>
      <point x="656" y="650" type="line"/>
      <point x="386" y="650" type="line"/>
      <point x="386" y="536" type="line"/>
      <point x="442" y="536" type="line"/>
      <point x="327" y="383" type="line"/>
      <point x="245" y="383" type="line"/>
      <point x="245" y="536" type="line"/>
      <point x="303" y="536" type="line"/>
      <point x="303" y="650" type="line"/>
      <point x="41" y="650" type="line"/>
      <point x="41" y="536" type="line"/>
      <point x="111" y="536" type="line"/>
      <point x="111" y="383" type="line"/>
      <point x="62" y="383" type="line"/>
    </contour>
  </outline>
</glyph>
<glyph name="uni20B9" format="1">
  <advance width="539"/>
  <unicode hex="20B9"/>
  <outline>
    <contour>
      <point x="40" y="287" type="line"/>
      <point x="209" y="287" type="line" smooth="yes"/>
      <point x="267" y="287"/>
      <point x="295" y="299"/>
      <point x="307" y="322" type="curve"/>
      <point x="40" y="322" type="line"/>
      <point x="40" y="394" type="line"/>
      <point x="308" y="394" type="line"/>
      <point x="297" y="413"/>
      <point x="274" y="421"/>
      <point x="229" y="423" type="curve"/>
      <point x="40" y="423" type="line"/>
      <point x="40" y="521" type="line"/>
      <point x="499" y="521" type="line"/>
      <point x="499" y="423" type="line"/>
      <point x="444" y="423" type="line"/>
      <point x="447" y="414"/>
      <point x="450" y="404"/>
      <point x="451" y="394" type="curve"/>
      <point x="492" y="394" type="line"/>
      <point x="492" y="322" type="line"/>
      <point x="448" y="322" type="line"/>
      <point x="435" y="273"/>
      <point x="399" y="240"/>
      <point x="352" y="222" type="curve"/>
      <point x="423" y="98" type="line"/>
      <point x="485" y="98" type="line"/>
      <point x="485" y="0" type="line"/>
      <point x="336" y="0" type="line"/>
      <point x="228" y="196" type="line"/>
      <point x="40" y="196" type="line"/>
    </contour>
  </outline>
</glyph>
<glyph name="rubel" format="1">
  <advance width="623"/>
  <unicode hex="20BD"/>
  <outline>
    <contour>
      <point x="52" y="114" type="line"/>
      <point x="122" y="114" type="line"/>
      <point x="122" y="145" type="line"/>
      <point x="52" y="145" type="line"/>
      <point x="52" y="214" type="line"/>
      <point x="122" y="214" type="line"/>
      <point x="122" y="248" type="line"/>
      <point x="52" y="248" type="line"/>
      <point x="52" y="361" type="line"/>
      <point x="122" y="361" type="line"/>
      <point x="122" y="536" type="line"/>
      <point x="52" y="536" type="line"/>
      <point x="52" y="650" type="line"/>
      <point x="350" y="650" type="line" smooth="yes"/>
      <point x="511" y="650"/>
      <point x="597" y="582"/>
      <point x="597" y="452" type="curve" smooth="yes"/>
      <point x="597" y="304"/>
      <point x="484" y="248"/>
      <point x="356" y="248" type="curve" smooth="yes"/>
      <point x="256" y="248" type="line"/>
      <point x="256" y="214" type="line"/>
      <point x="495" y="214" type="line"/>
      <point x="495" y="145" type="line"/>
      <point x="256" y="145" type="line"/>
      <point x="256" y="114" type="line"/>
      <point x="356" y="114" type="line"/>
      <point x="356" y="0" type="line"/>
      <point x="52" y="0" type="line"/>
    </contour>
    <contour>
      <point x="331" y="361" type="line" smooth="yes"/>
      <point x="423" y="361"/>
      <point x="453" y="383"/>
      <point x="453" y="446" type="curve" smooth="yes"/>
      <point x="453" y="510"/>
      <point x="422" y="536"/>
      <point x="333" y="536" type="curve" smooth="yes"/>
      <point x="256" y="536" type="line"/>
      <point x="256" y="361" type="line"/>
    </contour>
  </outline>
</glyph>
<glyph name="uni2116" format="1">
  <advance width="1024"/>
  <unicode hex="2116"/>
  <outline>
    <contour>
      <point x="385" y="521" type="line"/>
      <point x="638" y="521" type="line"/>
      <point x="638" y="423" type="line"/>
      <point x="583" y="423" type="line"/>
      <point x="583" y="0" type="line"/>
      <point x="512" y="-1" type="line"/>
      <point x="227" y="317" type="line"/>
      <point x="223" y="317" type="line"/>
      <point x="223" y="98" type="line"/>
      <point x="295" y="98" type="line"/>
      <point x="295" y="0" type="line"/>
      <point x="46" y="0" type="line"/>
      <point x="46" y="98" type="line"/>
      <point x="103" y="98" type="line"/>
      <point x="103" y="423" type="line"/>
      <point x="37" y="423" type="line"/>
      <point x="37" y="521" type="line"/>
      <point x="195" y="521" type="line"/>
      <point x="459" y="227" type="line"/>
      <point x="463" y="227" type="line"/>
      <point x="463" y="423" type="line"/>
      <point x="385" y="423" type="line"/>
    </contour>
    <contour>
      <point x="654" y="371" type="curve" smooth="yes"/>
      <point x="654" y="457"/>
      <point x="709" y="529"/>
      <point x="821" y="529" type="curve" smooth="yes"/>
      <point x="934" y="529"/>
      <point x="988" y="457"/>
      <point x="988" y="376" type="curve" smooth="yes"/>
      <point x="988" y="281"/>
      <point x="914" y="222"/>
      <point x="816" y="222" type="curve" smooth="yes"/>
      <point x="722" y="222"/>
      <point x="654" y="277"/>
    </contour>
    <contour>
      <point x="655" y="109" type="line"/>
      <point x="988" y="109" type="line"/>
      <point x="988" y="194" type="line"/>
      <point x="655" y="194" type="line"/>
    </contour>
    <contour>
      <point x="762" y="377" type="curve" smooth="yes"/>
      <point x="762" y="330"/>
      <point x="780" y="298"/>
      <point x="819" y="298" type="curve" smooth="yes"/>
      <point x="856" y="298"/>
      <point x="880" y="326"/>
      <point x="880" y="378" type="curve" smooth="yes"/>
      <point x="880" y="434"/>
      <point x="852" y="453"/>
      <point x="820" y="453" type="curve" smooth="yes"/>
      <point x="784" y="453"/>
      <point x="762" y="428"/>
    </contour>
  </outline>
</glyph>
<glyph name="estimated" format="1">
  <advance width="592"/>
  <unicode hex="212E"/>
  <outline>
    <contour>
      <point x="568" y="235" type="line"/>
      <point x="568" y="242" type="line" smooth="yes"/>
      <point x="568" y="383"/>
      <point x="454" y="496"/>
      <point x="299" y="496" type="curve" smooth="yes"/>
      <point x="144" y="496"/>
      <point x="32" y="383"/>
      <point x="32" y="242" type="curve" smooth="yes"/>
      <point x="32" y="101"/>
      <point x="144" y="-12"/>
      <point x="299" y="-12" type="curve" smooth="yes"/>
      <point x="390" y="-12"/>
      <point x="458" y="29"/>
      <point x="508" y="87" type="curve"/>
      <point x="484" y="87" type="line"/>
      <point x="441" y="36"/>
      <point x="374" y="3"/>
      <point x="299" y="3" type="curve" smooth="yes"/>
      <point x="231" y="3"/>
      <point x="174" y="39"/>
      <point x="142" y="78" type="curve" smooth="yes"/>
      <point x="138" y="83"/>
      <point x="136" y="89"/>
      <point x="136" y="95" type="curve" smooth="yes"/>
      <point x="136" y="232" type="line" smooth="yes"/>
      <point x="136" y="234"/>
      <point x="137" y="235"/>
      <point x="140" y="235" type="curve" smooth="yes"/>
    </contour>
    <contour>
      <point x="463" y="255" type="line" smooth="yes"/>
      <point x="463" y="252"/>
      <point x="463" y="251"/>
      <point x="462" y="251" type="curve"/>
      <point x="140" y="251" type="line" smooth="yes"/>
      <point x="137" y="251"/>
      <point x="136" y="252"/>
      <point x="136" y="255" type="curve" smooth="yes"/>
      <point x="136" y="388" type="line" smooth="yes"/>
      <point x="136" y="396"/>
      <point x="139" y="401"/>
      <point x="143" y="407" type="curve" smooth="yes"/>
      <point x="166" y="441"/>
      <point x="232" y="481"/>
      <point x="299" y="481" type="curve" smooth="yes"/>
      <point x="366" y="481"/>
      <point x="431" y="444"/>
      <point x="458" y="410" type="curve" smooth="yes"/>
      <point x="463" y="405"/>
      <point x="463" y="399"/>
      <point x="463" y="392" type="curve" smooth="yes"/>
    </contour>
  </outline>
</glyph>
<glyph name="uni215B" format="1">
  <advance width="758"/>
  <unicode hex="215B"/>
  <outline>
    <contour>
      <point x="577" y="-6" type="curve" smooth="yes"/>
      <point x="666" y="-6"/>
      <point x="732" y="30"/>
      <point x="732" y="101" type="curve" smooth="yes"/>
      <point x="732" y="153"/>
      <point x="696" y="182"/>
      <point x="657" y="203" type="curve"/>
      <point x="690" y="219"/>
      <point x="718" y="239"/>
      <point x="718" y="279" type="curve" smooth="yes"/>
      <point x="718" y="334"/>
      <point x="664" y="370"/>
      <point x="582" y="370" type="curve" smooth="yes"/>
      <point x="496" y="370"/>
      <point x="440" y="330"/>
      <point x="440" y="268" type="curve" smooth="yes"/>
      <point x="440" y="223"/>
      <point x="469" y="196"/>
      <point x="505" y="176" type="curve"/>
      <point x="466" y="159"/>
      <point x="433" y="138"/>
      <point x="433" y="90" type="curve" smooth="yes"/>
      <point x="433" y="27"/>
      <point x="492" y="-6"/>
    </contour>
    <contour>
      <point x="600" y="650" type="line"/>
      <point x="409" y="325" type="line"/>
      <point x="228" y="0" type="line"/>
      <point x="140" y="0" type="line"/>
      <point x="338" y="337" type="line"/>
      <point x="512" y="650" type="line"/>
    </contour>
    <contour>
      <point x="35" y="361" type="line"/>
      <point x="108" y="361" type="line"/>
      <point x="108" y="575" type="line"/>
      <point x="35" y="575" type="line"/>
      <point x="35" y="650" type="line"/>
      <point x="209" y="650" type="line"/>
      <point x="209" y="361" type="line"/>
      <point x="274" y="361" type="line"/>
      <point x="274" y="286" type="line"/>
      <point x="35" y="286" type="line"/>
    </contour>
    <contour>
      <point x="581" y="65" type="curve" smooth="yes"/>
      <point x="545" y="65"/>
      <point x="534" y="86"/>
      <point x="534" y="110" type="curve" smooth="yes"/>
      <point x="534" y="128"/>
      <point x="541" y="142"/>
      <point x="553" y="153" type="curve"/>
      <point x="590" y="136"/>
      <point x="623" y="121"/>
      <point x="623" y="94" type="curve" smooth="yes"/>
      <point x="623" y="81"/>
      <point x="613" y="65"/>
    </contour>
    <contour>
      <point x="549" y="275" type="curve" smooth="yes"/>
      <point x="549" y="287"/>
      <point x="557" y="299"/>
      <point x="582" y="299" type="curve" smooth="yes"/>
      <point x="596" y="299"/>
      <point x="617" y="295"/>
      <point x="617" y="264" type="curve" smooth="yes"/>
      <point x="617" y="249"/>
      <point x="612" y="237"/>
      <point x="604" y="228" type="curve"/>
      <point x="573" y="242"/>
      <point x="549" y="255"/>
    </contour>
  </outline>
</glyph>
<glyph name="Delta" format="1">
  <advance width="533"/>
  <unicode hex="2206"/>
  <outline>
    <contour>
      <point x="21" y="0" type="line"/>
      <point x="512" y="0" type="line"/>
      <point x="272" y="661" type="line"/>
    </contour>
    <contour>
      <point x="164" y="98" type="line"/>
      <point x="269" y="394" type="line"/>
      <point x="369" y="98" type="line"/>
    </contour>
  </outline>
</glyph>
<glyph name="minus" format="1">
  <advance width="435"/>
  <unicode hex="2212"/>
  <outline>
    <contour>
      <point x="44" y="237" type="line"/>
      <point x="391" y="237" type="line"/>
      <point x="391" y="325" type="line"/>
      <point x="44" y="325" type="line"/>
    </contour>
  </outline>
</glyph>
<glyph name="infinity" format="1">
  <advance width="706"/>
  <unicode hex="221E"/>
  <outline>
    <contour>
      <point x="510" y="79" type="curve" smooth="yes"/>
      <point x="615" y="79"/>
      <point x="677" y="156"/>
      <point x="677" y="257" type="curve" smooth="yes"/>
      <point x="677" y="354"/>
      <point x="620" y="432"/>
      <point x="516" y="432" type="curve" smooth="yes"/>
      <point x="428" y="432"/>
      <point x="386" y="376"/>
      <point x="352" y="316" type="curve"/>
      <point x="324" y="376"/>
      <point x="289" y="432"/>
      <point x="202" y="432" type="curve" smooth="yes"/>
      <point x="98" y="432"/>
      <point x="28" y="353"/>
      <point x="28" y="253" type="curve" smooth="yes"/>
      <point x="28" y="161"/>
      <point x="89" y="79"/>
      <point x="198" y="79" type="curve" smooth="yes"/>
      <point x="285" y="79"/>
      <point x="322" y="131"/>
      <point x="352" y="188" type="curve"/>
      <point x="383" y="131"/>
      <point x="423" y="79"/>
    </contour>
    <contour>
      <point x="487" y="174" type="curve" smooth="yes"/>
      <point x="433" y="174"/>
      <point x="405" y="208"/>
      <point x="382" y="251" type="curve"/>
      <point x="406" y="298"/>
      <point x="435" y="336"/>
      <point x="493" y="336" type="curve" smooth="yes"/>
      <point x="552" y="336"/>
      <point x="569" y="297"/>
      <point x="569" y="257" type="curve" smooth="yes"/>
      <point x="569" y="205"/>
      <point x="539" y="174"/>
    </contour>
    <contour>
      <point x="210" y="174" type="curve" smooth="yes"/>
      <point x="161" y="174"/>
      <point x="135" y="205"/>
      <point x="135" y="252" type="curve" smooth="yes"/>
      <point x="135" y="295"/>
      <point x="158" y="336"/>
      <point x="213" y="336" type="curve" smooth="yes"/>
      <point x="266" y="336"/>
      <point x="293" y="299"/>
      <point x="318" y="254" type="curve"/>
      <point x="292" y="209"/>
      <point x="262" y="174"/>
    </contour>
  </outline>
</glyph>
<glyph name="greaterequal" format="1">
  <advance width="398"/>
  <unicode hex="2265"/>
  <outline>
    <contour>
      <point x="47" y="94" type="line"/>
      <point x="47" y="206" type="line"/>
      <point x="232" y="314" type="line"/>
      <point x="48" y="417" type="line"/>
      <point x="48" y="529" type="line"/>
      <point x="366" y="341" type="line"/>
      <point x="366" y="277" type="line"/>
    </contour>
    <contour>
      <point x="367" y="0" type="line"/>
      <point x="47" y="0" type="line"/>
      <point x="47" y="88" type="line"/>
      <point x="367" y="88" type="line"/>
    </contour>
  </outline>
</glyph>
<glyph name="lozenge" format="1">
  <advance width="578"/>
  <unicode hex="25CA"/>
  <outline>
    <contour>
      <point x="290" y="-11" type="line"/>
      <point x="557" y="320" type="line"/>
      <point x="290" y="660" type="line"/>
      <point x="22" y="320" type="line"/>
    </contour>
    <contour>
      <point x="290" y="136" type="line"/>
      <point x="146" y="320" type="line"/>
      <point x="290" y="501" type="line"/>
      <point x="433" y="320" type="line"/>
    </contour>
  </outline>
</glyph>
<glyph name="uni2611" format="1">
  <advance width="879"/>
  <unicode hex="2611"/>
  <outline>
    <contour>
      <point x="101" y="0" type="line"/>
      <point x="778" y="0" type="line"/>
      <point x="778" y="651" type="line"/>
      <point x="101" y="651" type="line"/>
    </contour>
    <contour>
      <point x="201" y="551" type="line"/>
      <point x="679" y="551" type="line"/>
      <point x="679" y="99" type="line"/>
      <point x="201" y="99" type="line"/>
    </contour>
    <contour>
      <point x="326" y="328" type="line"/>
      <point x="237" y="243" type="line"/>
      <point x="389" y="129" type="line"/>
      <point x="653" y="471" type="line"/>
      <point x="549" y="535" type="line"/>
      <point x="387" y="216" type="line"/>
    </contour>
  </outline>
</glyph>
<glyph name="f_f" format="1">
  <advance width="645"/>
  <unicode hex="FB00"/>
  <outline>
    <contour>
      <point x="390" y="98" type="line"/>
      <point x="330" y="98" type="line"/>
      <point x="330" y="0" type="line"/>
      <point x="594" y="0" type="line"/>
      <point x="594" y="98" type="line"/>
      <point x="519" y="98" type="line"/>
      <point x="519" y="353" type="line"/>
      <point x="630" y="353" type="line"/>
      <point x="630" y="451" type="line"/>
      <point x="519" y="451" type="line"/>
      <point x="519" y="541" type="line" smooth="yes"/>
      <point x="519" y="580"/>
      <point x="538" y="601"/>
      <point x="569" y="601" type="curve" smooth="yes"/>
      <point x="579" y="601"/>
      <point x="591" y="599"/>
      <point x="605" y="595" type="curve"/>
      <point x="627" y="524" type="line"/>
      <point x="727" y="535" type="line"/>
      <point x="707" y="657" type="line"/>
      <point x="665" y="688"/>
      <point x="612" y="698"/>
      <point x="571" y="698" type="curve" smooth="yes"/>
      <point x="512" y="698"/>
      <point x="466" y="677"/>
      <point x="436" y="644" type="curve"/>
      <point x="397" y="672"/>
      <point x="345" y="688"/>
      <point x="288" y="688" type="curve" smooth="yes"/>
      <point x="164" y="688"/>
      <point x="88" y="609"/>
      <point x="88" y="503" type="curve" smooth="yes"/>
      <point x="88" y="451" type="line"/>
      <point x="33" y="451" type="line"/>
      <point x="33" y="353" type="line"/>
      <point x="88" y="353" type="line"/>
      <point x="88" y="98" type="line"/>
      <point x="28" y="98" type="line"/>
      <point x="28" y="0" type="line"/>
      <point x="292" y="0" type="line"/>
      <point x="292" y="98" type="line"/>
      <point x="217" y="98" type="line"/>
      <point x="217" y="353" type="line"/>
      <point x="390" y="353" type="line"/>
    </contour>
    <contour>
      <point x="217" y="509" type="line" smooth="yes"/>
      <point x="217" y="566"/>
      <point x="254" y="592"/>
      <point x="309" y="592" type="curve" smooth="yes"/>
      <point x="338" y="592"/>
      <point x="369" y="582"/>
      <point x="395" y="565" type="curve"/>
      <point x="392" y="550"/>
      <point x="390" y="535"/>
      <point x="390" y="520" type="curve" smooth="yes"/>
      <point x="390" y="451" type="line"/>
      <point x="217" y="451" type="line"/>
    </contour>
  </outline>
</glyph>
<glyph name="fl" format="1">
  <advance width="598"/>
  <unicode hex="FB02"/>
  <outline>
    <contour>
      <point x="580" y="0" type="line"/>
      <point x="580" y="98" type="line"/>
      <point x="520" y="98" type="line"/>
      <point x="520" y="688" type="line"/>
      <point x="391" y="688" type="line"/>
      <point x="391" y="662" type="line"/>
      <point x="357" y="688"/>
      <point x="317" y="698"/>
      <point x="276" y="698" type="curve" smooth="yes"/>
      <point x="159" y="698"/>
      <point x="88" y="619"/>
      <point x="88" y="513" type="curve" smooth="yes"/>
      <point x="88" y="451" type="line"/>
      <point x="33" y="451" type="line"/>
      <point x="33" y="353" type="line"/>
      <point x="88" y="353" type="line"/>
      <point x="88" y="98" type="line"/>
      <point x="28" y="98" type="line"/>
      <point x="28" y="0" type="line"/>
      <point x="292" y="0" type="line"/>
      <point x="292" y="98" type="line"/>
      <point x="217" y="98" type="line"/>
      <point x="217" y="353" type="line"/>
      <point x="308" y="353" type="line"/>
      <point x="308" y="451" type="line"/>
      <point x="217" y="451" type="line"/>
      <point x="217" y="519" type="line" smooth="yes"/>
      <point x="217" y="565"/>
      <point x="247" y="602"/>
      <point x="308" y="602" type="curve" smooth="yes"/>
      <point x="341" y="602"/>
      <point x="368" y="591"/>
      <point x="391" y="570" type="curve"/>
      <point x="391" y="98" type="line"/>
      <point x="331" y="98" type="line"/>
      <point x="331" y="0" type="line"/>
    </contour>
  </outline>
</glyph>
<glyph name="Abreve.c2sc" format="1">
  <advance width="590"/>
  <outline>
    <contour>
      <point x="15" y="98" type="line"/>
      <point x="62" y="98" type="line"/>
      <point x="215" y="423" type="line"/>
      <point x="141" y="423" type="line"/>
      <point x="141" y="521" type="line"/>
      <point x="339" y="521" type="line"/>
      <point x="537" y="98" type="line"/>
      <point x="587" y="98" type="line"/>
      <point x="587" y="0" type="line"/>
      <point x="361" y="0" type="line"/>
      <point x="361" y="98" type="line"/>
      <point x="399" y="98" type="line"/>
      <point x="382" y="143" type="line"/>
      <point x="209" y="143" type="line"/>
      <point x="192" y="98" type="line"/>
      <point x="237" y="98" type="line"/>
      <point x="237" y="0" type="line"/>
      <point x="15" y="0" type="line"/>
    </contour>
    <contour>
      <point x="437" y="701" type="curve"/>
      <point x="335" y="701" type="line"/>
      <point x="335" y="669"/>
      <point x="325" y="640"/>
      <point x="297" y="640" type="curve" smooth="yes"/>
      <point x="271" y="640"/>
      <point x="260" y="665"/>
      <point x="260" y="701" type="curve"/>
      <point x="158" y="701" type="line"/>
      <point x="158" y="609"/>
      <point x="208" y="563"/>
      <point x="295" y="563" type="curve" smooth="yes"/>
      <point x="379" y="563"/>
      <point x="437" y="606"/>
    </contour>
    <contour>
      <point x="294" y="358" type="line"/>
      <point x="241" y="225" type="line"/>
      <point x="350" y="225" type="line"/>
      <point x="299" y="358" type="line"/>
    </contour>
  </outline>
</glyph>
<glyph name="Acircumflex.c2sc" format="1">
  <advance width="590"/>
  <outline>
    <contour>
      <point x="15" y="98" type="line"/>
      <point x="62" y="98" type="line"/>
      <point x="215" y="423" type="line"/>
      <point x="141" y="423" type="line"/>
      <point x="141" y="521" type="line"/>
      <point x="339" y="521" type="line"/>
      <point x="537" y="98" type="line"/>
      <point x="587" y="98" type="line"/>
      <point x="587" y="0" type="line"/>
      <point x="361" y="0" type="line"/>
      <point x="361" y="98" type="line"/>
      <point x="399" y="98" type="line"/>
      <point x="382" y="143" type="line"/>
      <point x="209" y="143" type="line"/>
      <point x="192" y="98" type="line"/>
      <point x="237" y="98" type="line"/>
      <point x="237" y="0" type="line"/>
      <point x="15" y="0" type="line"/>
    </contour>
    <contour>
      <point x="459" y="606" type="line"/>
      <point x="323" y="733" type="line"/>
      <point x="278" y="733" type="line"/>
      <point x="143" y="607" type="line"/>
      <point x="178" y="556" type="line"/>
      <point x="290" y="624" type="line"/>
      <point x="425" y="557" type="line"/>
    </contour>
    <contour>
      <point x="294" y="358" type="line"/>
      <point x="241" y="225" type="line"/>
      <point x="350" y="225" type="line"/>
      <point x="299" y="358" type="line"/>
    </contour>
  </outline>
</glyph>
<glyph name="Aring.c2sc" format="1">
  <advance width="590"/>
  <outline>
    <contour>
      <point x="15" y="98" type="line"/>
      <point x="62" y="98" type="line"/>
      <point x="215" y="423" type="line"/>
      <point x="141" y="423" type="line"/>
      <point x="141" y="521" type="line"/>
      <point x="339" y="521" type="line"/>
      <point x="537" y="98" type="line"/>
      <point x="587" y="98" type="line"/>
      <point x="587" y="0" type="line"/>
      <point x="361" y="0" type="line"/>
      <point x="361" y="98" type="line"/>
      <point x="399" y="98" type="line"/>
      <point x="382" y="143" type="line"/>
      <point x="209" y="143" type="line"/>
      <point x="192" y="98" type="line"/>
      <point x="237" y="98" type="line"/>
      <point x="237" y="0" type="line"/>
      <point x="15" y="0" type="line"/>
    </contour>
    <contour>
      <point x="405" y="650" type="curve" smooth="yes"/>
      <point x="405" y="702"/>
      <point x="375" y="740"/>
      <point x="302" y="740" type="curve" smooth="yes"/>
      <point x="230" y="740"/>
      <point x="196" y="703"/>
      <point x="196" y="647" type="curve" smooth="yes"/>
      <point x="196" y="592"/>
      <point x="229" y="556"/>
      <point x="299" y="556" type="curve" smooth="yes"/>
      <point x="372" y="556"/>
      <point x="405" y="595"/>
    </contour>
    <contour>
      <point x="294" y="358" type="line"/>
      <point x="241" y="225" type="line"/>
      <point x="350" y="225" type="line"/>
      <point x="299" y="358" type="line"/>
    </contour>
    <contour>
      <point x="325" y="652" type="curve" smooth="yes"/>
      <point x="325" y="629"/>
      <point x="322" y="616"/>
      <point x="300" y="616" type="curve" smooth="yes"/>
      <point x="279" y="616"/>
      <point x="276" y="627"/>
      <point x="276" y="647" type="curve" smooth="yes"/>
      <point x="276" y="667"/>
      <point x="279" y="680"/>
      <point x="301" y="680" type="curve" smooth="yes"/>
      <point x="324" y="680"/>
      <point x="325" y="665"/>
    </contour>
  </outline>
</glyph>
<glyph name="Atilde.c2sc" format="1">
  <advance width="590"/>
  <outline>
    <contour>
      <point x="15" y="98" type="line"/>
      <point x="62" y="98" type="line"/>
      <point x="215" y="423" type="line"/>
      <point x="141" y="423" type="line"/>
      <point x="141" y="521" type="line"/>
      <point x="339" y="521" type="line"/>
      <point x="537" y="98" type="line"/>
      <point x="587" y="98" type="line"/>
      <point x="587" y="0" type="line"/>
      <point x="361" y="0" type="line"/>
      <point x="361" y="98" type="line"/>
      <point x="399" y="98" type="line"/>
      <point x="382" y="143" type="line"/>
      <point x="209" y="143" type="line"/>
      <point x="192" y="98" type="line"/>
      <point x="237" y="98" type="line"/>
      <point x="237" y="0" type="line"/>
      <point x="15" y="0" type="line"/>
    </contour>
    <contour>
      <point x="441" y="698" type="curve"/>
      <point x="387" y="709" type="line"/>
      <point x="378" y="680"/>
      <point x="359" y="668"/>
      <point x="340" y="668" type="curve" smooth="yes"/>
      <point x="306" y="668"/>
      <point x="268" y="706"/>
      <point x="223" y="706" type="curve" smooth="yes"/>
      <point x="157" y="706"/>
      <point x="135" y="620"/>
      <point x="138" y="582" type="curve"/>
      <point x="188" y="566" type="line"/>
      <point x="196" y="595"/>
      <point x="210" y="609"/>
      <point x="233" y="609" type="curve" smooth="yes"/>
      <point x="273" y="609"/>
      <point x="307" y="568"/>
      <point x="358" y="568" type="curve" smooth="yes"/>
      <point x="424" y="568"/>
      <point x="441" y="640"/>
    </contour>
    <contour>
      <point x="294" y="358" type="line"/>
      <point x="241" y="225" type="line"/>
      <point x="350" y="225" type="line"/>
      <point x="299" y="358" type="line"/>
    </contour>
  </outline>
</glyph>
<glyph name="E.c2sc" format="1">
  <advance width="516"/>
  <outline>
    <contour>
      <point x="470" y="0" type="line"/>
      <point x="490" y="152" type="line"/>
      <point x="377" y="162" type="line"/>
      <point x="367" y="98" type="line"/>
      <point x="223" y="98" type="line"/>
      <point x="223" y="213" type="line"/>
      <point x="445" y="213" type="line"/>
      <point x="445" y="310" type="line"/>
      <point x="223" y="310" type="line"/>
      <point x="223" y="423" type="line"/>
      <point x="369" y="423" type="line"/>
      <point x="379" y="360" type="line"/>
      <point x="488" y="371" type="line"/>
      <point x="472" y="521" type="line"/>
      <point x="39" y="521" type="line"/>
      <point x="39" y="423" type="line"/>
      <point x="94" y="423" type="line"/>
      <point x="94" y="98" type="line"/>
      <point x="39" y="98" type="line"/>
      <point x="39" y="0" type="line"/>
    </contour>
  </outline>
</glyph>
<glyph name="Euro.smcp" format="1">
  <advance width="592"/>
  <outline>
    <contour>
      <point x="532" y="58" type="line"/>
      <point x="495" y="20"/>
      <point x="413" y="-8"/>
      <point x="332" y="-8" type="curve" smooth="yes"/>
      <point x="210" y="-8"/>
      <point x="126" y="55"/>
      <point x="95" y="157" type="curve"/>
      <point x="30" y="157" type="line"/>
      <point x="30" y="232" type="line"/>
      <point x="81" y="232" type="line"/>
      <point x="81" y="277" type="line"/>
      <point x="30" y="277" type="line"/>
      <point x="30" y="352" type="line"/>
      <point x="93" y="352" type="line"/>
      <point x="123" y="456"/>
      <point x="204" y="529"/>
      <point x="337" y="529" type="curve" smooth="yes"/>
      <point x="425" y="529"/>
      <point x="494" y="497"/>
      <point x="528" y="466" type="curve"/>
      <point x="541" y="343" type="line"/>
      <point x="433" y="335" type="line"/>
      <point x="421" y="405" type="line"/>
      <point x="399" y="424"/>
      <point x="373" y="428"/>
      <point x="349" y="428" type="curve" smooth="yes"/>
      <point x="290" y="428"/>
      <point x="252" y="402"/>
      <point x="233" y="352" type="curve"/>
      <point x="364" y="352" type="line"/>
      <point x="364" y="277" type="line"/>
      <point x="220" y="277" type="line"/>
      <point x="220" y="259" type="line" smooth="yes"/>
      <point x="220" y="249"/>
      <point x="220" y="240"/>
      <point x="221" y="232" type="curve"/>
      <point x="339" y="232" type="line"/>
      <point x="339" y="157" type="line"/>
      <point x="237" y="157" type="line"/>
      <point x="258" y="111"/>
      <point x="298" y="93"/>
      <point x="354" y="93" type="curve" smooth="yes"/>
      <point x="386" y="93"/>
      <point x="406" y="99"/>
      <point x="422" y="114" type="curve"/>
      <point x="434" y="191" type="line"/>
      <point x="542" y="183" type="line"/>
    </contour>
  </outline>
</glyph>
<glyph name="FL1000" format="1">
  <advance width="299"/>
  <outline>
    <contour>
      <point x="32" y="98" type="line"/>
      <point x="92" y="98" type="line"/>
      <point x="92" y="353" type="line"/>
      <point x="27" y="353" type="line"/>
      <point x="27" y="451" type="line"/>
      <point x="221" y="451" type="line"/>
      <point x="221" y="98" type="line"/>
      <point x="281" y="98" type="line"/>
      <point x="281" y="0" type="line"/>
      <point x="32" y="0" type="line"/>
    </contour>
    <contour>
      <point x="276" y="515" type="line"/>
      <point x="276" y="607"/>
      <point x="226" y="653"/>
      <point x="139" y="653" type="curve" smooth="yes"/>
      <point x="55" y="653"/>
      <point x="-3" y="610"/>
      <point x="-3" y="515" type="curve"/>
      <point x="99" y="515" type="line"/>
      <point x="99" y="547"/>
      <point x="109" y="576"/>
      <point x="137" y="576" type="curve" smooth="yes"/>
      <point x="163" y="576"/>
      <point x="174" y="551"/>
      <point x="174" y="515" type="curve"/>
    </contour>
  </outline>
</glyph>
